<?xml version="1.0" encoding="utf-8"?>
<!-- Generator: Adobe Illustrator 16.0.0, SVG Export Plug-In . SVG Version: 6.00 Build 0)  -->
<!DOCTYPE svg PUBLIC "-//W3C//DTD SVG 1.1//EN" "http://www.w3.org/Graphics/SVG/1.1/DTD/svg11.dtd">
<svg version="1.1" id="Layer_1" xmlns="http://www.w3.org/2000/svg" xmlns:xlink="http://www.w3.org/1999/xlink" x="0px" y="0px"
	 width="12.669px" height="14.16px" viewBox="0 0 12.669 14.16" enable-background="new 0 0 12.669 14.16" xml:space="preserve">
<g>
	<g>
		<g>
			<path d="M9.018,6.033c0-0.317-0.254-0.571-0.572-0.571H2.73c-0.317,0-0.571,0.254-0.571,0.571S2.413,6.604,2.73,6.604h5.715
				C8.764,6.604,9.018,6.35,9.018,6.033z"/>
			<path d="M2.73,7.684c-0.317,0-0.571,0.253-0.571,0.571c0,0.317,0.254,0.571,0.571,0.571h3.493c0.317,0,0.571-0.254,0.571-0.571
				c0-0.318-0.254-0.571-0.571-0.571H2.73z"/>
			<path d="M4.064,13.018H2.223c-0.635,0-1.08-0.508-1.08-1.08V2.222c0-0.634,0.508-1.079,1.08-1.079h6.795
				c0.635,0,1.079,0.508,1.079,1.079v3.43c0,0.317,0.255,0.571,0.571,0.571c0.317,0,0.572-0.254,0.572-0.571v-3.43
				C11.24,1.016,10.224,0,9.018,0H2.223C1.016,0,0,1.016,0,2.222v9.715c0,1.207,1.016,2.223,2.223,2.223h1.842
				c0.317,0,0.571-0.254,0.571-0.57C4.636,13.271,4.382,13.018,4.064,13.018z"/>
			<path d="M12.192,7.937c-0.635-0.635-1.715-0.635-2.35,0l-3.048,3.049c-0.063,0.063-0.127,0.127-0.127,0.254l-0.635,2.158
				c-0.063,0.191,0,0.381,0.127,0.572c0.126,0.127,0.254,0.189,0.381,0.189c0.063,0,0.127,0,0.127,0l2.223-0.635
				c0.063,0,0.19-0.063,0.254-0.127l3.048-3.047C12.827,9.652,12.827,8.573,12.192,7.937z M8.51,12.445l-1.144,0.318l0.317-1.08
				l2.032-2.031l0.762,0.762L8.51,12.445z M11.431,9.525l-0.127,0.127L10.542,8.89l0.126-0.127c0.191-0.19,0.572-0.19,0.763,0
				S11.621,9.271,11.431,9.525z"/>
			<path d="M8.445,3.238H2.73c-0.317,0-0.571,0.254-0.571,0.572S2.413,4.381,2.73,4.381h5.715c0.318,0,0.572-0.254,0.572-0.571
				S8.764,3.238,8.445,3.238z"/>
		</g>
	</g>
</g>
</svg>
