<?xml version="1.0" encoding="utf-8"?>
<!-- Generator: Adobe Illustrator 16.0.0, SVG Export Plug-In . SVG Version: 6.00 Build 0)  -->
<!DOCTYPE svg PUBLIC "-//W3C//DTD SVG 1.1//EN" "http://www.w3.org/Graphics/SVG/1.1/DTD/svg11.dtd">
<svg version="1.1" id="Layer_1" xmlns="http://www.w3.org/2000/svg" xmlns:xlink="http://www.w3.org/1999/xlink" x="0px" y="0px"
	 width="16px" height="13.884px" viewBox="0 0 16 13.884" enable-background="new 0 0 16 13.884" xml:space="preserve">
<path d="M9.508,13.578c-0.412,0.408-0.892,0.408-1.302-0.004c-0.408-0.41-0.408-0.889,0.003-1.299l4.591-4.298L0.903,7.95
	C0.355,7.948,0.014,7.537,0.016,7.06C0.017,6.58,0.428,6.17,0.907,6.171l11.899,0.027L8.233,1.607
	c-0.408-0.412-0.407-0.89,0.003-1.3c0.412-0.41,0.891-0.409,1.301,0.003l6.141,6.169c0.409,0.411,0.409,0.89-0.002,1.301
	L9.508,13.578z"/>
</svg>
