<?xml version="1.0" encoding="utf-8"?>
<!-- Generator: Adobe Illustrator 16.0.0, SVG Export Plug-In . SVG Version: 6.00 Build 0)  -->
<!DOCTYPE svg PUBLIC "-//W3C//DTD SVG 1.1//EN" "http://www.w3.org/Graphics/SVG/1.1/DTD/svg11.dtd">
<svg version="1.1" id="Layer_1" xmlns="http://www.w3.org/2000/svg" xmlns:xlink="http://www.w3.org/1999/xlink" x="0px" y="0px"
	 width="28.565px" height="27px" viewBox="0 0 28.565 27" enable-background="new 0 0 28.565 27" xml:space="preserve">
<g>
	<g>
		<path d="M24.434,1.982H20.81V1.046c0-0.584-0.351-0.935-0.936-0.935s-0.936,0.351-0.936,0.935v0.936H9.937V1.046
			c0-0.584-0.351-0.935-0.935-0.935c-0.585,0-0.936,0.351-0.936,0.935v0.936H4.442C1.988,1.982,0,3.97,0,6.424v16.133
			C0,25.012,1.988,27,4.442,27h19.641c2.454,0,4.442-1.988,4.442-4.443V6.424C28.525,3.813,26.889,1.982,24.434,1.982L24.434,1.982z
			 M1.988,6.424c0-1.402,1.286-2.688,2.688-2.688h3.625v0.935c0,0.585,0.351,0.935,0.935,0.935s0.935-0.35,0.935-0.935V3.736h9.002
			v0.935c0,0.585,0.351,0.935,0.936,0.935c0.584,0,0.935-0.35,0.935-0.935V3.736h3.624c1.403,0,2.688,1.286,2.688,2.688v2.689H2.339
			V6.424H1.988z M27.122,22.557c0,1.403-1.286,2.689-2.688,2.689H4.794c-1.404,0-2.689-1.286-2.689-2.689V10.867h25.018V22.557
			L27.122,22.557z"/>
		<path d="M6.546,22.557c0.585,0,0.936-0.232,1.286-0.585c0.351-0.351,0.584-0.935,0.584-1.285S8.183,19.751,7.833,19.4
			c-0.701-0.701-1.753-0.701-2.455,0c-0.351,0.351-0.585,0.701-0.585,1.286c0,0.351,0.234,0.935,0.585,1.285
			C5.611,22.324,5.962,22.557,6.546,22.557z"/>
		<path d="M6.546,17.18c0.585,0,0.936-0.234,1.286-0.585s0.584-0.935,0.584-1.286s-0.234-0.935-0.584-1.286
			c-0.701-0.701-1.753-0.701-2.455,0c-0.351,0.351-0.585,0.701-0.585,1.286s0.234,0.935,0.585,1.286
			C5.611,16.945,5.962,17.18,6.546,17.18z"/>
		<path d="M11.924,22.557c0.585,0,0.935-0.232,1.287-0.585c0.351-0.351,0.583-0.935,0.583-1.285s-0.233-0.936-0.583-1.286
			c-0.702-0.701-1.754-0.701-2.455,0c-0.351,0.351-0.585,0.936-0.585,1.286s0.234,0.935,0.585,1.285
			C10.989,22.324,11.34,22.557,11.924,22.557z"/>
		<path d="M11.924,17.18c0.585,0,0.935-0.234,1.287-0.585c0.351-0.351,0.583-0.935,0.583-1.286s-0.233-0.935-0.583-1.286
			c-0.702-0.701-1.754-0.701-2.455,0c-0.351,0.351-0.585,0.935-0.585,1.286s0.234,0.935,0.585,1.286
			C10.989,16.945,11.34,17.18,11.924,17.18z"/>
		<path d="M17.302,22.557c0.585,0,0.936-0.232,1.286-0.585c0.351-0.351,0.585-0.7,0.585-1.285s-0.234-0.936-0.585-1.286
			c-0.701-0.701-1.754-0.701-2.455,0c-0.351,0.351-0.584,0.936-0.584,1.286s0.234,0.935,0.584,1.285
			C16.367,22.324,16.718,22.557,17.302,22.557z"/>
		<path d="M17.302,17.18c0.585,0,0.936-0.234,1.286-0.585c0.351-0.351,0.585-0.701,0.585-1.286c0-0.351-0.234-0.935-0.585-1.286
			c-0.701-0.701-1.754-0.701-2.455,0c-0.351,0.351-0.584,0.935-0.584,1.286s0.234,0.935,0.584,1.286
			C16.367,16.945,16.718,17.18,17.302,17.18z"/>
		<path d="M22.563,22.557c0.584,0,0.935-0.232,1.285-0.585c0.351-0.351,0.585-0.935,0.585-1.285s-0.234-0.936-0.585-1.286
			c-0.701-0.701-1.754-0.701-2.455,0c-0.351,0.351-0.584,0.701-0.584,1.286c0,0.351,0.233,0.935,0.584,1.285
			C21.744,22.324,22.095,22.557,22.563,22.557z"/>
		<path d="M22.563,17.18c0.584,0,0.935-0.234,1.285-0.585s0.585-0.701,0.585-1.286c0-0.351-0.234-0.935-0.585-1.286
			c-0.701-0.701-1.754-0.701-2.455,0c-0.351,0.351-0.584,0.935-0.584,1.286s0.233,0.935,0.584,1.286S22.095,17.18,22.563,17.18z"/>
	</g>
</g>
</svg>
