<?xml version="1.0" encoding="utf-8"?>
<!-- Generator: Adobe Illustrator 16.0.0, SVG Export Plug-In . SVG Version: 6.00 Build 0)  -->
<!DOCTYPE svg PUBLIC "-//W3C//DTD SVG 1.1//EN" "http://www.w3.org/Graphics/SVG/1.1/DTD/svg11.dtd">
<svg version="1.1" id="Layer_1" xmlns="http://www.w3.org/2000/svg" xmlns:xlink="http://www.w3.org/1999/xlink" x="0px" y="0px"
	 width="30.219px" height="27px" viewBox="0 0 30.219 27" enable-background="new 0 0 30.219 27" xml:space="preserve">
<g>
	<g>
		<path fill="#FFFFFF" d="M0.943,16.09h2.455v9.819C3.398,26.455,3.853,27,4.489,27h7.183c0.546,0,1.091-0.455,1.091-1.091v-7.183
			h4.364v7.183c0,0.546,0.455,1.091,1.09,1.091h6.82c0.545,0,1.09-0.455,1.09-1.091V16.09h3c0.455,0,0.817-0.273,1-0.637
			c0.184-0.364,0.092-0.818-0.273-1.182L16.126,0.362c-0.364-0.364-1.091-0.455-1.455,0L0.307,14.271
			C0.034,14.545-0.057,15,0.034,15.454C0.216,15.816,0.58,16.09,0.943,16.09z M15.308,2.635L26.58,13.999h-1.543
			c-0.547,0-1.095,0.455-1.095,1.091v9.818h-4.726v-7.182c0-0.545-0.455-1.092-1.092-1.092H11.58c-0.545,0-1.092,0.455-1.092,1.092
			v7.182H5.398V15.09c0-0.545-0.455-1.091-1.091-1.091H3.398L15.308,2.635z"/>
	</g>
</g>
</svg>
