<?xml version="1.0" encoding="utf-8"?>
<!-- Generator: Adobe Illustrator 22.0.1, SVG Export Plug-In . SVG Version: 6.00 Build 0)  -->
<svg version="1.1" id="Layer_1" xmlns="http://www.w3.org/2000/svg" xmlns:xlink="http://www.w3.org/1999/xlink" x="0px" y="0px"
	 viewBox="0 0 300 400" style="enable-background:new 0 0 300 400;" xml:space="preserve">
<style type="text/css">
	.st0{fill:#FFFFFF;}
	.st1{fill:url(#SVGID_1_);}
	.st2{fill:#666666;}
	.st3{fill:#989696;}
	.st4{fill:#20425E;}
	.st5{fill:#FF2D03;}
	.st6{fill:#297DCF;}
	.st7{fill:url(#SVGID_2_);}
	.st8{fill:#363D47;}
	.st9{fill:url(#SVGID_3_);}
	.st10{fill:#888F9A;}
	.st11{fill:url(#SVGID_4_);}
	.st12{fill:url(#SVGID_5_);}
	.st13{fill:url(#SVGID_6_);}
	.st14{fill:none;stroke:#A8A8A8;stroke-miterlimit:10;}
	.st15{fill:none;stroke:#2C7CC9;stroke-miterlimit:10;}
	.st16{fill:#2C7CC9;}
	.st17{fill:#31AF91;stroke:#31AF91;stroke-miterlimit:10;}
	.st18{fill:#FFFFFF;stroke:#666666;stroke-miterlimit:10;}
	.st19{fill:#FFFFFF;stroke:#2C7CC9;stroke-miterlimit:10;}
	.st20{fill:#FFFFFF;stroke:#31AF91;stroke-miterlimit:10;}
	.st21{fill:#2C7CC9;stroke:#2C7CC9;stroke-miterlimit:10;}
	.st22{fill:#393687;}
	.st23{fill:#89D3FF;}
	.st24{fill:#6D4C13;}
	.st25{fill:#FFBD2E;}
	.st26{fill:#E24C3F;}
	.st27{opacity:0.2;fill:#5D5D5D;enable-background:new    ;}
	.st28{fill:#FF7063;}
</style>
<circle class="st0" cx="149.5" cy="191.5" r="6.5"/>
<linearGradient id="SVGID_1_" gradientUnits="userSpaceOnUse" x1="149.5" y1="197" x2="149.5" y2="186">
	<stop  offset="0" style="stop-color:#E9E9E8"/>
	<stop  offset="0.7001" style="stop-color:#F0F1F1"/>
	<stop  offset="0.9944" style="stop-color:#F4F5F7"/>
</linearGradient>
<circle class="st1" cx="149.5" cy="191.5" r="5.5"/>
<g id="Layer_4">
	<g>
		<path class="st0" d="M18.8,12.2h-17c-0.3,0-0.6,0.3-0.6,0.6v12.4c0,0.3,0.3,0.6,0.6,0.6h17c0.3,0,0.6-0.3,0.6-0.6V12.8
			C19.4,12.5,19.1,12.2,18.8,12.2z M18.2,13.3v9.5l-3.5-3.5c-0.2-0.2-0.6-0.2-0.8,0l-2.1,2.1l-4.9-4c-0.2-0.2-0.6-0.2-0.8,0
			l-3.7,4.7v-8.8H18.2z M2.3,24.6v-0.9l4.1-5.1l6.9,6H2.3z M14.9,24.6L14.9,24.6l-2.4-2.4l1.8-1.8l3.8,3.8l0.1,0.1v0.2h-3.3V24.6z"
			/>
		<path class="st0" d="M12.3,18.7c1.1,0,2-0.9,2-2s-0.9-2-2-2s-2,0.9-2,2C10.3,17.8,11.2,18.7,12.3,18.7z M12.3,15.4
			c0.7,0,1.3,0.6,1.3,1.3c0,0.7-0.6,1.3-1.3,1.3S11,17.4,11,16.7C11,16,11.6,15.4,12.3,15.4z"/>
	</g>
	<g>
		<path class="st0" d="M37.2,11.6L37.2,11.6L37.2,11.6L37.2,11.6L37.2,11.6L33,7.4c-0.1-0.1-0.2-0.1-0.3-0.1h-0.8l0,0h-8.2
			c-0.7,0-1.3,0.6-1.3,1.3v16.8c0,0.7,0.6,1.3,1.3,1.3h12.4c0.7,0,1.3-0.6,1.3-1.3V11.9C37.3,11.8,37.3,11.7,37.2,11.6z M32.3,8.5
			l3.7,3.8h-3.7V8.5z M36.2,25c0,0.2-0.2,0.4-0.4,0.4H24c-0.2,0-0.4-0.2-0.4-0.4V8.9c0-0.2,0.2-0.4,0.4-0.4h7.1v4.3
			c0,0.2,0.1,0.8,0.7,0.8h4.4V25z"/>
		<path class="st0" d="M29.9,14.7c-0.1-0.1-0.2-0.1-0.3-0.1l0,0h-0.1l0,0l0,0c-0.1,0-0.3,0.1-0.4,0.2l-2.4,2.6
			c-0.1,0.1-0.2,0.3-0.2,0.4c0,0.2,0.1,0.3,0.2,0.4c0.2,0.2,0.6,0.2,0.9,0l1.4-1.6v6.2c0,0.3,0.3,0.6,0.6,0.6s0.6-0.3,0.6-0.6v-6.2
			l1.6,1.6c0.2,0.2,0.6,0.2,0.9,0c0.2-0.2,0.2-0.6,0-0.9L29.9,14.7L29.9,14.7z"/>
	</g>
	<g>
		<g>
			<path class="st0" d="M82.7,14.8l-1.3-0.2c-0.1-0.4-0.3-0.9-0.5-1.3l0.8-1.1c0.3-0.5,0.3-1.1-0.1-1.5l-1.2-1.2
				c-0.2-0.2-0.5-0.3-0.8-0.3c-0.2,0-0.5,0.1-0.7,0.2l-1.1,0.8c-0.4-0.2-0.9-0.4-1.3-0.6l-0.2-1.3c-0.1-0.6-0.6-1-1.2-1h-1.7
				c-0.6,0-1.1,0.4-1.2,1L72,9.6c-0.4,0.1-0.9,0.3-1.3,0.5l-1.1-0.8c-0.2-0.1-0.4-0.2-0.7-0.2c-0.3,0-0.6,0.1-0.8,0.3l-1.2,1.2
				c-0.4,0.4-0.5,1-0.1,1.5l0.8,1.1c-0.2,0.4-0.4,0.8-0.5,1.3l-1.3,0.2c-0.6,0.1-1,0.6-1,1.2v1.7c0,0.6,0.4,1.1,1,1.2l1.3,0.2
				c0.1,0.4,0.3,0.9,0.5,1.3l-0.8,1.1c-0.3,0.5-0.3,1.1,0.1,1.5l1.2,1.2c0.2,0.2,0.5,0.3,0.8,0.3c0.2,0,0.5-0.1,0.7-0.2l1.1-0.8
				c0.4,0.2,0.8,0.4,1.3,0.5l0.2,1.3c0.1,0.6,0.6,1,1.2,1H75c0.6,0,1.1-0.4,1.2-1l0.2-1.3c0.4-0.1,0.9-0.3,1.3-0.5l1.1,0.8
				c0.2,0.1,0.4,0.2,0.7,0.2l0,0c0.3,0,0.6-0.1,0.8-0.3l1.2-1.2c0.4-0.4,0.5-1,0.1-1.5l-0.8-1.1c0.2-0.4,0.4-0.8,0.5-1.3l1.3-0.2
				c0.6-0.1,1-0.6,1-1.2V16C83.6,15.4,83.2,14.9,82.7,14.8z M82.6,17.6C82.6,17.7,82.6,17.7,82.6,17.6L80.8,18
				c-0.2,0-0.4,0.2-0.4,0.4c-0.2,0.6-0.4,1.1-0.7,1.7c-0.1,0.2-0.1,0.4,0,0.6l1,1.4v0.1l-1.2,1.2h-0.1c0,0,0,0-0.1,0l-1.4-1
				c-0.2-0.1-0.4-0.1-0.6,0c-0.5,0.3-1.1,0.5-1.7,0.7c-0.2,0.1-0.4,0.2-0.4,0.4l-0.3,1.7c0,0.1-0.1,0.1-0.1,0.1h-1.7
				c-0.1,0-0.1,0-0.1-0.1l-0.3-1.7c0-0.2-0.2-0.4-0.4-0.4c-0.6-0.1-1.1-0.4-1.6-0.7c-0.1,0-0.2-0.1-0.3-0.1c-0.1,0-0.2,0-0.3,0.1
				l-1.4,1c0,0,0,0-0.1,0c0,0,0,0-0.1,0l-1.2-1.2v-0.1l1-1.4c0.1-0.2,0.1-0.4,0-0.6c-0.3-0.5-0.5-1.1-0.7-1.7
				c-0.1-0.2-0.2-0.4-0.4-0.4l-1.7-0.3c-0.1,0-0.1-0.1-0.1-0.1V16c0-0.1,0-0.1,0.1-0.1l1.7-0.3c0.2,0,0.4-0.2,0.4-0.4
				c0.1-0.6,0.4-1.1,0.7-1.7c0.1-0.2,0.1-0.4,0-0.6l-1-1.4v-0.1l1.2-1.2h0.1c0,0,0,0,0.1,0l1.4,1c0.2,0.1,0.4,0.1,0.6,0
				c0.5-0.3,1.1-0.5,1.7-0.7c0.2-0.1,0.4-0.2,0.4-0.4l0.3-1.7c0-0.1,0.1-0.1,0.1-0.1h1.7c0.1,0,0.1,0,0.1,0.1l0.3,1.7
				c0,0.2,0.2,0.4,0.4,0.4c0.6,0.2,1.2,0.4,1.7,0.7c0.2,0.1,0.4,0.1,0.6,0l1.4-1c0,0,0,0,0.1,0c0,0,0,0,0.1,0l1.2,1.2v0.1l-1,1.4
				c-0.1,0.2-0.1,0.4,0,0.6c0.3,0.5,0.5,1.1,0.7,1.7c0.1,0.2,0.2,0.4,0.4,0.4l1.7,0.3c0.1,0,0.1,0.1,0.1,0.1L82.6,17.6L82.6,17.6z"
				/>
			<path class="st0" d="M74.1,12.7c-2.3,0-4.1,1.8-4.1,4.1s1.8,4.1,4.1,4.1s4.1-1.8,4.1-4.1S76.4,12.7,74.1,12.7z M74.1,19.8
				c-1.7,0-3-1.4-3-3s1.4-3,3-3s3,1.4,3,3S75.8,19.8,74.1,19.8z"/>
		</g>
	</g>
	<g>
		<rect x="54" y="10" class="st0" width="2" height="10.9"/>
		<rect x="51" y="12" class="st0" width="2" height="8.9"/>
		<rect x="48" y="13" class="st0" width="2" height="7.9"/>
		<rect x="45" y="15.5" class="st0" width="2" height="5.5"/>
		<path class="st0" d="M51,4.5c-5.8,0-10.4,4.7-10.4,10.4c0,5.8,4.7,10.4,10.4,10.4S61.4,20.7,61.4,15C61.4,9.2,56.8,4.5,51,4.5z
			 M51,24.3c-5.1,0-9.3-4.2-9.3-9.3s4.2-9.3,9.3-9.3s9.3,4.2,9.3,9.3S56.1,24.3,51,24.3z"/>
	</g>
</g>
<g id="Layer_5">
	<g>
		<rect x="2" y="36.9" width="16" height="2.1"/>
		<rect x="2" y="41.9" width="16" height="2.1"/>
		<rect x="2" y="46.9" width="16" height="2.1"/>
	</g>
</g>
<g id="Layer_6">
	<g>
		<rect x="22" y="33" width="5.1" height="5.1"/>
		<rect x="29" y="33" width="5.1" height="5.1"/>
		<rect x="36" y="33" width="5.1" height="5.1"/>
		<rect x="22" y="40" width="5.1" height="5.1"/>
		<rect x="29" y="40" width="5.1" height="5.1"/>
		<rect x="36" y="40" width="5.1" height="5.1"/>
		<rect x="22" y="47" width="5.1" height="5.1"/>
		<rect x="29" y="47" width="5.1" height="5.1"/>
		<rect x="36" y="47" width="5.1" height="5.1"/>
	</g>
</g>
<g id="Layer_11">
	<path d="M61,36h-1.1c-0.2-1.1-1.3-2-2.5-2s-2.2,0.9-2.5,2h-9.1v0.9h9C55,38.1,56,39,57.3,39s2.3-0.9,2.5-2.1h1V36H61z M57.5,38.2
		c-0.9,0-1.7-0.8-1.7-1.7c0-0.9,0.8-1.7,1.7-1.7s1.7,0.8,1.7,1.7C59.2,37.4,58.4,38.2,57.5,38.2z"/>
	<path d="M61,42h-6.1c-0.2-1.1-1.3-2-2.5-2s-2.2,0.9-2.5,2h-4.1v0.9h4C50,44.1,51,45,52.3,45s2.3-0.9,2.5-2.1h6V42H61z M52.5,44.2
		c-0.9,0-1.7-0.8-1.7-1.7s0.8-1.7,1.7-1.7s1.7,0.8,1.7,1.7C54.2,43.4,53.4,44.2,52.5,44.2z"/>
	<path d="M45.9,49.1H47c0.2,1.1,1.3,2,2.5,2s2.2-0.9,2.5-2h9.1v-0.9h-9c-0.2-1.2-1.2-2.1-2.5-2.1s-2.3,0.9-2.5,2.1h-1v0.9H45.9z
		 M49.5,46.9c0.9,0,1.7,0.8,1.7,1.7s-0.8,1.7-1.7,1.7s-1.7-0.8-1.7-1.7S48.5,46.9,49.5,46.9z"/>
</g>
<g id="Layer_14">
	<path d="M117.6,17c0-8.8-7.1-15.9-15.9-15.9S85.8,8.2,85.8,17c0,4.6,2,8.8,5.2,11.7l0,0l0.5,0.4l0.1,0.1c0.3,0.2,0.6,0.4,0.8,0.7
		c0.1,0.1,0.2,0.1,0.3,0.2c0.3,0.2,0.6,0.4,0.9,0.6c0.1,0,0.1,0.1,0.2,0.1c0.4,0.2,0.7,0.4,1.1,0.6H95c1.2,0.6,2.5,1,3.8,1.2h0.1
		c0.4,0.1,0.8,0.1,1.3,0.2c0.1,0,0.1,0,0.2,0c0.4,0,0.9,0.1,1.3,0.1c0.4,0,0.9,0,1.3-0.1c0.1,0,0.1,0,0.2,0c0.4,0,0.8-0.1,1.3-0.2
		h0.1c1.3-0.2,2.6-0.6,3.8-1.2c0,0,0.1,0,0.1-0.1c0.4-0.2,0.7-0.3,1-0.5c0.1,0,0.2-0.1,0.3-0.1c0.3-0.2,0.6-0.4,0.9-0.6
		c0.1-0.1,0.2-0.1,0.3-0.2c0.3-0.2,0.5-0.4,0.7-0.6c0.1,0,0.1-0.1,0.2-0.1l0.5-0.4l0,0C115.6,25.9,117.6,21.7,117.6,17z M87,17
		c0-8.1,6.6-14.7,14.7-14.7c8.1,0,14.7,6.6,14.7,14.7c0,4.4-1.9,8.3-5,11c-0.2-0.1-0.3-0.2-0.5-0.3l-4.9-2.4
		c-0.4-0.2-0.7-0.7-0.7-1.2v-1.7c0.1-0.1,0.2-0.3,0.4-0.5c0.6-0.9,1.1-1.9,1.5-3c0.7-0.3,1.2-1.1,1.2-1.9v-2c0-0.5-0.2-1-0.5-1.4
		v-2.7c0-0.3,0.1-2-1.1-3.4c-1.1-1.2-2.8-1.8-5.1-1.8s-4.1,0.6-5.1,1.8c-1.2,1.4-1.1,3.1-1.1,3.4v2.7C95.2,14,95,14.5,95,15v2
		c0,0.6,0.3,1.2,0.8,1.6c0.5,1.8,1.4,3.2,1.8,3.7V24c0,0.5-0.3,0.9-0.7,1.1l-4.6,2.5c-0.1,0.1-0.3,0.2-0.4,0.3
		C88.9,25.3,87,21.4,87,17z M110.4,28.9c-0.2,0.1-0.4,0.3-0.6,0.4c-0.1,0.1-0.2,0.1-0.3,0.2c-0.3,0.2-0.5,0.3-0.8,0.5
		c-0.1,0-0.1,0.1-0.2,0.1c-0.7,0.3-1.3,0.6-2,0.9c0,0,0,0-0.1,0c-0.4,0.1-0.7,0.2-1.1,0.3l0,0c-0.4,0.1-0.8,0.2-1.1,0.2l0,0
		c-0.4,0.1-0.7,0.1-1.1,0.1c-0.1,0-0.1,0-0.2,0c-0.4,0-0.7,0-1.1,0c-0.4,0-0.7,0-1.1,0c-0.1,0-0.1,0-0.2,0c-0.4,0-0.7-0.1-1.1-0.1
		l0,0c-0.8-0.1-1.5-0.3-2.2-0.6c0,0,0,0-0.1,0c-0.4-0.1-0.7-0.3-1.1-0.4l0,0c-0.3-0.1-0.7-0.3-1-0.5c0,0-0.1,0-0.1-0.1
		c-0.3-0.2-0.6-0.3-0.9-0.5c-0.1-0.1-0.2-0.1-0.3-0.2c-0.3-0.2-0.5-0.4-0.8-0.5c0,0-0.1,0-0.1-0.1c0,0,0,0,0.1,0l4.6-2.5
		c0.8-0.4,1.3-1.3,1.3-2.1v-2.1l-0.1-0.2c0,0-1.3-1.5-1.7-3.6l-0.1-0.2l-0.2-0.1c-0.3-0.2-0.4-0.5-0.4-0.8v-2c0-0.3,0.1-0.5,0.3-0.7
		l0.2-0.2v-3.2v-0.1c0,0-0.2-1.4,0.8-2.5c0.8-1,2.3-1.4,4.3-1.4s3.4,0.5,4.2,1.4c1,1.1,0.8,2.5,0.8,2.5v3.3l0.2,0.2
		c0.2,0.2,0.3,0.4,0.3,0.7v2c0,0.4-0.3,0.8-0.7,0.9l-0.3,0.1l-0.1,0.3c-0.3,1.1-0.8,2-1.4,2.9c-0.2,0.2-0.3,0.4-0.4,0.5l-0.1,0.2V24
		c0,0.9,0.5,1.8,1.4,2.2l4.9,2.4h0.1C110.5,28.9,110.5,28.9,110.4,28.9z"/>
</g>
<g id="Layer_15">
	<g>
		<path class="st2" d="M162.2,12.6c-2.1-2.1-5.4-2.1-7.5,0s-2.1,5.4,0,7.5c1.8,1.8,4.7,2,6.8,0.6c0,0.2,0.1,0.4,0.3,0.6l3,3
			c0.4,0.4,1.1,0.4,1.6,0c0.4-0.4,0.4-1.1,0-1.6l-3-3c-0.2-0.2-0.4-0.3-0.6-0.3C164.2,17.3,164,14.4,162.2,12.6z M161.3,19.2
			c-1.5,1.5-4.1,1.5-5.6,0s-1.5-4.1,0-5.6s4.1-1.5,5.6,0S162.8,17.6,161.3,19.2z"/>
	</g>
</g>
<g id="Layer_19">
	<path class="st3" d="M134,121.4H4.4c-0.4,0-0.8,0-1.2,0.1c0.1,0,0.2,0,0.3,0c74.5,0,135,60.4,135,135c0,0.4,0,0.7,0,1.1
		c0.2-0.6,0.3-1.2,0.3-1.9V127.3C138.8,123.5,136.8,121.4,134,121.4z"/>
</g>
<g id="Layer_20">
	<polygon class="st4" points="122.1,134.1 111.5,144.7 107.4,140.6 104.1,143.8 111.5,151.2 125.4,137.3 	"/>
</g>
<g>
	<g>
		<path d="M118.9,36.3c-0.9-1.1-2.2-1.7-3.7-1.7c-2,0-3.3,1.2-4,2.2c-0.2,0.3-0.3,0.5-0.5,0.8c-0.1-0.2-0.3-0.5-0.5-0.8
			c-0.7-1-2-2.2-4-2.2c-1.3,0.1-2.6,0.7-3.6,1.7c-0.9,1-1.4,2.4-1.4,3.8c0,1.6,0.6,3.1,1.9,4.6c1.2,1.4,2.9,2.9,4.9,4.6
			c0.7,0.6,1.5,1.3,2.3,2l0,0c0.1,0.1,0.2,0.1,0.4,0.1c0.2,0,0.3,0,0.4-0.1l0,0c0.8-0.7,1.6-1.4,2.3-2c2-1.7,3.7-3.1,4.9-4.6
			c1.3-1.6,1.9-3.1,1.9-4.6C120.3,38.7,119.8,37.4,118.9,36.3z M112.7,48.5c-0.6,0.5-1.3,1.1-2,1.7c-0.7-0.6-1.3-1.2-2-1.7
			c-3.9-3.3-6.4-5.5-6.4-8.3c0-1.2,0.4-2.3,1.1-3.1c0.7-0.8,1.7-1.3,2.8-1.3c1.5,0,2.5,0.9,3.1,1.7c0.5,0.7,0.8,1.4,0.9,1.7
			c0.1,0.2,0.3,0.4,0.5,0.4c0.2,0,0.5-0.2,0.5-0.4c0.1-0.3,0.4-1,0.9-1.7c0.6-0.8,1.6-1.7,3.1-1.7c1.1,0,2.1,0.5,2.8,1.3
			c0.7,0.8,1.1,1.9,1.1,3.1C119.2,43,116.6,45.2,112.7,48.5z"/>
	</g>
</g>
<g>
	<g>
		<path class="st5" d="M115.3,58c-1,0-2,0.3-2.8,1c-0.8,0.6-1.3,1.4-1.7,2c-0.3-0.6-0.8-1.4-1.7-2c-0.8-0.6-1.8-1-2.8-1
			c-2.9,0-5.1,2.4-5.1,5.5c0,3.4,2.7,5.7,6.8,9.2c0.7,0.6,1.5,1.3,2.3,2c0.1,0.1,0.2,0.1,0.4,0.1c0.1,0,0.3-0.1,0.4-0.1
			c0.8-0.7,1.6-1.4,2.3-2c4.1-3.5,6.8-5.8,6.8-9.2C120.4,60.3,118.2,58,115.3,58z"/>
	</g>
</g>
<g>
	<path d="M78.1,109.3c-1-1.3-2.2-2.3-3.7-3c-1.4-0.7-3-1.1-4.6-1.1c0,0-0.2,0-0.3,0c-1.6,0-3.2,0.4-4.6,1.1c-1.4,0.7-2.7,1.7-3.7,3
		c-0.4,0.5-0.4,1.2,0,1.6c1,1.3,2.2,2.3,3.7,3c1.4,0.7,3,1.1,4.6,1.1c0,0,0.2,0,0.3,0c1.6,0,3.2-0.4,4.6-1.1c1.4-0.7,2.7-1.7,3.7-3
		C78.5,110.5,78.5,109.8,78.1,109.3z M65.3,113.3c-1.3-0.7-2.5-1.6-3.4-2.8c-0.2-0.2-0.2-0.5,0-0.8c0.9-1.2,2.1-2.1,3.4-2.8
		c0.4-0.2,0.8-0.3,1.1-0.5c-1,0.9-1.6,2.2-1.6,3.7s0.6,2.8,1.6,3.7C66,113.7,65.7,113.5,65.3,113.3z M69.7,114.3
		c-2.3,0-4.2-1.9-4.2-4.2s1.9-4.2,4.2-4.2s4.2,1.9,4.2,4.2S72.1,114.3,69.7,114.3z M77.6,110.5c-0.9,1.2-2.1,2.1-3.4,2.8
		c-0.4,0.2-0.8,0.3-1.1,0.5c1-0.9,1.6-2.2,1.6-3.7s-0.6-2.8-1.6-3.7c0.4,0.1,0.8,0.3,1.1,0.5c1.3,0.7,2.5,1.6,3.4,2.8
		C77.7,110,77.7,110.3,77.6,110.5z"/>
	<path d="M69.7,108.3c-1,0-1.8,0.8-1.8,1.8s0.8,1.8,1.8,1.8s1.8-0.8,1.8-1.8S70.7,108.3,69.7,108.3z M69.7,111.2
		c-0.6,0-1.1-0.5-1.1-1.1s0.5-1.1,1.1-1.1c0.6,0,1.1,0.5,1.1,1.1S70.3,111.2,69.7,111.2z"/>
</g>
<path d="M101.6,110.6c-0.3-0.3-0.3-0.7,0-1c0.3-0.3,0.7-0.3,1,0l3.3,3.5V104c0-0.4,0.3-0.7,0.7-0.7c0.4,0,0.7,0.3,0.7,0.7v9.1
	l3.5-3.5c0.3-0.3,0.7-0.3,1,0c0.3,0.3,0.3,0.7,0,1l-4.7,4.7c-0.3,0.3-0.7,0.3-1,0L101.6,110.6z"/>
<g>
	<path d="M80.9,44l-7.2-7.2c-0.4-0.4-0.8-0.6-1.3-0.6h-0.1l-4.9,0.3c-0.8,0-1,0.5-1,1l-0.1,1.8c-1.9-1.4-1.7-3.5-1.1-4.2
		c1.1-1.3,2.5,0,3,0.7c0.3,0.5,1.1,0.3,0.7-0.4c-0.5-0.8-1.3-1.4-2.1-1.6c-0.9-0.2-3.1,0.1-2.8,3.2c0.2,1.6,1.4,2.9,2.2,3.2
		l-0.1,2.3c0,0.5,0.2,1.1,0.6,1.5l6.8,6.8c1.1,0.9,2,1,3.2,0l3.9-3.9C81.4,46.1,81.9,45,80.9,44z M79.9,46.2L76,50.1
		c-0.5,0.4-1,0.8-2.1-0.1l-6.8-6.8c-0.2-0.2-0.3-0.5-0.3-0.8l0.1-2c0.8,0.1,1.6,0,2.3-1c0.3-0.4-0.3-0.9-0.6-0.5
		c-0.3,0.6-0.8,1-1.7,0.7l0.1-2.2c0-0.1,0.1-0.1,0.2-0.2l4.9-0.3c0,0,0,0,0.1,0c0.3,0,0.5,0.1,0.7,0.3l6.8,6.8
		C80.6,45,80.5,45.6,79.9,46.2z"/>
</g>
<g id="Layer_5_1_">
	<g>
		<rect x="2" y="60.9" class="st6" width="16" height="2.1"/>
		<rect x="2" y="65.9" class="st6" width="16" height="2.1"/>
		<rect x="2" y="70.9" class="st6" width="16" height="2.1"/>
	</g>
</g>
<g id="Layer_6_1_">
	<g>
		<rect x="22" y="57" class="st6" width="5.1" height="5.1"/>
		<rect x="29" y="57" class="st6" width="5.1" height="5.1"/>
		<rect x="36" y="57" class="st6" width="5.1" height="5.1"/>
		<rect x="22" y="64" class="st6" width="5.1" height="5.1"/>
		<rect x="29" y="64" class="st6" width="5.1" height="5.1"/>
		<rect x="36" y="64" class="st6" width="5.1" height="5.1"/>
		<rect x="22" y="71" class="st6" width="5.1" height="5.1"/>
		<rect x="29" y="71" class="st6" width="5.1" height="5.1"/>
		<rect x="36" y="71" class="st6" width="5.1" height="5.1"/>
	</g>
</g>
<g id="Layer_11_1_">
	<path class="st6" d="M61,60h-1.1c-0.2-1.1-1.3-2-2.5-2s-2.2,0.9-2.5,2h-9.1v0.9h9C55,62.1,56,63,57.3,63s2.3-0.9,2.5-2.1h1V60H61z
		 M57.5,62.2c-0.9,0-1.7-0.8-1.7-1.7c0-0.9,0.8-1.7,1.7-1.7s1.7,0.8,1.7,1.7C59.2,61.4,58.4,62.2,57.5,62.2z"/>
	<path class="st6" d="M61,66h-6.1c-0.2-1.1-1.3-2-2.5-2s-2.2,0.9-2.5,2h-4.1v0.9h4C50,68.1,51,69,52.3,69s2.3-0.9,2.5-2.1h6V66H61z
		 M52.5,68.2c-0.9,0-1.7-0.8-1.7-1.7s0.8-1.7,1.7-1.7s1.7,0.8,1.7,1.7S53.4,68.2,52.5,68.2z"/>
	<path class="st6" d="M45.9,73.1H47c0.2,1.1,1.3,2,2.5,2s2.2-0.9,2.5-2h9.1v-0.9h-9c-0.2-1.2-1.2-2.1-2.5-2.1s-2.3,0.9-2.5,2.1h-1
		v0.9H45.9z M49.5,70.9c0.9,0,1.7,0.8,1.7,1.7s-0.8,1.7-1.7,1.7s-1.7-0.8-1.7-1.7S48.5,70.9,49.5,70.9z"/>
</g>
<g>
	<path class="st6" d="M80.9,68l-7.2-7.2c-0.4-0.4-0.8-0.6-1.3-0.6h-0.1l-4.9,0.3c-0.8,0-1,0.5-1,1l-0.1,1.8
		c-1.9-1.4-1.7-3.5-1.1-4.2c1.1-1.3,2.5,0,3,0.7c0.3,0.5,1.1,0.3,0.7-0.4c-0.5-0.8-1.3-1.4-2.1-1.6c-0.9-0.2-3.1,0.1-2.8,3.2
		c0.2,1.6,1.4,2.9,2.2,3.2l-0.1,2.3c0,0.5,0.2,1.1,0.6,1.5l6.8,6.8c1.1,0.9,2,1,3.2,0l3.9-3.9C81.4,70.1,81.9,69,80.9,68z
		 M79.9,70.2L76,74.1c-0.5,0.4-1,0.8-2.1-0.1l-6.8-6.8c-0.2-0.2-0.3-0.5-0.3-0.8l0.1-2c0.8,0.1,1.6,0,2.3-1c0.3-0.4-0.3-0.9-0.6-0.5
		c-0.3,0.6-0.8,1-1.7,0.7l0.1-2.2c0-0.1,0.1-0.1,0.2-0.2l4.9-0.3c0,0,0,0,0.1,0c0.3,0,0.5,0.1,0.7,0.3l6.8,6.8
		C80.6,69,80.5,69.6,79.9,70.2z"/>
</g>
<g id="Layer_20_1_">
	<polygon class="st0" points="121.6,134.1 111,144.7 106.9,140.6 103.6,143.8 111,151.2 124.9,137.3 	"/>
</g>
<path class="st2" d="M91.2,48.5"/>
<path class="st6" d="M91.2,72.5"/>
<g id="Layer_19_1_">
	<linearGradient id="SVGID_2_" gradientUnits="userSpaceOnUse" x1="70.65" y1="328.75" x2="137.4728" y2="261.9272">
		<stop  offset="0" style="stop-color:#2977C4"/>
		<stop  offset="1" style="stop-color:#3F9CF8"/>
	</linearGradient>
	<path class="st7" d="M134,260.4H4.4c-0.4,0-0.8,0-1.2,0.1c0.1,0,0.2,0,0.3,0c74.5,0,135,60.4,135,135c0,0.4,0,0.7,0,1.1
		c0.2-0.6,0.3-1.2,0.3-1.9V266.3C138.8,262.5,136.8,260.4,134,260.4z"/>
</g>
<g id="Layer_20_3_">
	<polygon class="st4" points="122.1,273.1 111.5,283.7 107.4,279.6 104.1,282.8 111.5,290.2 125.4,276.3 	"/>
</g>
<g id="Layer_20_2_">
	<polygon class="st0" points="121.6,273.1 111,283.7 106.9,279.6 103.6,282.8 111,290.2 124.9,276.3 	"/>
</g>
<g>
	<g id="trash">
		<path d="M136.2,41c0-0.7-0.6-1.2-1.3-1.2h-1.3v-0.4v0c0-0.7-0.6-1.3-1.3-1.3h-4.4c-0.7,0-1.3,0.6-1.3,1.3v0v0.4h-1.3
			c-0.7,0-1.3,0.5-1.3,1.2h0v0.5v0.4c0,0.5,0.4,0.9,0.9,0.9l0,0v7.4c0,1,0.8,1.8,1.8,1.8h7c1,0,1.8-0.8,1.8-1.8v-7.4l0,0
			c0.5,0,0.9-0.4,0.9-0.9v-0.4L136.2,41L136.2,41z M127.5,39.3c0-0.2,0.2-0.4,0.4-0.4h4.4c0.2,0,0.4,0.2,0.4,0.4v0.4h-5.2V39.3z
			 M134.5,50.3c0,0.5-0.4,0.9-0.9,0.9h-7c-0.5,0-0.9-0.4-0.9-0.9v-7.4h8.8V50.3z M135.4,41.5v0.4h-10.5v-0.4v-0.4
			c0-0.2,0.2-0.4,0.4-0.4h9.6c0.2,0,0.4,0.2,0.4,0.4V41.5z"/>
		<path d="M127.1,50.3h0.9c0.2,0,0.4-0.2,0.4-0.4v-5.7c0-0.2-0.2-0.4-0.4-0.4h-0.9c-0.2,0-0.4,0.2-0.4,0.4v5.7
			C126.6,50.1,126.8,50.3,127.1,50.3z M127.1,44.1h0.9v5.7h-0.9V44.1z"/>
		<path d="M129.7,50.3h0.9c0.2,0,0.4-0.2,0.4-0.4v-5.7c0-0.2-0.2-0.4-0.4-0.4h-0.9c-0.2,0-0.4,0.2-0.4,0.4v5.7
			C129.2,50.1,129.4,50.3,129.7,50.3z M129.7,44.1h0.9v5.7h-0.9V44.1z"/>
		<path d="M132.3,50.3h0.9c0.2,0,0.4-0.2,0.4-0.4v-5.7c0-0.2-0.2-0.4-0.4-0.4h-0.9c-0.2,0-0.4,0.2-0.4,0.4v5.7
			C131.9,50.1,132.1,50.3,132.3,50.3z M132.3,44.1h0.9v5.7h-0.9V44.1z"/>
	</g>
</g>
<g>
	<path d="M149.5,46.7c-0.8,0-1.5,0.4-2,1l-3.8-2.1c0.1-0.3,0.1-0.5,0.1-0.8c0-0.3,0-0.6-0.1-0.8l3.8-2.1c0.5,0.6,1.2,1,2,1
		c1.4,0,2.5-1.1,2.5-2.5c0-1.4-1.1-2.5-2.5-2.5c-1.4,0-2.5,1.1-2.5,2.5c0,0.3,0,0.6,0.1,0.8l-3.8,2.1c-0.5-0.6-1.2-1-2-1
		c-1.4,0-2.5,1.1-2.5,2.5s1.1,2.5,2.5,2.5c0.8,0,1.5-0.4,2-1l3.8,2.1c-0.1,0.3-0.1,0.5-0.1,0.8c0,1.4,1.1,2.5,2.5,2.5
		s2.5-1.1,2.5-2.5S150.9,46.7,149.5,46.7z M149.5,38.6c0.9,0,1.7,0.8,1.7,1.7s-0.8,1.7-1.7,1.7s-1.7-0.8-1.7-1.7
		S148.6,38.6,149.5,38.6z M141.4,46.5c-0.9,0-1.7-0.8-1.7-1.7s0.8-1.7,1.7-1.7s1.7,0.8,1.7,1.7S142.4,46.5,141.4,46.5z M149.5,50.9
		c-0.9,0-1.7-0.8-1.7-1.7c0-0.9,0.8-1.7,1.7-1.7s1.7,0.8,1.7,1.7C151.2,50.2,150.5,50.9,149.5,50.9z"/>
</g>
<g>
	<g id="Pencil">
		<g>
			<path d="M168.2,38.8c-0.5-0.5-1.1-0.8-1.8-0.8c-0.7,0-1.3,0.3-1.8,0.8l-7.7,7.7c0,0-0.1,0.1-0.1,0.2l-1.8,4.8
				c-0.1,0.2,0,0.3,0.1,0.5c0.1,0.1,0.2,0.1,0.3,0.1c0,0,0.1,0,0.1,0l4.4-1.3c0.1,0,0.1-0.1,0.2-0.1l8.1-8.1
				c0.5-0.5,0.8-1.1,0.8-1.8C169,39.9,168.7,39.2,168.2,38.8z M159.4,49.9l-1.6,0.5c-0.1-0.3-0.2-0.5-0.4-0.7
				c-0.2-0.2-0.4-0.3-0.6-0.4l0.7-2.1h1v0.9c0,0.2,0.2,0.4,0.4,0.4h0.8L159.4,49.9z M165.9,43.5l-5.3,5.3l0.2-0.7
				c0-0.1,0-0.3-0.1-0.4c-0.1-0.1-0.2-0.2-0.3-0.2h-0.9v-0.9c0-0.2-0.2-0.4-0.4-0.4h-0.7l5.2-5.2l0,0c0.3-0.3,0.7-0.5,1.2-0.5
				c0.5,0,0.9,0.2,1.2,0.5s0.5,0.7,0.5,1.2S166.2,43.2,165.9,43.5z M167.6,41.8l-0.4,0.4c0-0.6-0.3-1.2-0.7-1.7
				c-0.4-0.4-1-0.7-1.7-0.7l0.4-0.4l0,0c0.3-0.3,0.7-0.5,1.2-0.5c0.5,0,0.9,0.2,1.2,0.5c0.3,0.3,0.5,0.7,0.5,1.2
				C168.1,41,167.9,41.5,167.6,41.8z M164.8,41.6l-4.4,4.4c-0.2,0.2-0.2,0.4,0,0.6c0.1,0.1,0.2,0.1,0.3,0.1s0.2,0,0.3-0.1l4.4-4.4
				c0.2-0.2,0.2-0.4,0-0.6C165.2,41.5,164.9,41.5,164.8,41.6z"/>
		</g>
	</g>
</g>
<g>
	<g>
		<path d="M185.5,46.5c-0.3,0-0.5,0.2-0.5,0.5v1.4c0,1.4-0.1,2.4-1.4,2.4H175c-1.4,0-2.4-1.1-2.4-2.4v-1.5c0-0.3-0.2-0.5-0.5-0.5
			c-0.3,0-0.5,0.2-0.5,0.5v1.5c0,2,1.6,3.5,3.5,3.5h8.5c2,0,2.5-1.6,2.5-3.5V47C186,46.7,185.8,46.5,185.5,46.5z"/>
		<path d="M178.3,48.9c0.1,0.1,0.2,0.2,0.4,0.2c0.1,0,0.3-0.1,0.4-0.2l3.5-3.5c0.2-0.2,0.2-0.6,0-0.8c-0.2-0.2-0.6-0.2-0.8,0
			l-2.5,2.5v-8.6c0-0.3-0.2-0.5-0.5-0.5s-0.5,0.2-0.5,0.5v8.6l-2.5-2.5c-0.2-0.2-0.6-0.2-0.8,0c-0.2,0.2-0.2,0.6,0,0.8L178.3,48.9z"
			/>
	</g>
</g>
<g>
	<g id="trash_1_">
		<path class="st6" d="M136.2,65c0-0.7-0.6-1.2-1.3-1.2h-1.3v-0.4v0c0-0.7-0.6-1.3-1.3-1.3h-4.4c-0.7,0-1.3,0.6-1.3,1.3v0v0.4h-1.3
			c-0.7,0-1.3,0.5-1.3,1.2h0v0.5v0.4c0,0.5,0.4,0.9,0.9,0.9l0,0v7.4c0,1,0.8,1.8,1.8,1.8h7c1,0,1.8-0.8,1.8-1.8v-7.4l0,0
			c0.5,0,0.9-0.4,0.9-0.9v-0.4L136.2,65L136.2,65z M127.5,63.3c0-0.2,0.2-0.4,0.4-0.4h4.4c0.2,0,0.4,0.2,0.4,0.4v0.4h-5.2V63.3z
			 M134.5,74.3c0,0.5-0.4,0.9-0.9,0.9h-7c-0.5,0-0.9-0.4-0.9-0.9v-7.4h8.8V74.3z M135.4,65.5v0.4h-10.5v-0.4v-0.4
			c0-0.2,0.2-0.4,0.4-0.4h9.6c0.2,0,0.4,0.2,0.4,0.4V65.5z"/>
		<path class="st6" d="M127.1,74.3h0.9c0.2,0,0.4-0.2,0.4-0.4v-5.7c0-0.2-0.2-0.4-0.4-0.4h-0.9c-0.2,0-0.4,0.2-0.4,0.4v5.7
			C126.6,74.1,126.8,74.3,127.1,74.3z M127.1,68.1h0.9v5.7h-0.9V68.1z"/>
		<path class="st6" d="M129.7,74.3h0.9c0.2,0,0.4-0.2,0.4-0.4v-5.7c0-0.2-0.2-0.4-0.4-0.4h-0.9c-0.2,0-0.4,0.2-0.4,0.4v5.7
			C129.2,74.1,129.4,74.3,129.7,74.3z M129.7,68.1h0.9v5.7h-0.9V68.1z"/>
		<path class="st6" d="M132.3,74.3h0.9c0.2,0,0.4-0.2,0.4-0.4v-5.7c0-0.2-0.2-0.4-0.4-0.4h-0.9c-0.2,0-0.4,0.2-0.4,0.4v5.7
			C131.9,74.1,132.1,74.3,132.3,74.3z M132.3,68.1h0.9v5.7h-0.9V68.1z"/>
	</g>
</g>
<g>
	<path class="st6" d="M149.5,70.7c-0.8,0-1.5,0.4-2,1l-3.8-2.1c0.1-0.3,0.1-0.5,0.1-0.8c0-0.3,0-0.6-0.1-0.8l3.8-2.1
		c0.5,0.6,1.2,1,2,1c1.4,0,2.5-1.1,2.5-2.5c0-1.4-1.1-2.5-2.5-2.5c-1.4,0-2.5,1.1-2.5,2.5c0,0.3,0,0.6,0.1,0.8l-3.8,2.1
		c-0.5-0.6-1.2-1-2-1c-1.4,0-2.5,1.1-2.5,2.5s1.1,2.5,2.5,2.5c0.8,0,1.5-0.4,2-1l3.8,2.1c-0.1,0.3-0.1,0.5-0.1,0.8
		c0,1.4,1.1,2.5,2.5,2.5s2.5-1.1,2.5-2.5C152,71.9,150.9,70.7,149.5,70.7z M149.5,62.6c0.9,0,1.7,0.8,1.7,1.7c0,0.9-0.8,1.7-1.7,1.7
		s-1.7-0.8-1.7-1.7C147.8,63.4,148.6,62.6,149.5,62.6z M141.4,70.5c-0.9,0-1.7-0.8-1.7-1.7s0.8-1.7,1.7-1.7s1.7,0.8,1.7,1.7
		S142.4,70.5,141.4,70.5z M149.5,74.9c-0.9,0-1.7-0.8-1.7-1.7c0-0.9,0.8-1.7,1.7-1.7s1.7,0.8,1.7,1.7
		C151.2,74.2,150.5,74.9,149.5,74.9z"/>
</g>
<g>
	<g id="Pencil_1_">
		<g>
			<path class="st6" d="M168.2,62.8c-0.5-0.5-1.1-0.8-1.8-0.8c-0.7,0-1.3,0.3-1.8,0.8l-7.7,7.7c0,0-0.1,0.1-0.1,0.2l-1.8,4.8
				c-0.1,0.2,0,0.3,0.1,0.5c0.1,0.1,0.2,0.1,0.3,0.1c0,0,0.1,0,0.1,0l4.4-1.3c0.1,0,0.1-0.1,0.2-0.1l8.1-8.1
				c0.5-0.5,0.8-1.1,0.8-1.8C169,63.9,168.7,63.2,168.2,62.8z M159.4,73.9l-1.6,0.5c-0.1-0.3-0.2-0.5-0.4-0.7
				c-0.2-0.2-0.4-0.3-0.6-0.4l0.7-2.1h1v0.9c0,0.2,0.2,0.4,0.4,0.4h0.8L159.4,73.9z M165.9,67.5l-5.3,5.3l0.2-0.7
				c0-0.1,0-0.3-0.1-0.4c-0.1-0.1-0.2-0.2-0.3-0.2h-0.9v-0.9c0-0.2-0.2-0.4-0.4-0.4h-0.7l5.2-5.2l0,0c0.3-0.3,0.7-0.5,1.2-0.5
				c0.5,0,0.9,0.2,1.2,0.5s0.5,0.7,0.5,1.2C166.4,66.8,166.2,67.2,165.9,67.5z M167.6,65.8l-0.4,0.4c0-0.6-0.3-1.2-0.7-1.7
				c-0.4-0.4-1-0.7-1.7-0.7l0.4-0.4l0,0c0.3-0.3,0.7-0.5,1.2-0.5c0.5,0,0.9,0.2,1.2,0.5c0.3,0.3,0.5,0.7,0.5,1.2
				C168.1,65,167.9,65.5,167.6,65.8z M164.8,65.6l-4.4,4.4c-0.2,0.2-0.2,0.4,0,0.6c0.1,0.1,0.2,0.1,0.3,0.1s0.2,0,0.3-0.1l4.4-4.4
				c0.2-0.2,0.2-0.4,0-0.6C165.2,65.5,164.9,65.5,164.8,65.6z"/>
		</g>
	</g>
</g>
<g>
	<g>
		<path class="st6" d="M185.5,70.5c-0.3,0-0.5,0.2-0.5,0.5v1.4c0,1.4-0.1,2.4-1.4,2.4H175c-1.4,0-2.4-1.1-2.4-2.4v-1.5
			c0-0.3-0.2-0.5-0.5-0.5c-0.3,0-0.5,0.2-0.5,0.5v1.5c0,2,1.6,3.5,3.5,3.5h8.5c2,0,2.5-1.6,2.5-3.5V71
			C186,70.7,185.8,70.5,185.5,70.5z"/>
		<path class="st6" d="M178.3,72.9c0.1,0.1,0.2,0.2,0.4,0.2c0.1,0,0.3-0.1,0.4-0.2l3.5-3.5c0.2-0.2,0.2-0.6,0-0.8s-0.6-0.2-0.8,0
			l-2.5,2.5v-8.6c0-0.3-0.2-0.5-0.5-0.5s-0.5,0.2-0.5,0.5v8.6l-2.5-2.5c-0.2-0.2-0.6-0.2-0.8,0s-0.2,0.6,0,0.8L178.3,72.9z"/>
	</g>
</g>
<g>
	<path d="M32.8,81.2h-16c-0.3,0-0.6,0.3-0.6,0.6v14.4c0,0.3,0.3,0.6,0.6,0.6h16c0.3,0,0.6-0.3,0.6-0.6V81.8
		C33.4,81.5,33.1,81.2,32.8,81.2z M32.2,82.3v11.5l-2.5-3.5c-0.2-0.2-0.6-0.2-0.8,0l-2.1,2.1l-4.9-4c-0.2-0.2-0.6-0.2-0.8,0
		l-3.7,4.7V82.3H32.2z M17.3,95.6v-0.9l4.1-5.1l6.9,6H17.3z M29.9,95.6L29.9,95.6l-2.4-2.4l1.8-1.8l2.8,3.8l0.1,0.1v0.2L29.9,95.6
		L29.9,95.6z"/>
	<path d="M24.3,86.7c1.1,0,2-0.9,2-2s-0.9-2-2-2s-2,0.9-2,2S23.2,86.7,24.3,86.7z M24.3,83.4c0.7,0,1.3,0.6,1.3,1.3
		c0,0.7-0.6,1.3-1.3,1.3c-0.7,0-1.3-0.6-1.3-1.3C23,84,23.6,83.4,24.3,83.4z"/>
</g>
<g>
	<path d="M147.1,92.2c-0.2-0.2-0.5-0.2-0.8,0l-2.5,2.5V85c0-0.3-0.2-0.5-0.5-0.5s-0.5,0.2-0.5,0.5v9.6l-2.5-2.5
		c-0.2-0.2-0.5-0.2-0.8,0c-0.2,0.2-0.2,0.5,0,0.8l3.4,3.4c0.1,0.1,0.2,0.2,0.4,0.2s0.3-0.1,0.4-0.2l3.4-3.4
		C147.3,92.7,147.3,92.4,147.1,92.2z"/>
	<path d="M136.6,86.4h3.8c0.3,0,0.6-0.3,0.6-0.6c0-0.3-0.3-0.6-0.6-0.6h-3.8c-0.3,0-0.6,0.3-0.6,0.6C136,86.1,136.3,86.4,136.6,86.4
		z"/>
	<path d="M136.6,88.9h3.8c0.3,0,0.6-0.3,0.6-0.6c0-0.3-0.3-0.6-0.6-0.6h-3.8c-0.3,0-0.6,0.3-0.6,0.6C136,88.6,136.3,88.9,136.6,88.9
		z"/>
	<path d="M141,90.7c0-0.3-0.3-0.6-0.6-0.6h-3.8c-0.3,0-0.6,0.3-0.6,0.6c0,0.3,0.3,0.6,0.6,0.6h3.8C140.7,91.4,141,91.1,141,90.7z"/>
</g>
<g>
	<path d="M153.3,88.8c0.2,0.2,0.5,0.2,0.8,0l2.5-2.5v9.6c0,0.3,0.2,0.5,0.5,0.5s0.5-0.2,0.5-0.5v-9.6l2.5,2.5c0.2,0.2,0.5,0.2,0.8,0
		c0.2-0.2,0.2-0.5,0-0.8l-3.4-3.4c-0.1-0.1-0.2-0.2-0.4-0.2s-0.3,0.1-0.4,0.2l-3.4,3.4C153.1,88.3,153.1,88.6,153.3,88.8z"/>
	<path d="M150.4,91.4h3.8c0.3,0,0.6-0.3,0.6-0.6c0-0.3-0.3-0.6-0.6-0.6h-3.8c-0.3,0-0.6,0.3-0.6,0.6C149.7,91.1,150,91.4,150.4,91.4
		z"/>
	<path d="M150.4,93.9h3.8c0.3,0,0.6-0.3,0.6-0.6c0-0.3-0.3-0.6-0.6-0.6h-3.8c-0.3,0-0.6,0.3-0.6,0.6C149.7,93.6,150,93.9,150.4,93.9
		z"/>
	<path d="M154.7,95.7c0-0.3-0.3-0.6-0.6-0.6h-3.8c-0.3,0-0.6,0.3-0.6,0.6c0,0.3,0.3,0.6,0.6,0.6h3.8
		C154.5,96.4,154.7,96.1,154.7,95.7z"/>
</g>
<g id="Layer_14_1_">
	<path class="st6" d="M150.6,17c0-8.8-7.1-15.9-15.9-15.9S118.8,8.2,118.8,17c0,4.6,2,8.8,5.2,11.7l0,0l0.5,0.4l0.1,0.1
		c0.3,0.2,0.6,0.4,0.8,0.7c0.1,0.1,0.2,0.1,0.3,0.2c0.3,0.2,0.6,0.4,0.9,0.6c0.1,0,0.1,0.1,0.2,0.1c0.4,0.2,0.7,0.4,1.1,0.6h0.1
		c1.2,0.6,2.5,1,3.8,1.2h0.1c0.4,0.1,0.8,0.1,1.3,0.2c0.1,0,0.1,0,0.2,0c0.4,0,0.9,0.1,1.3,0.1c0.4,0,0.9,0,1.3-0.1
		c0.1,0,0.1,0,0.2,0c0.4,0,0.8-0.1,1.3-0.2h0.1c1.3-0.2,2.6-0.6,3.8-1.2c0,0,0.1,0,0.1-0.1c0.4-0.2,0.7-0.3,1-0.5
		c0.1,0,0.2-0.1,0.3-0.1c0.3-0.2,0.6-0.4,0.9-0.6c0.1-0.1,0.2-0.1,0.3-0.2c0.3-0.2,0.5-0.4,0.7-0.6c0.1,0,0.1-0.1,0.2-0.1l0.5-0.4
		l0,0C148.6,25.9,150.6,21.7,150.6,17z M120,17c0-8.1,6.6-14.7,14.7-14.7c8.1,0,14.7,6.6,14.7,14.7c0,4.4-1.9,8.3-5,11
		c-0.2-0.1-0.3-0.2-0.5-0.3l-4.9-2.4c-0.4-0.2-0.7-0.7-0.7-1.2v-1.7c0.1-0.1,0.2-0.3,0.4-0.5c0.6-0.9,1.1-1.9,1.5-3
		c0.7-0.3,1.2-1.1,1.2-1.9v-2c0-0.5-0.2-1-0.5-1.4v-2.7c0-0.3,0.1-2-1.1-3.4c-1.1-1.2-2.8-1.8-5.1-1.8s-4.1,0.6-5.1,1.8
		c-1.2,1.4-1.1,3.1-1.1,3.4v2.7c-0.3,0.4-0.5,0.9-0.5,1.4v2c0,0.6,0.3,1.2,0.8,1.6c0.5,1.8,1.4,3.2,1.8,3.7V24
		c0,0.5-0.3,0.9-0.7,1.1l-4.6,2.5c-0.1,0.1-0.3,0.2-0.4,0.3C121.9,25.3,120,21.4,120,17z M143.4,28.9c-0.2,0.1-0.4,0.3-0.6,0.4
		c-0.1,0.1-0.2,0.1-0.3,0.2c-0.3,0.2-0.5,0.3-0.8,0.5c-0.1,0-0.1,0.1-0.2,0.1c-0.7,0.3-1.3,0.6-2,0.9c0,0,0,0-0.1,0
		c-0.4,0.1-0.7,0.2-1.1,0.3l0,0c-0.4,0.1-0.8,0.2-1.1,0.2l0,0c-0.4,0.1-0.7,0.1-1.1,0.1c-0.1,0-0.1,0-0.2,0c-0.4,0-0.7,0-1.1,0
		c-0.4,0-0.7,0-1.1,0c-0.1,0-0.1,0-0.2,0c-0.4,0-0.7-0.1-1.1-0.1l0,0c-0.8-0.1-1.5-0.3-2.2-0.6c0,0,0,0-0.1,0
		c-0.4-0.1-0.7-0.3-1.1-0.4l0,0c-0.3-0.1-0.7-0.3-1-0.5c0,0-0.1,0-0.1-0.1c-0.3-0.2-0.6-0.3-0.9-0.5c-0.1-0.1-0.2-0.1-0.3-0.2
		c-0.3-0.2-0.5-0.4-0.8-0.5c0,0-0.1,0-0.1-0.1c0,0,0,0,0.1,0l4.6-2.5c0.8-0.4,1.3-1.3,1.3-2.1v-2.1l-0.1-0.2c0,0-1.3-1.5-1.7-3.6
		l-0.1-0.2l-0.2-0.1c-0.3-0.2-0.4-0.5-0.4-0.8v-2c0-0.3,0.1-0.5,0.3-0.7l0.2-0.2v-3.2v-0.1c0,0-0.2-1.4,0.8-2.5
		c0.8-1,2.3-1.4,4.3-1.4s3.4,0.5,4.2,1.4c1,1.1,0.8,2.5,0.8,2.5v3.3l0.2,0.2c0.2,0.2,0.3,0.4,0.3,0.7v2c0,0.4-0.3,0.8-0.7,0.9
		l-0.3,0.1l-0.1,0.3c-0.3,1.1-0.8,2-1.4,2.9c-0.2,0.2-0.3,0.4-0.4,0.5l-0.1,0.2V24c0,0.9,0.5,1.8,1.4,2.2l4.9,2.4h0.1
		C143.5,28.9,143.5,28.9,143.4,28.9z"/>
</g>
<g id="Layer_15_1_">
	<g>
		<path d="M178.2,12.6c-2.1-2.1-5.4-2.1-7.5,0s-2.1,5.4,0,7.5c1.8,1.8,4.7,2,6.8,0.6c0,0.2,0.1,0.4,0.3,0.6l3,3
			c0.4,0.4,1.1,0.4,1.6,0c0.4-0.4,0.4-1.1,0-1.6l-3-3c-0.2-0.2-0.4-0.3-0.6-0.3C180.2,17.3,180,14.4,178.2,12.6z M177.3,19.2
			c-1.5,1.5-4.1,1.5-5.6,0s-1.5-4.1,0-5.6s4.1-1.5,5.6,0S178.8,17.6,177.3,19.2z"/>
	</g>
</g>
<g>
	<path class="st6" d="M97.1,109.3c-1-1.3-2.2-2.3-3.7-3c-1.4-0.7-3-1.1-4.6-1.1c0,0-0.2,0-0.3,0c-1.6,0-3.2,0.4-4.6,1.1
		c-1.4,0.7-2.7,1.7-3.7,3c-0.4,0.5-0.4,1.2,0,1.6c1,1.3,2.2,2.3,3.7,3c1.4,0.7,3,1.1,4.6,1.1c0,0,0.2,0,0.3,0c1.6,0,3.2-0.4,4.6-1.1
		c1.4-0.7,2.7-1.7,3.7-3C97.5,110.5,97.5,109.8,97.1,109.3z M84.3,113.3c-1.3-0.7-2.5-1.6-3.4-2.8c-0.2-0.2-0.2-0.5,0-0.8
		c0.9-1.2,2.1-2.1,3.4-2.8c0.4-0.2,0.8-0.3,1.1-0.5c-1,0.9-1.6,2.2-1.6,3.7s0.6,2.8,1.6,3.7C85,113.7,84.7,113.5,84.3,113.3z
		 M88.7,114.3c-2.3,0-4.2-1.9-4.2-4.2s1.9-4.2,4.2-4.2s4.2,1.9,4.2,4.2S91.1,114.3,88.7,114.3z M96.6,110.5
		c-0.9,1.2-2.1,2.1-3.4,2.8c-0.4,0.2-0.8,0.3-1.1,0.5c1-0.9,1.6-2.2,1.6-3.7s-0.6-2.8-1.6-3.7c0.4,0.1,0.8,0.3,1.1,0.5
		c1.3,0.7,2.5,1.6,3.4,2.8C96.7,110,96.7,110.3,96.6,110.5z"/>
	<path class="st6" d="M88.7,108.3c-1,0-1.8,0.8-1.8,1.8s0.8,1.8,1.8,1.8s1.8-0.8,1.8-1.8S89.7,108.3,88.7,108.3z M88.7,111.2
		c-0.6,0-1.1-0.5-1.1-1.1s0.5-1.1,1.1-1.1c0.6,0,1.1,0.5,1.1,1.1S89.3,111.2,88.7,111.2z"/>
</g>
<g>
	<g>
		<path d="M146.1,106.7h-4.6c-0.4,0-0.8,0.4-0.8,0.8v6.7c0,0.4,0.4,0.8,0.8,0.8h4.6c0.4,0,0.8-0.4,0.8-0.8v-6.7
			C146.9,107.1,146.5,106.7,146.1,106.7z M146.3,114.2c0,0.1-0.1,0.2-0.2,0.2h-4.6c-0.1,0-0.2-0.1-0.2-0.2v-6.7
			c0-0.1,0.1-0.2,0.2-0.2h4.6c0.1,0,0.2,0.1,0.2,0.2V114.2z"/>
		<path d="M147.9,105h-4.6c-0.4,0-0.8,0.4-0.8,0.8c0,0.2,0.1,0.3,0.3,0.3s0.3-0.1,0.3-0.3c0-0.1,0.1-0.2,0.2-0.2h4.6
			c0.1,0,0.2,0.1,0.2,0.2v6.7c0,0.1-0.1,0.2-0.2,0.2c-0.2,0-0.3,0.1-0.3,0.3c0,0.2,0.1,0.3,0.3,0.3c0.4,0,0.8-0.4,0.8-0.8v-6.7
			C148.7,105.4,148.3,105,147.9,105z"/>
	</g>
</g>
<g>
	<g>
		<path d="M121,105c-2.8,0-5,2.2-5,5s2.2,5,5,5s5-2.2,5-5S123.8,105,121,105z M121,114.4c-2.4,0-4.4-2-4.4-4.4s2-4.4,4.4-4.4
			s4.4,2,4.4,4.4S123.4,114.4,121,114.4z"/>
		<circle cx="121.1" cy="108" r="0.5"/>
		<path d="M121,109.4c-0.2,0-0.4,0.2-0.4,0.4v3.1c0,0.2,0.2,0.4,0.4,0.4c0.2,0,0.4-0.2,0.4-0.4v-3.1
			C121.4,109.5,121.2,109.4,121,109.4z"/>
	</g>
</g>
<g>
	<g>
		<path class="st2" d="M184.9,89.7c0-0.2-0.2-0.3-0.4-0.3c-0.2,0-0.3,0.2-0.3,0.4c0,0,0,0,0,0c0.4,2.3-1.1,4.4-3.4,4.8
			s-4.4-1.1-4.8-3.4c-0.4-2.3,1.1-4.4,3.4-4.8c1.4-0.2,2.8,0.3,3.8,1.3l-1.7,0.6c-0.2,0.1-0.3,0.3-0.2,0.5c0,0,0,0,0,0
			c0.1,0.2,0.3,0.3,0.5,0.2c0,0,0,0,0,0l2.3-0.8c0.2-0.1,0.3-0.2,0.3-0.4v-2.3c0-0.2-0.2-0.4-0.4-0.4c-0.2,0-0.4,0.2-0.4,0.4V87
			c-2-1.9-5-1.8-6.9,0.2c-1.9,2-1.8,5,0.2,6.9s5,1.8,6.9-0.2C184.7,92.8,185.2,91.2,184.9,89.7z"/>
	</g>
	<g>
		<path class="st2" d="M180,87.4c-0.2,0-0.4,0.2-0.4,0.4v3.1c0,0.2,0.2,0.4,0.4,0.4c0.2,0,0.4-0.2,0.4-0.4v-3.1
			C180.4,87.5,180.2,87.4,180,87.4z"/>
	</g>
	<g>
		<path class="st2" d="M180.1,90.9c-0.1-0.2-0.4-0.2-0.5-0.1l-1.6,1.3c-0.2,0.1-0.2,0.4-0.1,0.5s0.4,0.2,0.5,0.1l1.6-1.3
			C180.2,91.3,180.2,91.1,180.1,90.9z"/>
	</g>
</g>
<path d="M173.9,89.5l-5-4.6l-5,4.6c-0.1,0.1-0.1,0.2,0,0.2c0.1,0.1,0.2,0.1,0.2,0l0.6-0.5V95h2.8h2.8h2.8v-5.8l0.6,0.5
	c0,0,0.1,0,0.1,0c0,0,0.1,0,0.1-0.1C174,89.7,174,89.6,173.9,89.5z M167.9,94.7V91c0-0.1,0.1-0.2,0.2-0.2h1.8c0.1,0,0.2,0.1,0.2,0.2
	v3.6H167.9z M172.8,94.7h-2.4V91c0-0.3-0.2-0.5-0.5-0.5h-1.8c-0.3,0-0.5,0.2-0.5,0.5v3.6h-2.4v-5.7l3.8-3.5l3.5,3.2l0.3,0.3V94.7z"
	/>
<g>
	<g>
		<path d="M171.6,108.4c-0.1-0.8-0.5-1.6-1.2-2.2c-0.7-0.6-1.6-1-2.5-1c-0.7,0-1.4,0.2-2,0.6c-0.5,0.3-0.9,0.8-1.2,1.3
			c-0.1,0-0.3,0-0.4,0c-1.1,0-2.1,0.9-2.1,2.1c0,0.1,0,0.3,0,0.4c-0.7,0.5-1.2,1.4-1.2,2.3c0,0.7,0.3,1.5,0.8,2
			c0.5,0.6,1.2,0.9,1.9,1c0,0,0,0,0,0h2.3c0.2,0,0.4-0.2,0.4-0.4s-0.2-0.4-0.4-0.4h-2.3c-1.1-0.1-2-1.1-2-2.3c0-0.8,0.4-1.5,1.1-1.8
			c0.2-0.1,0.2-0.3,0.2-0.4c-0.1-0.1-0.1-0.3-0.1-0.5c0-0.7,0.6-1.3,1.3-1.3c0.2,0,0.3,0,0.5,0.1c0.2,0.1,0.4,0,0.5-0.2
			c0.5-1.1,1.6-1.7,2.8-1.7c1.6,0,2.9,1.2,3,2.7c0,0.2,0.1,0.3,0.3,0.3c1.2,0.2,2.1,1.3,2.1,2.6c0,1.3-1,2.5-2.3,2.6h-2
			c-0.2,0-0.4,0.2-0.4,0.4s0.2,0.4,0.4,0.4h2c0,0,0,0,0,0c0.8-0.1,1.6-0.4,2.1-1.1c0.6-0.6,0.9-1.4,0.9-2.2
			C174,110.1,173,108.8,171.6,108.4z"/>
		<path d="M169.7,112.2c0.1-0.1,0.1-0.4,0-0.5l-1.9-1.9c-0.1-0.1-0.2-0.1-0.3-0.1c-0.1,0-0.2,0-0.3,0.1l-1.9,1.9
			c-0.1,0.1-0.1,0.4,0,0.5c0.1,0.1,0.2,0.1,0.3,0.1s0.2,0,0.3-0.1l1.3-1.3v3.7c0,0.2,0.2,0.4,0.4,0.4c0.2,0,0.4-0.2,0.4-0.4v-3.7
			l1.3,1.3C169.3,112.4,169.5,112.4,169.7,112.2z"/>
	</g>
</g>
<circle class="st8" cx="155.5" cy="134.5" r="13.5"/>
<path class="st0" d="M160.8,133.3c0.3,0.3,0.3,0.7,0,1c-0.3,0.3-0.7,0.3-1,0l-3.3-3.5v9.1c0,0.4-0.3,0.7-0.7,0.7
	c-0.4,0-0.7-0.3-0.7-0.7v-9.1l-3.5,3.5c-0.3,0.3-0.7,0.3-1,0c-0.3-0.3-0.3-0.7,0-1l4.7-4.7c0.3-0.3,0.7-0.3,1,0L160.8,133.3z"/>
<linearGradient id="SVGID_3_" gradientUnits="userSpaceOnUse" x1="173.9541" y1="144.0459" x2="193.0459" y2="124.9541">
	<stop  offset="0" style="stop-color:#2977C4"/>
	<stop  offset="1" style="stop-color:#3F9CF8"/>
</linearGradient>
<circle class="st9" cx="183.5" cy="134.5" r="13.5"/>
<path class="st0" d="M188.8,133.3c0.3,0.3,0.3,0.7,0,1c-0.3,0.3-0.7,0.3-1,0l-3.3-3.5v9.1c0,0.4-0.3,0.7-0.7,0.7
	c-0.4,0-0.7-0.3-0.7-0.7v-9.1l-3.5,3.5c-0.3,0.3-0.7,0.3-1,0c-0.3-0.3-0.3-0.7,0-1l4.7-4.7c0.3-0.3,0.7-0.3,1,0L188.8,133.3z"/>
<path d="M99.3,47.5c-1.5-1.3-2.9-3.2-2.9-7.8c0-2.2-1.5-4-3.5-4.7c0.1-0.2,0.1-0.3,0.1-0.5c0-0.8-0.7-1.5-1.5-1.5S90,33.7,90,34.5
	c0,0.2,0,0.3,0.1,0.5c-2,0.6-3.5,2.5-3.5,4.7c0,4.7-1.4,6.5-2.9,7.8c-0.4,0.4-0.7,0.9-0.7,1.5c0,0.3,0.2,0.6,0.6,0.6h5.3
	c0.3,1.2,1.4,2.2,2.7,2.2s2.4-0.9,2.7-2.2h5.3c0.3,0,0.6-0.2,0.6-0.6C100,48.4,99.8,47.9,99.3,47.5z M91.5,50.6
	c-0.7,0-1.3-0.4-1.5-1.1h3C92.8,50.1,92.2,50.6,91.5,50.6z M84.3,48.4C84.4,48.4,84.4,48.3,84.3,48.4c2.4-2.1,3.4-4.7,3.4-8.7
	c0-1.9,1.4-3.5,3.3-3.7c-1-2.9,2-2.9,1,0c1.9,0.2,3.3,1.8,3.3,3.7c0,4.1,1,6.7,3.3,8.7c0,0,0,0,0.1,0.1H84.3z"/>
<path class="st6" d="M99.3,71.5c-1.5-1.3-2.9-3.2-2.9-7.8c0-2.2-1.5-4-3.5-4.7c0.1-0.2,0.1-0.3,0.1-0.5c0-0.8-0.7-1.5-1.5-1.5
	S90,57.7,90,58.5c0,0.2,0,0.3,0.1,0.5c-2,0.6-3.5,2.5-3.5,4.7c0,4.7-1.4,6.5-2.9,7.8c-0.4,0.4-0.7,0.9-0.7,1.5
	c0,0.3,0.2,0.6,0.6,0.6h5.3c0.3,1.2,1.4,2.2,2.7,2.2s2.4-0.9,2.7-2.2h5.3c0.3,0,0.6-0.2,0.6-0.6C100,72.4,99.8,71.9,99.3,71.5z
	 M91.5,74.6c-0.7,0-1.3-0.4-1.5-1.1h3C92.8,74.1,92.2,74.6,91.5,74.6z M84.3,72.4C84.4,72.4,84.4,72.3,84.3,72.4
	c2.4-2.1,3.4-4.7,3.4-8.7c0-1.9,1.4-3.5,3.3-3.7c-1-2.9,2-2.9,1,0c1.9,0.2,3.3,1.8,3.3,3.7c0,4.1,1,6.7,3.3,8.7c0,0,0,0,0.1,0.1
	H84.3z"/>
<g>
	<path class="st2" d="M198,94.5H188c-0.5,0-1-0.4-1-1V87c0-0.5,0.4-1,1-1H198c0.5,0,1,0.4,1,1v6.6C199,94.1,198.6,94.5,198,94.5z
		 M188,86.4c-0.3,0-0.6,0.3-0.6,0.6v6.6c0,0.3,0.3,0.6,0.6,0.6H198c0.3,0,0.6-0.3,0.6-0.6V87c0-0.3-0.3-0.6-0.6-0.6H188z"/>
	<path class="st2" d="M193,91.2c-0.3,0-0.5-0.1-0.7-0.3l-4.9-4.3c-0.1-0.1-0.1-0.2,0-0.3c0.1-0.1,0.2-0.1,0.3,0l4.9,4.3
		c0.2,0.2,0.7,0.2,0.9,0l4.9-4.3c0.1-0.1,0.2-0.1,0.3,0c0.1,0.1,0.1,0.2,0,0.3l-4.9,4.3C193.5,91.2,193.3,91.2,193,91.2z"/>
</g>
<g>
	<g>
		<path class="st6" d="M132,105c-2.8,0-5,2.2-5,5s2.2,5,5,5s5-2.2,5-5S134.8,105,132,105z M132,114.4c-2.4,0-4.4-2-4.4-4.4
			s2-4.4,4.4-4.4s4.4,2,4.4,4.4S134.4,114.4,132,114.4z"/>
		<circle class="st6" cx="132.1" cy="108" r="0.5"/>
		<path class="st6" d="M132,109.4c-0.2,0-0.4,0.2-0.4,0.4v3.1c0,0.2,0.2,0.4,0.4,0.4c0.2,0,0.4-0.2,0.4-0.4v-3.1
			C132.4,109.5,132.2,109.4,132,109.4z"/>
	</g>
</g>
<g>
	<g>
		<path class="st6" d="M155.1,106.7h-4.6c-0.4,0-0.8,0.4-0.8,0.8v6.7c0,0.4,0.4,0.8,0.8,0.8h4.6c0.4,0,0.8-0.4,0.8-0.8v-6.7
			C155.9,107.1,155.5,106.7,155.1,106.7z M155.3,114.2c0,0.1-0.1,0.2-0.2,0.2h-4.6c-0.1,0-0.2-0.1-0.2-0.2v-6.7
			c0-0.1,0.1-0.2,0.2-0.2h4.6c0.1,0,0.2,0.1,0.2,0.2V114.2z"/>
		<path class="st6" d="M156.9,105h-4.6c-0.4,0-0.8,0.4-0.8,0.8c0,0.2,0.1,0.3,0.3,0.3s0.3-0.1,0.3-0.3c0-0.1,0.1-0.2,0.2-0.2h4.6
			c0.1,0,0.2,0.1,0.2,0.2v6.7c0,0.1-0.1,0.2-0.2,0.2c-0.2,0-0.3,0.1-0.3,0.3c0,0.2,0.1,0.3,0.3,0.3c0.4,0,0.8-0.4,0.8-0.8v-6.7
			C157.7,105.4,157.3,105,156.9,105z"/>
	</g>
</g>
<g>
	<g>
		<path class="st6" d="M185.6,108.4c-0.1-0.8-0.5-1.6-1.2-2.2c-0.7-0.6-1.6-1-2.5-1c-0.7,0-1.4,0.2-2,0.6c-0.5,0.3-0.9,0.8-1.2,1.3
			c-0.1,0-0.3,0-0.4,0c-1.1,0-2.1,0.9-2.1,2.1c0,0.1,0,0.3,0,0.4c-0.7,0.5-1.2,1.4-1.2,2.3c0,0.7,0.3,1.5,0.8,2
			c0.5,0.6,1.2,0.9,1.9,1c0,0,0,0,0,0h2.3c0.2,0,0.4-0.2,0.4-0.4s-0.2-0.4-0.4-0.4h-2.3c-1.1-0.1-2-1.1-2-2.3c0-0.8,0.4-1.5,1.1-1.8
			c0.2-0.1,0.2-0.3,0.2-0.4c-0.1-0.1-0.1-0.3-0.1-0.5c0-0.7,0.6-1.3,1.3-1.3c0.2,0,0.3,0,0.5,0.1c0.2,0.1,0.4,0,0.5-0.2
			c0.5-1.1,1.6-1.7,2.8-1.7c1.6,0,2.9,1.2,3,2.7c0,0.2,0.1,0.3,0.3,0.3c1.2,0.2,2.1,1.3,2.1,2.6c0,1.3-1,2.5-2.3,2.6h-2
			c-0.2,0-0.4,0.2-0.4,0.4s0.2,0.4,0.4,0.4h2c0,0,0,0,0,0c0.8-0.1,1.6-0.4,2.1-1.1c0.6-0.6,0.9-1.4,0.9-2.2
			C188,110.1,187,108.8,185.6,108.4z"/>
		<path class="st6" d="M183.7,112.2c0.1-0.1,0.1-0.4,0-0.5l-1.9-1.9c-0.1-0.1-0.2-0.1-0.3-0.1c-0.1,0-0.2,0-0.3,0.1l-1.9,1.9
			c-0.1,0.1-0.1,0.4,0,0.5c0.1,0.1,0.2,0.1,0.3,0.1s0.2,0,0.3-0.1l1.3-1.3v3.7c0,0.2,0.2,0.4,0.4,0.4c0.2,0,0.4-0.2,0.4-0.4v-3.7
			l1.3,1.3C183.3,112.4,183.5,112.4,183.7,112.2z"/>
	</g>
</g>
<path class="st10" d="M150.2,193.9c-0.1,0.1-0.3,0.1-0.5,0c-0.1-0.1-0.1-0.3,0-0.5l1.7-1.6H147c-0.2,0-0.3-0.1-0.3-0.3
	s0.1-0.3,0.3-0.3h4.4l-1.7-1.7c-0.1-0.1-0.1-0.3,0-0.5c0.1-0.1,0.3-0.1,0.5,0l2.3,2.3c0.1,0.1,0.1,0.3,0,0.5L150.2,193.9z"/>
<circle class="st0" cx="163.5" cy="191.5" r="6.5"/>
<linearGradient id="SVGID_4_" gradientUnits="userSpaceOnUse" x1="163.5" y1="197" x2="163.5" y2="186">
	<stop  offset="0" style="stop-color:#E9E9E8"/>
	<stop  offset="0.7001" style="stop-color:#F0F1F1"/>
	<stop  offset="0.9944" style="stop-color:#F4F5F7"/>
</linearGradient>
<circle class="st11" cx="163.5" cy="191.5" r="5.5"/>
<path class="st10" d="M163,189c0.1-0.1,0.3-0.1,0.5,0c0.1,0.1,0.1,0.3,0,0.5l-1.7,1.6h4.4c0.2,0,0.3,0.1,0.3,0.3
	c0,0.2-0.1,0.3-0.3,0.3h-4.4l1.7,1.7c0.1,0.1,0.1,0.3,0,0.5c-0.1,0.1-0.3,0.1-0.5,0l-2.3-2.3c-0.1-0.1-0.1-0.3,0-0.5L163,189z"/>
<circle class="st0" cx="177.5" cy="191.5" r="6.5"/>
<linearGradient id="SVGID_5_" gradientUnits="userSpaceOnUse" x1="173.6109" y1="195.3891" x2="181.3891" y2="187.6109">
	<stop  offset="0" style="stop-color:#2977C4"/>
	<stop  offset="1" style="stop-color:#3F9CF8"/>
</linearGradient>
<circle class="st12" cx="177.5" cy="191.5" r="5.5"/>
<path class="st0" d="M178.2,193.9c-0.1,0.1-0.3,0.1-0.5,0c-0.1-0.1-0.1-0.3,0-0.5l1.7-1.6H175c-0.2,0-0.3-0.1-0.3-0.3
	s0.1-0.3,0.3-0.3h4.4l-1.7-1.7c-0.1-0.1-0.1-0.3,0-0.5c0.1-0.1,0.3-0.1,0.5,0l2.3,2.3c0.1,0.1,0.1,0.3,0,0.5L178.2,193.9z"/>
<circle class="st0" cx="191.5" cy="191.5" r="6.5"/>
<linearGradient id="SVGID_6_" gradientUnits="userSpaceOnUse" x1="187.6109" y1="195.3891" x2="195.3891" y2="187.6109">
	<stop  offset="0" style="stop-color:#2977C4"/>
	<stop  offset="1" style="stop-color:#3F9CF8"/>
</linearGradient>
<circle class="st13" cx="191.5" cy="191.5" r="5.5"/>
<path class="st0" d="M191,189c0.1-0.1,0.3-0.1,0.5,0c0.1,0.1,0.1,0.3,0,0.5l-1.7,1.6h4.4c0.2,0,0.3,0.1,0.3,0.3
	c0,0.2-0.1,0.3-0.3,0.3h-4.4l1.7,1.7c0.1,0.1,0.1,0.3,0,0.5c-0.1,0.1-0.3,0.1-0.5,0l-2.3-2.3c-0.1-0.1-0.1-0.3,0-0.5L191,189z"/>
<g>
	<path d="M194.6,34c-3.3,0-6,2.7-6,6c0,1.1,0.3,2.2,0.9,3.1l4.7,7.6c0.1,0.1,0.3,0.2,0.4,0.2c0,0,0,0,0,0c0.2,0,0.3-0.1,0.4-0.2
		l4.6-7.7c0.6-0.9,0.8-2,0.8-3.1C200.5,36.7,197.9,34,194.6,34z M198.8,42.5l-4.2,7l-4.3-7c-0.5-0.8-0.7-1.7-0.7-2.6
		c0-2.7,2.2-5,5-5s5,2.2,5,5C199.6,40.9,199.3,41.8,198.8,42.5z"/>
	<path d="M194.6,37c-1.6,0-3,1.3-3,3c0,1.6,1.3,3,3,3c1.7,0,3-1.4,3-3C197.6,38.3,196.2,37,194.6,37z M194.6,42c-1.1,0-2-0.9-2-2
		c0-1.1,0.9-2,2-2c1.1,0,2,0.9,2,2C196.6,41.1,195.7,42,194.6,42z"/>
</g>
<path class="st14" d="M70,94.5H63c-0.8,0-1.5-0.7-1.5-1.5V86c0-0.8,0.7-1.5,1.5-1.5H70c0.8,0,1.5,0.7,1.5,1.5V93
	C71.5,93.8,70.8,94.5,70,94.5z"/>
<path class="st15" d="M83,94.5H76c-0.8,0-1.5-0.7-1.5-1.5V86c0-0.8,0.7-1.5,1.5-1.5H83c0.8,0,1.5,0.7,1.5,1.5V93
	C84.5,93.8,83.8,94.5,83,94.5z"/>
<g id="Layer_20_7_">
	<polygon class="st16" points="81.9,87 78.8,90.1 77.6,88.9 76.6,89.8 78.8,92 82.8,87.9 	"/>
</g>
<path class="st17" d="M96,94.5H89c-0.8,0-1.5-0.7-1.5-1.5V86c0-0.8,0.7-1.5,1.5-1.5H96c0.8,0,1.5,0.7,1.5,1.5V93
	C97.5,93.8,96.8,94.5,96,94.5z"/>
<g id="Layer_20_6_">
	<polygon class="st0" points="94.9,87 91.8,90.1 90.6,88.9 89.6,89.8 91.8,92 95.8,87.9 	"/>
</g>
<circle class="st18" cx="107.7" cy="89.7" r="3.2"/>
<circle class="st19" cx="117.2" cy="89.7" r="3.2"/>
<circle class="st20" cx="126.8" cy="89.7" r="3.2"/>
<circle class="st21" cx="117.2" cy="89.7" r="1.1"/>
<circle class="st17" cx="126.8" cy="89.7" r="1.1"/>
<g>
	<rect x="36" y="83" width="3" height="3"/>
	<rect x="41" y="83" width="13" height="3"/>
	<rect x="36" y="88" width="3" height="3"/>
	<rect x="41" y="88" width="13" height="3"/>
	<rect x="36" y="93" width="3" height="3"/>
	<rect x="41" y="93" width="13" height="3"/>
</g>
<g>
	<path class="st16" d="M32.8,100.2h-16c-0.3,0-0.6,0.3-0.6,0.6v14.4c0,0.3,0.3,0.6,0.6,0.6h16c0.3,0,0.6-0.3,0.6-0.6v-14.4
		C33.4,100.5,33.1,100.2,32.8,100.2z M32.2,101.3v11.5l-2.5-3.5c-0.2-0.2-0.6-0.2-0.8,0l-2.1,2.1l-4.9-4c-0.2-0.2-0.6-0.2-0.8,0
		l-3.7,4.7v-10.8H32.2z M17.3,114.6v-0.9l4.1-5.1l6.9,6H17.3z M29.9,114.6L29.9,114.6l-2.4-2.4l1.8-1.8l2.8,3.8l0.1,0.1v0.2
		L29.9,114.6L29.9,114.6z"/>
	<path class="st16" d="M24.3,105.7c1.1,0,2-0.9,2-2s-0.9-2-2-2s-2,0.9-2,2S23.2,105.7,24.3,105.7z M24.3,102.4
		c0.7,0,1.3,0.6,1.3,1.3c0,0.7-0.6,1.3-1.3,1.3c-0.7,0-1.3-0.6-1.3-1.3C23,103,23.6,102.4,24.3,102.4z"/>
</g>
<g>
	<rect x="36" y="102" class="st16" width="3" height="3"/>
	<rect x="41" y="102" class="st16" width="13" height="3"/>
	<rect x="36" y="107" class="st16" width="3" height="3"/>
	<rect x="41" y="107" class="st16" width="13" height="3"/>
	<rect x="36" y="112" class="st16" width="3" height="3"/>
	<rect x="41" y="112" class="st16" width="13" height="3"/>
</g>
<g>
	<rect x="2" y="102" class="st16" width="5" height="5"/>
	<rect x="9" y="102" class="st16" width="5" height="5"/>
	<rect x="2" y="109" class="st16" width="5" height="5"/>
	<rect x="9" y="109" class="st16" width="5" height="5"/>
</g>
<g>
	<rect x="2" y="83" width="5" height="5"/>
	<rect x="9" y="83" width="5" height="5"/>
	<rect x="2" y="90" width="5" height="5"/>
	<rect x="9" y="90" width="5" height="5"/>
</g>
<g>
	<g>
		<path d="M145.8,155.2L145.8,155.2c-0.1,0-0.1,0-0.1-0.1v-2.4c0-0.1,0-0.1,0.1-0.1l0,0c0.1,0,0.1,0,0.1,0.1v2.4
			C145.9,155.2,145.8,155.2,145.8,155.2z"/>
		<path d="M145.8,155.2C145.8,155.2,145.7,155.2,145.8,155.2l-1-0.9v-0.1h0.1l0.8,0.8l0.8-0.8h0.1v0.1L145.8,155.2L145.8,155.2z"/>
	</g>
	<g>
		<path d="M148.1,157h-4.6c-0.3,0-0.5-0.2-0.5-0.5v-5.9c0-0.3,0.2-0.5,0.5-0.5h3.3c0.1,0,0.1,0,0.1,0.1s0,0.1-0.1,0.1h-3.3
			c-0.2,0-0.3,0.1-0.3,0.3v5.9c0,0.2,0.1,0.3,0.3,0.3h4.6c0.2,0,0.3-0.1,0.3-0.3v-4.6c0-0.1,0-0.1,0.1-0.1s0.1,0,0.1,0.1v4.6
			C148.6,156.8,148.4,157,148.1,157z"/>
		<path d="M148.5,151.9h-1.7c-0.1,0-0.1,0-0.1-0.1v-1.7c0-0.1,0-0.1,0.1-0.1s0.1,0,0.1,0.1v1.6h1.6c0.1,0,0.1,0,0.1,0.1
			S148.6,151.9,148.5,151.9z"/>
		<path d="M148.5,151.9C148.5,151.9,148.4,151.9,148.5,151.9l-1.8-1.8V150h0.1l1.7,1.7C148.6,151.8,148.6,151.9,148.5,151.9
			C148.6,151.9,148.5,151.9,148.5,151.9z"/>
	</g>
</g>
<g>
	<g>
		<path class="st6" d="M152.3,155.2L152.3,155.2c-0.1,0-0.1,0-0.1-0.1v-2.4c0-0.1,0-0.1,0.1-0.1l0,0c0.1,0,0.1,0,0.1,0.1v2.4
			C152.4,155.2,152.4,155.2,152.3,155.2z"/>
		<path class="st6" d="M152.3,155.2L152.3,155.2l-1-0.9v-0.1h0.1l0.8,0.8l0.8-0.8h0.1v0.1L152.3,155.2
			C152.4,155.2,152.3,155.2,152.3,155.2z"/>
	</g>
	<g>
		<path class="st6" d="M154.6,157H150c-0.3,0-0.5-0.2-0.5-0.5v-5.9c0-0.3,0.2-0.5,0.5-0.5h3.3c0.1,0,0.1,0,0.1,0.1s0,0.1-0.1,0.1
			H150c-0.2,0-0.3,0.1-0.3,0.3v5.9c0,0.2,0.1,0.3,0.3,0.3h4.6c0.2,0,0.3-0.1,0.3-0.3v-4.6c0-0.1,0-0.1,0.1-0.1s0.1,0,0.1,0.1v4.6
			C155.1,156.8,154.9,157,154.6,157z"/>
		<path class="st6" d="M155,151.9h-1.7c-0.1,0-0.1,0-0.1-0.1v-1.7c0-0.1,0-0.1,0.1-0.1s0.1,0,0.1,0.1v1.6h1.6c0.1,0,0.1,0,0.1,0.1
			S155.1,151.9,155,151.9z"/>
		<path class="st6" d="M155,151.9L155,151.9l-1.8-1.8V150h0.1l1.7,1.7C155.1,151.8,155.1,151.9,155,151.9
			C155.1,151.9,155.1,151.9,155,151.9z"/>
	</g>
</g>
<path class="st6" d="M173,153.5l2.9-2.9c0.1-0.1,0.1-0.3,0-0.5c-0.1-0.1-0.3-0.1-0.5,0l-2.9,2.9l-2.9-2.9c-0.1-0.1-0.3-0.1-0.5,0
	c-0.1,0.1-0.1,0.3,0,0.5l2.9,2.9l-2.9,2.9c-0.1,0.1-0.1,0.3,0,0.5c0.1,0.1,0.2,0.1,0.2,0.1c0.1,0,0.2,0,0.2-0.1l2.9-2.9l2.9,2.9
	c0.1,0.1,0.2,0.1,0.2,0.1s0.2,0,0.2-0.1c0.1-0.1,0.1-0.3,0-0.5L173,153.5z"/>
<path d="M165,153.5l2.9-2.9c0.1-0.1,0.1-0.3,0-0.5c-0.1-0.1-0.3-0.1-0.5,0l-2.9,2.9l-2.9-2.9c-0.1-0.1-0.3-0.1-0.5,0
	c-0.1,0.1-0.1,0.3,0,0.5l2.9,2.9l-2.9,2.9c-0.1,0.1-0.1,0.3,0,0.5c0.1,0.1,0.2,0.1,0.2,0.1c0.1,0,0.2,0,0.2-0.1l2.9-2.9l2.9,2.9
	c0.1,0.1,0.2,0.1,0.2,0.1s0.2,0,0.2-0.1c0.1-0.1,0.1-0.3,0-0.5L165,153.5z"/>
<g>
	<g>
		<path d="M186.9,150.1h-0.1h-6.6h-0.1l0,0c0,0,0,0,0,0.1c0,0,0,0.1,0.1,0.1l2.3,3.3v3.3c0,0,0,0,0,0.1s0.1,0.1,0.1,0.1
			s0.1,0,0.1-0.1l1.9-1.9V155v-1.4l2.3-3.3C187,150.2,187,150.1,186.9,150.1z M184.3,153.4v0.1v1.4l-1.6,1.6v-2.9v-0.1l-2.2-3.1h6.1
			C186.5,150.3,184.3,153.4,184.3,153.4z"/>
	</g>
</g>
<g>
	<g>
		<path class="st6" d="M194.9,150.1h-0.1h-6.6h-0.1l0,0c0,0,0,0,0,0.1c0,0,0,0.1,0.1,0.1l2.3,3.3v3.3c0,0,0,0,0,0.1s0.1,0.1,0.1,0.1
			s0.1,0,0.1-0.1l1.9-1.9V155v-1.4l2.3-3.3C195,150.2,195,150.1,194.9,150.1z M192.3,153.4v0.1v1.4l-1.6,1.6v-2.9v-0.1l-2.2-3.1h6.1
			C194.5,150.3,192.3,153.4,192.3,153.4z"/>
	</g>
</g>
<g>
	<path class="st22" d="M150.9,184h-5.7c-1.2,0-2.1-1-2.1-2.1v-5.7c0-1.2,1-2.1,2.1-2.1h5.7c1.2,0,2.1,1,2.1,2.1v5.7
		C153,183,152,184,150.9,184z"/>
	<g>
		<path class="st23" d="M145.3,181.5h-0.6v-5.4h1.9c0.5,0,0.9,0.2,1.1,0.5c0.2,0.3,0.4,0.7,0.4,1.2c0,0.2,0,0.3,0,0.5
			c0,0.1,0,0.3-0.1,0.5s-0.1,0.4-0.2,0.5c-0.1,0.1-0.2,0.2-0.4,0.3s-0.4,0.1-0.7,0.1h-1.4C145.3,179.7,145.3,181.5,145.3,181.5z
			 M145.3,179.2h1.3c0.2,0,0.3,0,0.5-0.1c0.1-0.1,0.2-0.1,0.3-0.2c0.1-0.1,0.1-0.2,0.1-0.4s0.1-0.3,0.1-0.3c0-0.1,0-0.2,0-0.3
			c0-0.8-0.3-1.2-1-1.2h-1.3C145.3,176.7,145.3,179.2,145.3,179.2z"/>
		<path class="st23" d="M148.7,180.5h0.5c0,0.2,0.1,0.3,0.3,0.4c0.2,0.1,0.4,0.2,0.6,0.2c0.2,0,0.4-0.1,0.6-0.2
			c0.2-0.1,0.2-0.2,0.2-0.4s-0.1-0.3-0.2-0.4c-0.1-0.1-0.3-0.2-0.5-0.3s-0.4-0.1-0.6-0.2c-0.2-0.1-0.4-0.2-0.5-0.3
			c-0.2-0.2-0.3-0.4-0.3-0.7s0.1-0.5,0.3-0.7s0.5-0.3,1-0.3c0.2,0,0.3,0,0.5,0.1c0.1,0,0.2,0.1,0.3,0.1l0.1,0.1l-0.2,0.5
			c-0.2-0.1-0.4-0.2-0.6-0.2c-0.3,0-0.5,0.1-0.6,0.1c-0.1,0.1-0.2,0.2-0.2,0.4s0.1,0.3,0.2,0.4c0.2,0.1,0.3,0.2,0.6,0.2
			c0.2,0.1,0.4,0.1,0.6,0.2c0.2,0.1,0.4,0.2,0.5,0.4s0.2,0.4,0.2,0.7s-0.1,0.5-0.3,0.8s-0.6,0.3-1,0.3s-0.8-0.1-1-0.3
			C148.8,181.1,148.7,180.8,148.7,180.5z"/>
	</g>
</g>
<g>
	<g id="_x38__3_">
		<g>
			<path d="M145.8,160c-1.5,0-2.8,1.2-2.8,2.8c0,1.5,1.2,2.8,2.8,2.8c1.5,0,2.8-1.2,2.8-2.8C148.5,161.2,147.3,160,145.8,160z
				 M145.8,165.2c-1.3,0-2.4-1.1-2.4-2.4c0-1.3,1.1-2.4,2.4-2.4c1.3,0,2.4,1.1,2.4,2.4C148.2,164.1,147.1,165.2,145.8,165.2z
				 M146.8,162.6h-2.1c-0.1,0-0.2,0.1-0.2,0.2c0,0.1,0.1,0.2,0.2,0.2h2.1c0.1,0,0.2-0.1,0.2-0.2C147,162.7,146.9,162.6,146.8,162.6z
				"/>
		</g>
	</g>
</g>
<g>
	<g id="_x38__1_">
		<g>
			<path class="st6" d="M152.2,160c-1.5,0-2.8,1.2-2.8,2.8c0,1.5,1.2,2.8,2.8,2.8c1.5,0,2.8-1.2,2.8-2.8S153.8,160,152.2,160z
				 M152.2,165.2c-1.3,0-2.4-1.1-2.4-2.4c0-1.3,1.1-2.4,2.4-2.4c1.3,0,2.4,1.1,2.4,2.4C154.7,164.1,153.6,165.2,152.2,165.2z
				 M153.3,162.6h-2.1c-0.1,0-0.2,0.1-0.2,0.2c0,0.1,0.1,0.2,0.2,0.2h2.1c0.1,0,0.2-0.1,0.2-0.2
				C153.4,162.7,153.4,162.6,153.3,162.6z"/>
		</g>
	</g>
</g>
<g>
	<g id="_x38__4_">
		<g>
			<path d="M145.8,166c-1.5,0-2.8,1.2-2.8,2.8c0,1.5,1.2,2.8,2.8,2.8c1.5,0,2.8-1.2,2.8-2.8C148.5,167.2,147.3,166,145.8,166z
				 M145.8,171.2c-1.3,0-2.4-1.1-2.4-2.4c0-1.3,1.1-2.4,2.4-2.4c1.3,0,2.4,1.1,2.4,2.4C148.2,170.1,147.1,171.2,145.8,171.2z
				 M146.8,168.6h-0.9v-0.9c0-0.1-0.1-0.2-0.2-0.2c-0.1,0-0.2,0.1-0.2,0.2v0.9h-0.9c-0.1,0-0.2,0.1-0.2,0.2c0,0.1,0.1,0.2,0.2,0.2
				h0.9v0.9c0,0.1,0.1,0.2,0.2,0.2c0.1,0,0.2-0.1,0.2-0.2V169h0.9c0.1,0,0.2-0.1,0.2-0.2C147,168.7,146.9,168.6,146.8,168.6z"/>
		</g>
	</g>
</g>
<g>
	<g id="_x38__2_">
		<g>
			<path class="st6" d="M152.2,166c-1.5,0-2.8,1.2-2.8,2.8c0,1.5,1.2,2.8,2.8,2.8c1.5,0,2.8-1.2,2.8-2.8S153.8,166,152.2,166z
				 M152.2,171.2c-1.3,0-2.4-1.1-2.4-2.4c0-1.3,1.1-2.4,2.4-2.4c1.3,0,2.4,1.1,2.4,2.4C154.7,170.1,153.6,171.2,152.2,171.2z
				 M153.3,168.6h-0.9v-0.9c0-0.1-0.1-0.2-0.2-0.2c-0.1,0-0.2,0.1-0.2,0.2v0.9h-0.9c-0.1,0-0.2,0.1-0.2,0.2c0,0.1,0.1,0.2,0.2,0.2
				h0.9v0.9c0,0.1,0.1,0.2,0.2,0.2c0.1,0,0.2-0.1,0.2-0.2V169h0.9c0.1,0,0.2-0.1,0.2-0.2C153.4,168.7,153.4,168.6,153.3,168.6z"/>
		</g>
	</g>
</g>
<g>
	<path class="st24" d="M161.6,184h-5.7c-1.2,0-2.1-1-2.1-2.1v-5.7c0-1.2,1-2.1,2.1-2.1h5.7c1.2,0,2.1,1,2.1,2.1v5.7
		C163.8,183,162.8,184,161.6,184z"/>
	<g>
		<path class="st25" d="M159.7,181.5H159l-0.5-1.7h-1.6l-0.5,1.7h-0.6l1.6-5.4h0.6L159.7,181.5z M158.4,179.2l-0.7-2.2l-0.6,2.2
			H158.4z"/>
		<path class="st25" d="M161,176.4c0,0.1,0,0.2-0.1,0.2c-0.1,0.1-0.1,0.1-0.2,0.1s-0.2,0-0.2-0.1c-0.1-0.1-0.1-0.1-0.1-0.2
			c0-0.1,0-0.2,0.1-0.2c0.1-0.1,0.1-0.1,0.2-0.1s0.2,0,0.2,0.1C160.9,176.2,161,176.3,161,176.4z M160.9,181.5h-0.6v-3.9h0.6V181.5z
			"/>
	</g>
</g>
<path class="st26" d="M175,182.4c0,0.9-0.7,1.6-1.6,1.6h-6.9c-0.9,0-1.6-0.7-1.6-1.6V176l2-2h6.4c0.9,0,1.6,0.7,1.6,1.6v6.8H175z"/>
<polygon class="st27" points="165,177.1 165,176 166.1,176 "/>
<path class="st28" d="M165,176h1.4c0.4,0,0.7-0.3,0.7-0.7V174L165,176z"/>
<path class="st28" d="M166.7,180.7v-3.3h1.6c0.2,0,0.3,0,0.4,0.1c0.1,0.1,0.2,0.1,0.3,0.2c0.1,0.1,0.1,0.2,0.2,0.3
	c0,0.1,0.1,0.3,0.1,0.4c0,0.2,0,0.3-0.1,0.4c0,0.1-0.1,0.2-0.2,0.3c-0.1,0.1-0.2,0.2-0.3,0.2c-0.1,0.1-0.3,0.1-0.4,0.1h-1.1v1.2
	L166.7,180.7L166.7,180.7z M167.2,177.9v1.1h0.9c0.2,0,0.4,0,0.5-0.1s0.1-0.2,0.1-0.4s-0.1-0.3-0.2-0.4c-0.1-0.1-0.3-0.1-0.4-0.1
	L167.2,177.9L167.2,177.9L167.2,177.9z"/>
<path class="st28" d="M171.2,177.5l0.5-0.1v2.8c0,0.1,0,0.1,0,0.2v0.1v0.1c0,0,0,0.1,0.1,0.1h-0.5c0,0,0-0.1-0.1-0.1
	c0-0.1,0-0.1,0-0.2c-0.1,0.1-0.2,0.2-0.3,0.2c-0.1,0.1-0.3,0.1-0.4,0.1c-0.2,0-0.3,0-0.4-0.1c-0.1-0.1-0.2-0.1-0.3-0.2
	c-0.1-0.1-0.1-0.2-0.2-0.3c0-0.1-0.1-0.3-0.1-0.4v-0.2c0-0.4,0.1-0.7,0.3-0.9s0.5-0.3,0.9-0.3c0.2,0,0.3,0,0.5,0.1V177.5
	L171.2,177.5z M171.2,178.9c-0.1,0-0.1-0.1-0.2-0.1c-0.1,0-0.2,0-0.3,0s-0.2,0-0.3,0.1c-0.1,0-0.2,0.1-0.2,0.1
	c-0.1,0.1-0.1,0.1-0.1,0.2c0,0.1,0,0.2,0,0.3v0.2c0,0.1,0,0.2,0,0.3s0,0.2,0.1,0.2c0,0.1,0.1,0.1,0.1,0.2c0.1,0,0.1,0.1,0.2,0.1
	c0.1,0,0.1,0,0.2,0c0.1,0,0.1-0.1,0.2-0.1c0.1,0,0.1-0.1,0.2-0.1c0.1,0,0.1-0.1,0.1-0.1V178.9L171.2,178.9z"/>
<path class="st28" d="M172.3,178.1c0-0.1,0-0.2,0-0.3s0.1-0.2,0.1-0.2c0.1-0.1,0.1-0.1,0.2-0.2c0.1,0,0.2-0.1,0.3-0.1s0.1,0,0.2,0
	c0.1,0,0.1,0,0.2,0v0.4h-0.2c-0.1,0-0.2,0-0.2,0.1s-0.1,0.1-0.1,0.2v0.2h0.5l-0.1,0.4h-0.3v2h-0.5v-2H172v-0.4L172.3,178.1
	L172.3,178.1L172.3,178.1L172.3,178.1z"/>
<path class="st0" d="M166.7,180.6v-3.3h1.6c0.2,0,0.3,0,0.4,0.1c0.1,0.1,0.2,0.1,0.3,0.2c0.1,0.1,0.1,0.2,0.2,0.3
	c0,0.1,0.1,0.3,0.1,0.4c0,0.2,0,0.3-0.1,0.4c0,0.1-0.1,0.2-0.2,0.3c-0.1,0.1-0.2,0.2-0.3,0.2c-0.1,0.1-0.3,0.1-0.4,0.1h-1.1v1.2
	L166.7,180.6L166.7,180.6z M167.2,177.8v1.1h0.9c0.2,0,0.4,0,0.5-0.1s0.1-0.2,0.1-0.4s-0.1-0.3-0.2-0.4c-0.1-0.1-0.3-0.1-0.4-0.1
	L167.2,177.8L167.2,177.8L167.2,177.8z"/>
<path class="st0" d="M171.2,177.4l0.5-0.1v2.8c0,0.1,0,0.1,0,0.2v0.1v0.1c0,0,0,0.1,0.1,0.1h-0.5c0,0,0-0.1-0.1-0.1
	c0-0.1,0-0.1,0-0.2c-0.1,0.1-0.2,0.2-0.3,0.2c-0.1,0.1-0.3,0.1-0.4,0.1c-0.2,0-0.3,0-0.4-0.1c-0.1-0.1-0.2-0.1-0.3-0.2
	c-0.1-0.1-0.1-0.2-0.2-0.3c0-0.1-0.1-0.3-0.1-0.4v-0.2c0-0.4,0.1-0.7,0.3-0.9s0.5-0.3,0.9-0.3c0.2,0,0.3,0,0.5,0.1V177.4
	L171.2,177.4z M171.2,178.7c-0.1,0-0.1-0.1-0.2-0.1c-0.1,0-0.2,0-0.3,0s-0.2,0-0.3,0.1c-0.1,0-0.2,0.1-0.2,0.1
	c-0.1,0.1-0.1,0.1-0.1,0.2c0,0.1,0,0.2,0,0.3v0.2c0,0.1,0,0.2,0,0.3s0,0.2,0.1,0.2c0,0.1,0.1,0.1,0.1,0.2c0.1,0,0.1,0.1,0.2,0.1
	c0.1,0,0.1,0,0.2,0c0.1,0,0.1-0.1,0.2-0.1c0.1,0,0.1-0.1,0.2-0.1c0.1,0,0.1-0.1,0.1-0.1V178.7L171.2,178.7z"/>
<path class="st0" d="M172.3,178c0-0.1,0-0.2,0-0.3s0.1-0.2,0.1-0.2c0.1-0.1,0.1-0.1,0.2-0.2c0.1,0,0.2-0.1,0.3-0.1s0.1,0,0.2,0
	c0.1,0,0.1,0,0.2,0v0.4h-0.2c-0.1,0-0.2,0-0.2,0.1s-0.1,0.1-0.1,0.2v0.2h0.5l-0.1,0.4h-0.3v2h-0.5v-2H172v-0.4L172.3,178L172.3,178
	L172.3,178L172.3,178z"/>
<g>
	<path d="M160.9,163.2l-0.1-0.1c0,0,0-0.1,0.1-0.1c0.1-0.1,0.2-0.1,0.3,0l1.6,1.6l1.6-1.6c0.1-0.1,0.2-0.1,0.3,0s0.1,0.2,0,0.3
		L163,165c-0.1,0.1-0.2,0.1-0.3,0L160.9,163.2z"/>
</g>
<g>
	<path class="st6" d="M165.9,163.2l-0.1-0.1c0,0,0-0.1,0.1-0.1c0.1-0.1,0.2-0.1,0.3,0l1.6,1.6l1.6-1.6c0.1-0.1,0.2-0.1,0.3,0
		s0.1,0.2,0,0.3L168,165c-0.1,0.1-0.2,0.1-0.3,0L165.9,163.2z"/>
</g>
<g>
	<path class="st6" d="M169.7,168.6l0.1,0.1c0,0,0,0.1-0.1,0.1c-0.1,0.1-0.2,0.1-0.3,0l-1.6-1.6l-1.6,1.6c-0.1,0.1-0.2,0.1-0.3,0
		s-0.1-0.2,0-0.3l1.7-1.7c0.1-0.1,0.2-0.1,0.3,0L169.7,168.6z"/>
</g>
<g>
	<path d="M164.7,168.6l0.1,0.1c0,0,0,0.1-0.1,0.1c-0.1,0.1-0.2,0.1-0.3,0l-1.6-1.6l-1.6,1.6c-0.1,0.1-0.2,0.1-0.3,0s-0.1-0.2,0-0.3
		l1.7-1.7c0.1-0.1,0.2-0.1,0.3,0L164.7,168.6z"/>
</g>
<g>
	<path class="st6" d="M194.6,58c-3.3,0-6,2.7-6,6c0,1.1,0.3,2.2,0.9,3.1l4.7,7.6c0.1,0.1,0.3,0.2,0.4,0.2c0,0,0,0,0,0
		c0.2,0,0.3-0.1,0.4-0.2l4.6-7.7c0.6-0.9,0.8-2,0.8-3.1C200.5,60.7,197.9,58,194.6,58z M198.8,66.5l-4.2,7l-4.3-7
		c-0.5-0.8-0.7-1.7-0.7-2.6c0-2.7,2.2-5,5-5s5,2.2,5,5C199.6,64.9,199.3,65.8,198.8,66.5z"/>
	<path class="st6" d="M194.6,61c-1.6,0-3,1.3-3,3c0,1.6,1.3,3,3,3c1.7,0,3-1.4,3-3C197.6,62.3,196.2,61,194.6,61z M194.6,66
		c-1.1,0-2-0.9-2-2c0-1.1,0.9-2,2-2c1.1,0,2,0.9,2,2C196.6,65.1,195.7,66,194.6,66z"/>
</g>
<path class="st14" d="M214.7,96.5H204c-0.8,0-1.5-0.7-1.5-1.5V84.3c0-0.8,0.7-1.5,1.5-1.5h10.8c0.8,0,1.5,0.7,1.5,1.5V95
	C216.2,95.8,215.5,96.5,214.7,96.5z"/>
<path class="st15" d="M232.5,96.5h-10.8c-0.8,0-1.5-0.7-1.5-1.5V84.3c0-0.8,0.7-1.5,1.5-1.5h10.8c0.8,0,1.5,0.7,1.5,1.5V95
	C234,95.8,233.3,96.5,232.5,96.5z"/>
<g id="Layer_20_4_">
	<polygon class="st16" points="230.4,86.2 226.1,90.5 224.5,88.8 223.2,90.1 226.1,93.1 231.7,87.5 	"/>
</g>
</svg>
