<?xml version="1.0" encoding="utf-8"?>
<!-- Generator: Adobe Illustrator 22.0.1, SVG Export Plug-In . SVG Version: 6.00 Build 0)  -->
<svg version="1.1" xmlns="http://www.w3.org/2000/svg" xmlns:xlink="http://www.w3.org/1999/xlink" x="0px" y="0px"
	 viewBox="0 0 450 800" style="enable-background:new 0 0 450 800;" xml:space="preserve">
<style type="text/css">
	.st0{fill:#2C7CC9;}
	.st1{fill:#FFFFFF;}
	.st2{fill:#CCCCCC;}
	.st3{fill:#363D47;}
	.st4{fill:#666666;}
	.st5{fill:#20425E;}
	.st6{fill:#FF2D03;}
	.st7{fill:#297DCF;}
	.st8{fill:url(#SVGID_1_);}
	.st9{fill:url(#SVGID_2_);}
	.st10{fill:#FDFEFF;}
	.st11{fill:url(#SVGID_3_);}
	.st12{fill:url(#SVGID_4_);}
	.st13{fill:#393687;}
	.st14{fill:#89D3FF;}
	.st15{fill:#6D4C13;}
	.st16{fill:#FFBD2E;}
	.st17{fill:#E24C3F;}
	.st18{opacity:0.2;fill:#5D5D5D;enable-background:new    ;}
	.st19{fill:#FF7063;}
	.st20{fill:#87BB34;}
	.st21{fill:#FC222B;}
	.st22{fill:#999999;}
	.st23{display:none;}
	.st24{display:inline;}
</style>
<g id="Layer_1">
	<circle class="st0" cx="250.5" cy="177" r="15.5"/>
	<circle class="st1" cx="250.5" cy="177" r="12"/>
	<path class="st0" d="M184.9,192.5h-23.7c-2,0-3.6-1.6-3.6-3.6v-23.7c0-2,1.6-3.6,3.6-3.6h23.7c2,0,3.6,1.6,3.6,3.6v23.7
		C188.5,190.9,186.9,192.5,184.9,192.5z"/>
	<path class="st1" d="M183.7,189.5h-21.3c-1,0-1.8-0.8-1.8-1.8v-21.3c0-1,0.8-1.8,1.8-1.8h21.3c1,0,1.8,0.8,1.8,1.8v21.3
		C185.5,188.7,184.7,189.5,183.7,189.5z"/>
	<path class="st2" d="M150.9,192.5h-23.7c-2,0-3.6-1.6-3.6-3.6v-23.7c0-2,1.6-3.6,3.6-3.6h23.7c2,0,3.6,1.6,3.6,3.6v23.7
		C154.5,190.9,152.9,192.5,150.9,192.5z"/>
	<circle class="st1" cx="288.2" cy="460.3" r="21.2"/>
	<circle class="st3" cx="288.2" cy="460.3" r="17.9"/>
	<g id="Layer_4">
		<g>
			<path class="st1" d="M34.8,22.4H2.3c-0.6,0-1.1,0.6-1.1,1.1v23.7c0,0.6,0.6,1.1,1.1,1.1h32.5c0.6,0,1.1-0.6,1.1-1.1V23.5
				C36,22.9,35.4,22.4,34.8,22.4z M33.7,24.5v18.2L27,35.9c-0.4-0.4-1.1-0.4-1.5,0l-4,4l-9.4-7.6c-0.4-0.4-1.1-0.4-1.5,0l-7.1,9
				V24.5H33.7z M3.3,46.1v-1.7l7.8-9.7l13.2,11.5H3.3z M27.4,46.1L27.4,46.1l-4.6-4.6l3.4-3.4l7.3,7.3l0.2,0.2v0.4h-6.3V46.1z"/>
			<path class="st1" d="M22.4,34.8c2.1,0,3.8-1.7,3.8-3.8s-1.7-3.8-3.8-3.8s-3.8,1.7-3.8,3.8C18.6,33.1,20.3,34.8,22.4,34.8z
				 M22.4,28.5c1.3,0,2.5,1.1,2.5,2.5c0,1.3-1.1,2.5-2.5,2.5c-1.3,0-2.5-1.1-2.5-2.5C19.9,29.6,21.1,28.5,22.4,28.5z"/>
		</g>
		<g>
			<path class="st1" d="M70,21.2L70,21.2L70,21.2L70,21.2L70,21.2l-8-8C61.8,13,61.6,13,61.4,13h-1.5l0,0H44.2
				c-1.3,0-2.5,1.1-2.5,2.5v32.1c0,1.3,1.1,2.5,2.5,2.5h23.7c1.3,0,2.5-1.1,2.5-2.5V21.8C70.2,21.6,70.2,21.4,70,21.2z M60.6,15.3
				l7.1,7.3h-7.1V15.3z M68.1,46.8c0,0.4-0.4,0.8-0.8,0.8H44.8c-0.4,0-0.8-0.4-0.8-0.8V16c0-0.4,0.4-0.8,0.8-0.8h13.6v8.2
				c0,0.4,0.2,1.5,1.3,1.5h8.4V46.8z"/>
			<path class="st1" d="M56,27.1c-0.2-0.2-0.4-0.2-0.6-0.2l0,0h-0.2l0,0l0,0c-0.2,0-0.6,0.2-0.8,0.4l-4.6,5
				c-0.2,0.2-0.4,0.6-0.4,0.8c0,0.4,0.2,0.6,0.4,0.8c0.4,0.4,1.1,0.4,1.7,0l2.7-3.1v11.8c0,0.6,0.6,1.1,1.1,1.1s1.1-0.6,1.1-1.1
				V30.8l3.1,3.1c0.4,0.4,1.1,0.4,1.7,0c0.4-0.4,0.4-1.1,0-1.7L56,27.1L56,27.1z"/>
		</g>
		<g>
			<g>
				<path class="st1" d="M157,27.3l-2.5-0.4c-0.2-0.8-0.6-1.7-1-2.5l1.5-2.1c0.6-1,0.6-2.1-0.2-2.9l-2.3-2.3c-0.4-0.4-1-0.6-1.5-0.6
					c-0.4,0-1,0.2-1.3,0.4l-2.1,1.5c-0.8-0.4-1.7-0.8-2.5-1.1l-0.4-2.5c-0.2-1.1-1.1-1.9-2.3-1.9h-3.2c-1.1,0-2.1,0.8-2.3,1.9
					l-0.4,2.5c-0.8,0.2-1.7,0.6-2.5,1l-2.1-1.5c-0.4-0.2-0.8-0.4-1.3-0.4c-0.6,0-1.1,0.2-1.5,0.6l-2.3,2.3c-0.8,0.8-1,1.9-0.2,2.9
					l1.5,2.1c-0.4,0.8-0.8,1.5-1,2.5l-2.5,0.4c-1.1,0.2-1.9,1.1-1.9,2.3v3.2c0,1.1,0.8,2.1,1.9,2.3l2.5,0.4c0.2,0.8,0.6,1.7,1,2.5
					l-1.5,2.1c-0.6,1-0.6,2.1,0.2,2.9l2.3,2.3c0.4,0.4,1,0.6,1.5,0.6c0.4,0,1-0.2,1.3-0.4l2.1-1.5c0.8,0.4,1.5,0.8,2.5,1l0.4,2.5
					c0.2,1.1,1.1,1.9,2.3,1.9h3.1c1.1,0,2.1-0.8,2.3-1.9l0.4-2.5c0.8-0.2,1.7-0.6,2.5-1l2.1,1.5c0.4,0.2,0.8,0.4,1.3,0.4l0,0
					c0.6,0,1.1-0.2,1.5-0.6l2.3-2.3c0.8-0.8,1-1.9,0.2-2.9l-1.5-2.1c0.4-0.8,0.8-1.5,1-2.5l2.5-0.4c1.1-0.2,1.9-1.1,1.9-2.3v-3.1
					C158.7,28.5,157.9,27.5,157,27.3z M156.8,32.7c0,0.2,0,0.2-0.2,0.2l-3.2,0.6c-0.4,0-0.8,0.4-0.8,0.8c-0.4,1.1-0.8,2.1-1.3,3.2
					c-0.2,0.4-0.2,0.8,0,1.1l1.9,2.7v0.2l-2.3,2.3h-0.2c0,0,0,0-0.2,0l-2.7-1.9c-0.4-0.2-0.8-0.2-1.1,0c-1,0.6-2.1,1-3.2,1.3
					c-0.4,0.2-0.8,0.4-0.8,0.8l-0.6,3.2c0,0.2-0.2,0.2-0.2,0.2h-3.2c-0.2,0-0.2,0-0.2-0.2l-0.6-3.2c0-0.4-0.4-0.8-0.8-0.8
					c-1.1-0.2-2.1-0.8-3.1-1.3c-0.2,0-0.4-0.2-0.6-0.2c-0.2,0-0.4,0-0.6,0.2l-2.7,1.9c0,0,0,0-0.2,0c0,0,0,0-0.2,0l-2.3-2.3v-0.2
					l1.9-2.7c0.2-0.4,0.2-0.8,0-1.1c-0.6-1-1-2.1-1.3-3.2c-0.2-0.4-0.4-0.8-0.8-0.8l-3.2-0.6c-0.2,0-0.2-0.2-0.2-0.2v-3.1
					c0-0.2,0-0.2,0.2-0.2l3.2-0.6c0.4,0,0.8-0.4,0.8-0.8c0.2-1.1,0.8-2.1,1.3-3.2c0.2-0.4,0.2-0.8,0-1.1l-1.9-2.7v-0.2l2.3-2.3h0.2
					c0,0,0,0,0.2,0l2.7,1.9c0.4,0.2,0.8,0.2,1.1,0c1-0.6,2.1-1,3.2-1.3c0.4-0.2,0.8-0.4,0.8-0.8l0.6-3.2c0-0.2,0.2-0.2,0.2-0.2h3.2
					c0.2,0,0.2,0,0.2,0.2l0.6,3.2c0,0.4,0.4,0.8,0.8,0.8c1.1,0.4,2.3,0.8,3.2,1.3c0.4,0.2,0.8,0.2,1.1,0l2.7-1.9c0,0,0,0,0.2,0
					c0,0,0,0,0.2,0l2.3,2.3V21l-1.9,2.7c-0.2,0.4-0.2,0.8,0,1.1c0.6,1,1,2.1,1.3,3.2c0.2,0.4,0.4,0.8,0.8,0.8l3.2,0.6
					c0.2,0,0.2,0.2,0.2,0.2L156.8,32.7L156.8,32.7z"/>
				<path class="st1" d="M140.5,23.3c-4.4,0-7.8,3.4-7.8,7.8s3.4,7.8,7.8,7.8c4.4,0,7.8-3.4,7.8-7.8S144.9,23.3,140.5,23.3z
					 M140.5,36.9c-3.2,0-5.7-2.7-5.7-5.7s2.7-5.7,5.7-5.7s5.7,2.7,5.7,5.7S143.8,36.9,140.5,36.9z"/>
			</g>
		</g>
		<g>
			<rect x="102.1" y="18.2" class="st1" width="3.8" height="20.8"/>
			<rect x="96.4" y="22" class="st1" width="3.8" height="17"/>
			<rect x="90.6" y="23.9" class="st1" width="3.8" height="15.1"/>
			<rect x="84.9" y="28.7" class="st1" width="3.8" height="10.5"/>
			<path class="st1" d="M96.4,7.6c-11.1,0-19.9,9-19.9,19.9c0,11.1,9,19.9,19.9,19.9s19.9-8.8,19.9-19.7
				C116.3,16.6,107.5,7.6,96.4,7.6z M96.4,45.5c-9.7,0-17.8-8-17.8-17.8s8-17.8,17.8-17.8s17.8,8,17.8,17.8S106.1,45.5,96.4,45.5z"
				/>
		</g>
	</g>
	<g id="Layer_5">
		<g>
			<rect x="2.7" y="74.6" width="30.6" height="4"/>
			<rect x="2.7" y="84.1" width="30.6" height="4"/>
			<rect x="2.7" y="93.7" width="30.6" height="4"/>
		</g>
	</g>
	<g id="Layer_6">
		<g>
			<rect x="41" y="67.1" width="9.7" height="9.7"/>
			<rect x="54.3" y="67.1" width="9.7" height="9.7"/>
			<rect x="67.7" y="67.1" width="9.7" height="9.7"/>
			<rect x="41" y="80.5" width="9.7" height="9.7"/>
			<rect x="54.3" y="80.5" width="9.7" height="9.7"/>
			<rect x="67.7" y="80.5" width="9.7" height="9.7"/>
			<rect x="41" y="93.9" width="9.7" height="9.7"/>
			<rect x="54.3" y="93.9" width="9.7" height="9.7"/>
			<rect x="67.7" y="93.9" width="9.7" height="9.7"/>
		</g>
	</g>
	<g id="Layer_11">
		<path d="M112.9,73c-0.5-2.3-2.5-4-4.9-4s-4.4,1.7-4.9,4H87v2h16.1c0.5,2.3,2.5,4,4.9,4s4.4-1.7,4.9-4h2.1v-2H112.9z M108,77
			c-1.7,0-3-1.3-3-3s1.3-3,3-3s3,1.3,3,3S109.7,77,108,77z"/>
		<path d="M89.1,97c0.5,2.3,2.5,4,4.9,4s4.4-1.7,4.9-4H115v-2H98.9c-0.5-2.3-2.5-4-4.9-4s-4.4,1.7-4.9,4H87v2H89.1z M94,93
			c1.7,0,3,1.3,3,3s-1.3,3-3,3s-3-1.3-3-3S92.3,93,94,93z"/>
		<path d="M96.1,86c0.5,2.3,2.5,4,4.9,4s4.4-1.7,4.9-4h9.1v-2h-9.1c-0.5-2.3-2.5-4-4.9-4s-4.4,1.7-4.9,4H87v2H96.1z M101,82
			c1.7,0,3,1.3,3,3s-1.3,3-3,3s-3-1.3-3-3S99.3,82,101,82z"/>
	</g>
	<g id="Layer_14">
		<path d="M223.7,31.4c0-16.8-13.6-30.4-30.4-30.4S163,14.6,163,31.4c0,8.8,3.8,16.8,9.9,22.4l0,0l1,0.8l0.2,0.2
			c0.6,0.4,1.1,0.8,1.5,1.3c0.2,0.2,0.4,0.2,0.6,0.4c0.6,0.4,1.1,0.8,1.7,1.1c0.2,0,0.2,0.2,0.4,0.2c0.8,0.4,1.3,0.8,2.1,1.1h0.2
			c2.3,1.1,4.8,1.9,7.3,2.3h0.2c0.8,0.2,1.5,0.2,2.5,0.4c0.2,0,0.2,0,0.4,0c0.8,0,1.7,0.2,2.5,0.2c0.8,0,1.7,0,2.5-0.2
			c0.2,0,0.2,0,0.4,0c0.8,0,1.5-0.2,2.5-0.4h0.2c2.5-0.4,5-1.1,7.3-2.3c0,0,0.2,0,0.2-0.2c0.8-0.4,1.3-0.6,1.9-1
			c0.2,0,0.4-0.2,0.6-0.2c0.6-0.4,1.1-0.8,1.7-1.1c0.2-0.2,0.4-0.2,0.6-0.4c0.6-0.4,1-0.8,1.3-1.1c0.2,0,0.2-0.2,0.4-0.2l1-0.8l0,0
			C219.9,48.5,223.7,40.4,223.7,31.4z M165.3,31.4c0-15.5,12.6-28.1,28.1-28.1c15.5,0,28.1,12.6,28.1,28.1c0,8.4-3.6,15.9-9.6,21
			c-0.4-0.2-0.6-0.4-1-0.6l-9.4-4.6c-0.8-0.4-1.3-1.3-1.3-2.3v-3.2c0.2-0.2,0.4-0.6,0.8-1c1.1-1.7,2.1-3.6,2.9-5.7
			c1.3-0.6,2.3-2.1,2.3-3.6v-3.8c0-1-0.4-1.9-1-2.7v-5.2c0-0.6,0.2-3.8-2.1-6.5c-2.1-2.3-5.4-3.4-9.7-3.4c-4.4,0-7.8,1.1-9.7,3.4
			c-2.3,2.7-2.1,5.9-2.1,6.5v5.2c-0.6,0.8-1,1.7-1,2.7v3.8c0,1.1,0.6,2.3,1.5,3.1c1,3.4,2.7,6.1,3.4,7.1v3.2c0,1-0.6,1.7-1.3,2.1
			l-8.8,4.8c-0.2,0.2-0.6,0.4-0.8,0.6C168.9,47.3,165.3,39.9,165.3,31.4z M210,54.2c-0.4,0.2-0.8,0.6-1.1,0.8
			c-0.2,0.2-0.4,0.2-0.6,0.4c-0.6,0.4-1,0.6-1.5,1c-0.2,0-0.2,0.2-0.4,0.2c-1.3,0.6-2.5,1.1-3.8,1.7c0,0,0,0-0.2,0
			c-0.8,0.2-1.3,0.4-2.1,0.6l0,0c-0.8,0.2-1.5,0.4-2.1,0.4l0,0c-0.8,0.2-1.3,0.2-2.1,0.2c-0.2,0-0.2,0-0.4,0c-0.8,0-1.3,0-2.1,0
			c-0.8,0-1.3,0-2.1,0c-0.2,0-0.2,0-0.4,0c-0.8,0-1.3-0.2-2.1-0.2l0,0c-1.5-0.2-2.9-0.6-4.2-1.1c0,0,0,0-0.2,0
			c-0.8-0.2-1.3-0.6-2.1-0.8l0,0c-0.6-0.2-1.3-0.6-1.9-1c0,0-0.2,0-0.2-0.2c-0.6-0.4-1.1-0.6-1.7-1c-0.2-0.2-0.4-0.2-0.6-0.4
			c-0.6-0.4-1-0.8-1.5-1c0,0-0.2,0-0.2-0.2c0,0,0,0,0.2,0l8.8-4.8c1.5-0.8,2.5-2.5,2.5-4v-4l-0.2-0.4c0,0-2.5-2.9-3.2-6.9l-0.2-0.4
			l-0.4-0.2c-0.6-0.4-0.8-1-0.8-1.5v-3.8c0-0.6,0.2-1,0.6-1.3l0.4-0.4v-6.1v-0.2c0,0-0.4-2.7,1.5-4.8c1.5-1.9,4.4-2.7,8.2-2.7
			s6.5,1,8,2.7c1.9,2.1,1.5,4.8,1.5,4.8v6.3l0.4,0.4c0.4,0.4,0.6,0.8,0.6,1.3v3.8c0,0.8-0.6,1.5-1.3,1.7l-0.6,0.2l-0.2,0.6
			c-0.6,2.1-1.5,3.8-2.7,5.5c-0.4,0.4-0.6,0.8-0.8,1l-0.2,0.4v4c0,1.7,1,3.4,2.7,4.2l9.4,4.6h0.2C210.2,54.2,210.2,54.2,210,54.2z"
			/>
	</g>
	<g id="Layer_15">
		<g>
			<path class="st4" d="M311,23.2c-4-4-10.3-4-14.3,0s-4,10.3,0,14.3c3.4,3.4,9,3.8,13,1.1c0,0.4,0.2,0.8,0.6,1.1l5.7,5.7
				c0.8,0.8,2.1,0.8,3.1,0c0.8-0.8,0.8-2.1,0-3.1l-5.7-5.7c-0.4-0.4-0.8-0.6-1.1-0.6C314.8,32.2,314.4,26.6,311,23.2z M309.2,35.8
				c-2.9,2.9-7.8,2.9-10.7,0c-2.9-2.9-2.9-7.8,0-10.7c2.9-2.9,7.8-2.9,10.7,0C312.1,28,312.1,32.8,309.2,35.8z"/>
		</g>
	</g>
	<g id="Layer_19">
		<path class="st3" d="M252,241.1H4.3c-0.8,0-1.5,0-2.3,0.2c0.2,0,0.4,0,0.6,0c142.4,0,258,115.4,258,258c0,0.8,0,1.3,0,2.1
			c0.4-1.1,0.6-2.3,0.6-3.6V252.3C261.2,245.1,257.4,241.1,252,241.1z"/>
	</g>
	<g id="Layer_20">
		<polygon class="st5" points="229.3,265.3 209,285.6 201.2,277.7 194.9,283.9 209,298 235.6,271.4 		"/>
	</g>
	<g>
		<g>
			<path d="M256.2,73.4c-1.7-2.1-4.2-3.2-7.1-3.2c-3.8,0-6.3,2.3-7.6,4.2c-0.4,0.6-0.6,1-1,1.5c-0.2-0.4-0.6-1-1-1.5
				c-1.3-1.9-3.8-4.2-7.6-4.2c-2.5,0.2-5,1.3-6.9,3.2c-1.7,1.9-2.7,4.6-2.7,7.3c0,3.1,1.1,5.9,3.6,8.8c2.3,2.7,5.5,5.5,9.4,8.8
				c1.3,1.1,2.9,2.5,4.4,3.8l0,0c0.2,0.2,0.4,0.2,0.8,0.2s0.6,0,0.8-0.2l0,0c1.5-1.3,3.1-2.7,4.4-3.8c3.8-3.2,7.1-5.9,9.4-8.8
				c2.5-3.1,3.6-5.9,3.6-8.8C258.9,78,257.9,75.5,256.2,73.4z M244.4,96.7c-1.1,1-2.5,2.1-3.8,3.2c-1.3-1.1-2.5-2.3-3.8-3.2
				c-7.5-6.3-12.2-10.5-12.2-15.9c0-2.3,0.8-4.4,2.1-5.9c1.3-1.5,3.2-2.5,5.4-2.5c2.9,0,4.8,1.7,5.9,3.2c1,1.3,1.5,2.7,1.7,3.2
				c0.2,0.4,0.6,0.8,1,0.8s1-0.4,1-0.8c0.2-0.6,0.8-1.9,1.7-3.2c1.1-1.5,3.1-3.2,5.9-3.2c2.1,0,4,1,5.4,2.5c1.3,1.5,2.1,3.6,2.1,5.9
				C256.8,86.2,251.8,90.4,244.4,96.7z"/>
		</g>
	</g>
	<g>
		<g>
			<path class="st6" d="M249.3,115c-1.9,0-3.8,0.6-5.4,1.9c-1.5,1.1-2.5,2.7-3.2,3.8c-0.6-1.1-1.5-2.7-3.2-3.8
				c-1.5-1.1-3.4-1.9-5.4-1.9c-5.5,0-9.7,4.6-9.7,10.5c0,6.5,5.2,10.9,13,17.6c1.3,1.1,2.9,2.5,4.4,3.8c0.2,0.2,0.4,0.2,0.8,0.2
				c0.2,0,0.6-0.2,0.8-0.2c1.5-1.3,3.1-2.7,4.4-3.8c7.8-6.7,13-11.1,13-17.6C259.1,119.4,254.9,115,249.3,115z"/>
		</g>
	</g>
	<g>
		<path d="M156.2,217c-1.9-2.5-4.2-4.4-7.1-5.7c-2.7-1.3-5.7-2.1-8.8-2.1c0,0-0.4,0-0.6,0c-3.1,0-6.1,0.8-8.8,2.1
			c-2.7,1.3-5.2,3.2-7.1,5.7c-0.8,1-0.8,2.3,0,3.1c1.9,2.5,4.2,4.4,7.1,5.7c2.7,1.3,5.7,2.1,8.8,2.1c0,0,0.4,0,0.6,0
			c3.1,0,6.1-0.8,8.8-2.1c2.7-1.3,5.2-3.2,7.1-5.7C157,219.3,157,218,156.2,217z M131.8,224.7c-2.5-1.3-4.8-3.1-6.5-5.4
			c-0.4-0.4-0.4-1,0-1.5c1.7-2.3,4-4,6.5-5.4c0.8-0.4,1.5-0.6,2.1-1c-1.9,1.7-3.1,4.2-3.1,7.1c0,2.9,1.1,5.4,3.1,7.1
			C133.1,225.4,132.5,225,131.8,224.7z M140.2,226.6c-4.4,0-8-3.6-8-8c0-4.4,3.6-8,8-8c4.4,0,8,3.6,8,8
			C148.2,222.9,144.8,226.6,140.2,226.6z M155.3,219.3c-1.7,2.3-4,4-6.5,5.4c-0.8,0.4-1.5,0.6-2.1,1c1.9-1.7,3.1-4.2,3.1-7.1
			c0-2.9-1.1-5.4-3.1-7.1c0.8,0.2,1.5,0.6,2.1,1c2.5,1.3,4.8,3.1,6.5,5.4C155.5,218.3,155.5,218.9,155.3,219.3z"/>
		<path d="M140.2,215.1c-1.9,0-3.4,1.5-3.4,3.4c0,1.9,1.5,3.4,3.4,3.4c1.9,0,3.4-1.5,3.4-3.4C143.6,216.6,142.1,215.1,140.2,215.1z
			 M140.2,220.6c-1.1,0-2.1-1-2.1-2.1c0-1.1,1-2.1,2.1-2.1c1.1,0,2.1,1,2.1,2.1C142.3,219.7,141.3,220.6,140.2,220.6z"/>
	</g>
	<path d="M201.1,217.5c-0.6-0.6-0.6-1.3,0-1.9c0.6-0.6,1.3-0.6,1.9,0l6.3,6.7v-17.4c0-0.8,0.6-1.3,1.3-1.3s1.3,0.6,1.3,1.3v17.4
		l6.7-6.7c0.6-0.6,1.3-0.6,1.9,0c0.6,0.6,0.6,1.3,0,1.9l-9,9c-0.6,0.6-1.3,0.6-1.9,0L201.1,217.5z"/>
	<g>
		<path d="M153.5,88.2l-13.7-13.8c-0.8-0.8-1.5-1.1-2.5-1.1h-0.2l-9.4,0.6c-1.6-0.1-1.9,1-1.9,1.9l-0.2,3.4c-3.6-2.7-3.2-6.8-2.2-8
			c2-2.4,4.8,0,5.7,1.3c0.6,0.9,2.1,0.5,1.4-0.8c-0.9-1.6-2.5-2.7-4-3.1c-1.7-0.5-6,0.2-5.4,6c0.3,3.1,2.7,5.6,4.3,6.2l-0.2,4.5
			c0,1,0.4,2.1,1.1,2.9l13,13c2,1.8,3.9,1.8,6.1,0l7.5-7.5C154.5,92.1,155.3,90.1,153.5,88.2z M151.6,92.3l-7.5,7.5
			c-1,0.7-1.9,1.5-4-0.2l-13-13c-0.4-0.4-0.6-1-0.6-1.5l0.2-3.8c1.6,0.1,3.1-0.1,4.4-1.9c0.6-0.8-0.6-1.8-1.1-0.9
			c-0.5,1.1-1.5,1.9-3.3,1.4l0.2-4.1c0-0.2,0.2-0.2,0.4-0.4l9.4-0.6c0,0,0,0,0.2,0c0.6,0,1,0.2,1.3,0.6l13,13
			C153,90,152.8,91.1,151.6,92.3z"/>
	</g>
	<g id="Layer_5_1_">
		<g>
			<rect x="2.7" y="120.4" class="st7" width="30.6" height="4"/>
			<rect x="2.7" y="130" class="st7" width="30.6" height="4"/>
			<rect x="2.7" y="139.5" class="st7" width="30.6" height="4"/>
		</g>
	</g>
	<g id="Layer_6_1_">
		<g>
			<rect x="41" y="113" class="st7" width="9.7" height="9.7"/>
			<rect x="54.3" y="113" class="st7" width="9.7" height="9.7"/>
			<rect x="67.7" y="113" class="st7" width="9.7" height="9.7"/>
			<rect x="41" y="126.4" class="st7" width="9.7" height="9.7"/>
			<rect x="54.3" y="126.4" class="st7" width="9.7" height="9.7"/>
			<rect x="67.7" y="126.4" class="st7" width="9.7" height="9.7"/>
			<rect x="41" y="139.7" class="st7" width="9.7" height="9.7"/>
			<rect x="54.3" y="139.7" class="st7" width="9.7" height="9.7"/>
			<rect x="67.7" y="139.7" class="st7" width="9.7" height="9.7"/>
		</g>
	</g>
	<g>
		<path class="st7" d="M153.5,134.1l-13.7-13.8c-0.8-0.8-1.5-1.1-2.5-1.1h-0.2l-9.4,0.6c-1.6-0.1-1.9,1-1.9,1.9l-0.2,3.4
			c-3.6-2.7-3.2-6.8-2.2-8c2-2.4,4.8,0,5.7,1.3c0.6,0.9,2.1,0.5,1.4-0.8c-0.9-1.6-2.5-2.7-4-3.1c-1.7-0.5-6,0.2-5.4,6
			c0.3,3.1,2.7,5.6,4.3,6.2l-0.2,4.5c0,1,0.4,2.1,1.1,2.9l13,13c2,1.8,3.9,1.8,6.1,0l7.5-7.5C154.5,138,155.3,136,153.5,134.1z
			 M151.6,138.2l-7.5,7.5c-1,0.7-1.9,1.5-4-0.2l-13-13c-0.4-0.4-0.6-1-0.6-1.5l0.2-3.8c1.6,0.1,3.1-0.1,4.4-1.9
			c0.6-0.8-0.6-1.8-1.1-0.9c-0.5,1.1-1.5,1.9-3.3,1.4l0.2-4.1c0-0.2,0.2-0.2,0.4-0.4l9.4-0.6c0,0,0,0,0.2,0c0.6,0,1,0.2,1.3,0.6
			l13,13C153,135.9,152.8,137,151.6,138.2z"/>
	</g>
	<g id="Layer_20_1_">
		<polygon class="st1" points="228.3,265.3 208,285.6 200.2,277.7 193.9,283.9 208,298 234.6,271.4 		"/>
	</g>
	<path class="st4" d="M203.2,96.6"/>
	<path class="st7" d="M203.2,142.5"/>
	<g id="Layer_19_1_">
		<linearGradient id="SVGID_1_" gradientUnits="userSpaceOnUse" x1="130.9291" y1="637.3287" x2="258.6371" y2="509.6207">
			<stop  offset="0" style="stop-color:#2977C4"/>
			<stop  offset="1" style="stop-color:#3F9CF8"/>
		</linearGradient>
		<path class="st8" d="M252,506.7H4.3c-0.8,0-1.5,0-2.3,0.2c0.2,0,0.4,0,0.6,0c142.4,0,258,115.4,258,258c0,0.8,0,1.3,0,2.1
			c0.4-1.1,0.6-2.3,0.6-3.6V518C261.2,510.7,257.4,506.7,252,506.7z"/>
	</g>
	<g id="Layer_20_3_">
		<polygon class="st5" points="229.3,531 209,551.2 201.2,543.4 194.9,549.5 209,563.7 235.6,537.1 		"/>
	</g>
	<g id="Layer_20_2_">
		<polygon class="st1" points="228.3,531 208,551.2 200.2,543.4 193.9,549.5 208,563.7 234.6,537.1 		"/>
	</g>
	<g>
		<g id="trash">
			<path d="M446,77.2c-0.1-1.5-1.3-2.7-2.9-2.7h-2.9v-1v0c0-1.6-1.3-2.9-2.9-2.9h-9.6c-1.6,0-2.9,1.3-2.9,2.9v0v1H422
				c-1.5,0-2.8,1.2-2.9,2.7h0v1.1v1c0,1.1,0.9,1.9,1.9,1.9l0,0v16.3c0,2.1,1.7,3.8,3.8,3.8h15.4c2.1,0,3.8-1.7,3.8-3.8V81.2l0,0
				c1.1,0,1.9-0.9,1.9-1.9v-1L446,77.2L446,77.2z M426.8,73.5c0-0.5,0.4-1,1-1h9.6c0.5,0,1,0.4,1,1v1h-11.5V73.5z M442.2,97.6
				c0,1.1-0.9,1.9-1.9,1.9h-15.4c-1.1,0-1.9-0.9-1.9-1.9V81.2h19.2V97.6z M444.1,78.3v1H421v-1v-1c0-0.5,0.4-1,1-1h21.2
				c0.5,0,1,0.4,1,1V78.3z"/>
			<path d="M425.8,97.6h1.9c0.5,0,1-0.4,1-1V84.1c0-0.5-0.4-1-1-1h-1.9c-0.5,0-1,0.4-1,1v12.5C424.8,97.1,425.3,97.6,425.8,97.6z
				 M425.8,84.1h1.9v12.5h-1.9V84.1z"/>
			<path d="M431.6,97.6h1.9c0.5,0,1-0.4,1-1V84.1c0-0.5-0.4-1-1-1h-1.9c-0.5,0-1,0.4-1,1v12.5C430.6,97.1,431,97.6,431.6,97.6z
				 M431.6,84.1h1.9v12.5h-1.9V84.1z"/>
			<path d="M437.3,97.6h1.9c0.5,0,1-0.4,1-1V84.1c0-0.5-0.4-1-1-1h-1.9c-0.5,0-1,0.4-1,1v12.5C436.4,97.1,436.8,97.6,437.3,97.6z
				 M437.3,84.1h1.9v12.5h-1.9V84.1z"/>
		</g>
	</g>
	<g>
		<path d="M406.3,89.9c-1.8,0-3.3,0.8-4.3,2.1l-8.4-4.7c0.2-0.6,0.3-1.2,0.3-1.8c0-0.6-0.1-1.2-0.3-1.8l8.4-4.7
			c1,1.3,2.6,2.1,4.3,2.1c3,0,5.4-2.4,5.4-5.4c0-3-2.4-5.4-5.4-5.4s-5.4,2.4-5.4,5.4c0,0.6,0.1,1.2,0.3,1.8l-8.3,4.7
			c-1-1.3-2.6-2.1-4.3-2.1c-3,0-5.4,2.4-5.4,5.4s2.4,5.4,5.4,5.4c1.8,0,3.3-0.8,4.3-2.1l8.4,4.7c-0.2,0.6-0.3,1.2-0.3,1.8
			c0,3,2.4,5.4,5.4,5.4s5.4-2.4,5.4-5.4C411.8,92.3,409.3,89.9,406.3,89.9z M406.3,72c2.1,0,3.7,1.7,3.7,3.7c0,2.1-1.7,3.7-3.7,3.7
			s-3.7-1.7-3.7-3.7C402.6,73.7,404.3,72,406.3,72z M388.5,89.3c-2.1,0-3.7-1.7-3.7-3.7s1.7-3.7,3.7-3.7s3.7,1.7,3.7,3.7
			S390.6,89.3,388.5,89.3z M406.3,99c-2.1,0-3.7-1.7-3.7-3.7c0-2.1,1.7-3.7,3.7-3.7s3.7,1.7,3.7,3.7C410.1,97.4,408.4,99,406.3,99z"
			/>
	</g>
	<g>
		<g id="Pencil">
			<g>
				<path d="M339.9,74.7c-1.1-1.1-2.5-1.7-4-1.7c-1.5,0-2.9,0.6-4,1.7l-17.1,17c-0.1,0.1-0.2,0.2-0.2,0.4l-3.9,10.7
					c-0.1,0.3,0,0.7,0.2,1c0.2,0.2,0.4,0.3,0.7,0.3c0.1,0,0.2,0,0.3,0l9.6-3c0.2,0,0.3-0.1,0.4-0.2l18-18c1.1-1.1,1.7-2.5,1.7-4
					C341.6,77.2,341,75.7,339.9,74.7z M320.3,99.3l-3.6,1.1c-0.2-0.6-0.5-1.2-1-1.6c-0.4-0.4-0.8-0.7-1.3-0.9l1.7-4.5h2.2v1.9
					c0,0.5,0.4,1,1,1h1.7L320.3,99.3z M334.6,85.3l-11.8,11.8l0.3-1.6c0.1-0.3,0-0.6-0.2-0.8c-0.2-0.2-0.5-0.4-0.8-0.4h-1.9v-1.9
					c0-0.5-0.4-1-1-1h-1.5L329.3,80l0,0c0.7-0.7,1.7-1.1,2.7-1.1s1.9,0.4,2.7,1.1c0.7,0.7,1.1,1.7,1.1,2.7S335.3,84.6,334.6,85.3z
					 M338.5,81.4l-0.9,0.9c-0.1-1.4-0.7-2.7-1.6-3.7c-1-1-2.3-1.6-3.7-1.6l0.9-0.9l0,0c0.7-0.7,1.7-1.1,2.7-1.1s1.9,0.4,2.7,1.1
					c0.7,0.7,1.1,1.7,1.1,2.7C339.6,79.7,339.2,80.6,338.5,81.4z M332.1,81l-9.7,9.7c-0.4,0.4-0.4,1,0,1.4c0.2,0.2,0.4,0.3,0.7,0.3
					c0.2,0,0.5-0.1,0.7-0.3l9.7-9.7c0.4-0.4,0.4-1,0-1.4C333.1,80.7,332.5,80.7,332.1,81z"/>
			</g>
		</g>
	</g>
	<g>
		<g>
			<path d="M377.3,89.3c-0.7,0-1.2,0.5-1.2,1.2v3.2c0,3-0.2,5.4-3.2,5.4h-18.6c-3,0-5.4-2.4-5.4-5.4v-3.3c0-0.7-0.5-1.2-1.2-1.2
				c-0.7,0-1.2,0.5-1.2,1.2v3.3c0,4.3,3.5,7.8,7.8,7.8H373c4.3,0,5.6-3.5,5.6-7.8v-3.2C378.5,89.8,378,89.3,377.3,89.3z"/>
			<path d="M361.7,94.7c0.2,0.2,0.5,0.4,0.8,0.4c0.3,0,0.6-0.1,0.8-0.4L371,87c0.5-0.5,0.5-1.2,0-1.7s-1.2-0.5-1.7,0l-5.6,5.6V72.1
				c0-0.7-0.5-1.2-1.2-1.2c-0.7,0-1.2,0.5-1.2,1.2v18.8l-5.6-5.6c-0.5-0.5-1.2-0.5-1.7,0c-0.5,0.5-0.5,1.2,0,1.7L361.7,94.7z"/>
		</g>
	</g>
	<g>
		<path d="M68.2,159.2H33.7c-0.6,0-1.3,0.6-1.3,1.3v31.1c0,0.6,0.6,1.3,1.3,1.3h34.5c0.6,0,1.3-0.6,1.3-1.3v-31.1
			C69.5,159.9,68.9,159.2,68.2,159.2z M66.9,161.6v24.8l-5.4-7.6c-0.4-0.4-1.3-0.4-1.7,0l-4.5,4.5l-10.6-8.6c-0.4-0.4-1.3-0.4-1.7,0
			l-8,10.1v-23.3H66.9z M34.8,190.3v-1.9l8.9-11l14.9,13H34.8z M62,190.3L62,190.3l-5.2-5.2l3.9-3.9l6,8.2l0.2,0.2v0.4h-5V190.3z"/>
		<path d="M49.9,171.1c2.4,0,4.3-1.9,4.3-4.3c0-2.4-1.9-4.3-4.3-4.3s-4.3,1.9-4.3,4.3C45.6,169.2,47.5,171.1,49.9,171.1z M49.9,164
			c1.5,0,2.8,1.3,2.8,2.8c0,1.5-1.3,2.8-2.8,2.8s-2.8-1.3-2.8-2.8C47.1,165.3,48.4,164,49.9,164z"/>
	</g>
	<g>
		<path d="M302,181.2c-0.4-0.4-1-0.4-1.4,0l-4.7,4.7v-18.4c0-0.6-0.5-1-1-1c-0.6,0-1,0.5-1,1v18.4l-4.7-4.7c-0.4-0.4-1-0.4-1.4,0
			c-0.4,0.4-0.4,1,0,1.4l6.5,6.5c0.2,0.2,0.5,0.3,0.7,0.3c0.3,0,0.5-0.1,0.7-0.3l6.5-6.5C302.4,182.2,302.4,181.6,302,181.2z"/>
		<path d="M282,170.1h7.2c0.7,0,1.2-0.5,1.2-1.2c0-0.7-0.5-1.2-1.2-1.2H282c-0.7,0-1.2,0.5-1.2,1.2
			C280.8,169.6,281.4,170.1,282,170.1z"/>
		<path d="M282,174.9h7.2c0.7,0,1.2-0.5,1.2-1.2c0-0.7-0.5-1.2-1.2-1.2H282c-0.7,0-1.2,0.5-1.2,1.2
			C280.8,174.4,281.4,174.9,282,174.9z"/>
		<path d="M290.4,178.5c0-0.7-0.5-1.2-1.2-1.2H282c-0.7,0-1.2,0.5-1.2,1.2c0,0.7,0.5,1.2,1.2,1.2h7.2
			C289.8,179.7,290.4,179.1,290.4,178.5z"/>
	</g>
	<g>
		<path d="M315.9,174.8c0.4,0.4,1,0.4,1.4,0l4.7-4.7v18.4c0,0.6,0.5,1,1,1c0.6,0,1-0.5,1-1V170l4.7,4.7c0.4,0.4,1,0.4,1.4,0
			c0.4-0.4,0.4-1,0-1.4l-6.5-6.5c-0.2-0.2-0.5-0.3-0.7-0.3c-0.3,0-0.5,0.1-0.7,0.3l-6.5,6.5C315.5,173.7,315.5,174.4,315.9,174.8z"
			/>
		<path d="M310.3,179.7h7.2c0.7,0,1.2-0.5,1.2-1.2c0-0.7-0.5-1.2-1.2-1.2h-7.2c-0.7,0-1.2,0.5-1.2,1.2
			C309.1,179.1,309.6,179.7,310.3,179.7z"/>
		<path d="M310.3,184.4h7.2c0.7,0,1.2-0.5,1.2-1.2c0-0.7-0.5-1.2-1.2-1.2h-7.2c-0.7,0-1.2,0.5-1.2,1.2
			C309.1,183.9,309.6,184.4,310.3,184.4z"/>
		<path d="M318.7,188c0-0.7-0.5-1.2-1.2-1.2h-7.2c-0.7,0-1.2,0.5-1.2,1.2c0,0.7,0.5,1.2,1.2,1.2h7.2
			C318.1,189.2,318.7,188.7,318.7,188z"/>
	</g>
	<g id="Layer_14_1_">
		<path class="st7" d="M286.8,31.4c0-16.8-13.6-30.4-30.4-30.4c-16.8,0-30.4,13.6-30.4,30.4c0,8.8,3.8,16.8,9.9,22.4l0,0l1,0.8
			l0.2,0.2c0.6,0.4,1.1,0.8,1.5,1.3c0.2,0.2,0.4,0.2,0.6,0.4c0.6,0.4,1.1,0.8,1.7,1.1c0.2,0,0.2,0.2,0.4,0.2
			c0.8,0.4,1.3,0.8,2.1,1.1h0.2c2.3,1.1,4.8,1.9,7.3,2.3h0.2c0.8,0.2,1.5,0.2,2.5,0.4c0.2,0,0.2,0,0.4,0c0.8,0,1.7,0.2,2.5,0.2
			s1.7,0,2.5-0.2c0.2,0,0.2,0,0.4,0c0.8,0,1.5-0.2,2.5-0.4h0.2c2.5-0.4,5-1.1,7.3-2.3c0,0,0.2,0,0.2-0.2c0.8-0.4,1.3-0.6,1.9-1
			c0.2,0,0.4-0.2,0.6-0.2c0.6-0.4,1.1-0.8,1.7-1.1c0.2-0.2,0.4-0.2,0.6-0.4c0.6-0.4,1-0.8,1.3-1.1c0.2,0,0.2-0.2,0.4-0.2l1-0.8l0,0
			C283,48.5,286.8,40.4,286.8,31.4z M228.3,31.4c0-15.5,12.6-28.1,28.1-28.1c15.5,0,28.1,12.6,28.1,28.1c0,8.4-3.6,15.9-9.6,21
			c-0.4-0.2-0.6-0.4-1-0.6l-9.4-4.6c-0.8-0.4-1.3-1.3-1.3-2.3v-3.2c0.2-0.2,0.4-0.6,0.8-1c1.1-1.7,2.1-3.6,2.9-5.7
			c1.3-0.6,2.3-2.1,2.3-3.6v-3.8c0-1-0.4-1.9-1-2.7v-5.2c0-0.6,0.2-3.8-2.1-6.5c-2.1-2.3-5.4-3.4-9.7-3.4c-4.4,0-7.8,1.1-9.7,3.4
			c-2.3,2.7-2.1,5.9-2.1,6.5v5.2c-0.6,0.8-1,1.7-1,2.7v3.8c0,1.1,0.6,2.3,1.5,3.1c1,3.4,2.7,6.1,3.4,7.1v3.2c0,1-0.6,1.7-1.3,2.1
			l-8.8,4.8c-0.2,0.2-0.6,0.4-0.8,0.6C232,47.3,228.3,39.9,228.3,31.4z M273,54.2c-0.4,0.2-0.8,0.6-1.1,0.8
			c-0.2,0.2-0.4,0.2-0.6,0.4c-0.6,0.4-1,0.6-1.5,1c-0.2,0-0.2,0.2-0.4,0.2c-1.3,0.6-2.5,1.1-3.8,1.7c0,0,0,0-0.2,0
			c-0.8,0.2-1.3,0.4-2.1,0.6l0,0c-0.8,0.2-1.5,0.4-2.1,0.4l0,0c-0.8,0.2-1.3,0.2-2.1,0.2c-0.2,0-0.2,0-0.4,0c-0.8,0-1.3,0-2.1,0
			c-0.8,0-1.3,0-2.1,0c-0.2,0-0.2,0-0.4,0c-0.8,0-1.3-0.2-2.1-0.2l0,0c-1.5-0.2-2.9-0.6-4.2-1.1c0,0,0,0-0.2,0
			c-0.8-0.2-1.3-0.6-2.1-0.8l0,0c-0.6-0.2-1.3-0.6-1.9-1c0,0-0.2,0-0.2-0.2c-0.6-0.4-1.1-0.6-1.7-1c-0.2-0.2-0.4-0.2-0.6-0.4
			c-0.6-0.4-1-0.8-1.5-1c0,0-0.2,0-0.2-0.2c0,0,0,0,0.2,0l8.8-4.8c1.5-0.8,2.5-2.5,2.5-4v-4l-0.2-0.4c0,0-2.5-2.9-3.2-6.9l-0.2-0.4
			l-0.4-0.2c-0.6-0.4-0.8-1-0.8-1.5v-3.8c0-0.6,0.2-1,0.6-1.3l0.4-0.4v-6.1v-0.2c0,0-0.4-2.7,1.5-4.8c1.5-1.9,4.4-2.7,8.2-2.7
			c3.8,0,6.5,1,8,2.7c1.9,2.1,1.5,4.8,1.5,4.8v6.3l0.4,0.4c0.4,0.4,0.6,0.8,0.6,1.3v3.8c0,0.8-0.6,1.5-1.3,1.7l-0.6,0.2l-0.2,0.6
			c-0.6,2.1-1.5,3.8-2.7,5.5c-0.4,0.4-0.6,0.8-0.8,1l-0.2,0.4v4c0,1.7,1,3.4,2.7,4.2l9.4,4.6h0.2C273.2,54.2,273.2,54.2,273,54.2z"
			/>
	</g>
	<g id="Layer_15_1_">
		<g>
			<path d="M341.5,23.2c-4-4-10.3-4-14.3,0c-4,4-4,10.3,0,14.3c3.4,3.4,9,3.8,13,1.1c0,0.4,0.2,0.8,0.6,1.1l5.7,5.7
				c0.8,0.8,2.1,0.8,3.1,0c0.8-0.8,0.8-2.1,0-3.1l-5.7-5.7c-0.4-0.4-0.8-0.6-1.1-0.6C345.4,32.2,345,26.6,341.5,23.2z M339.8,35.8
				c-2.9,2.9-7.8,2.9-10.7,0s-2.9-7.8,0-10.7s7.8-2.9,10.7,0C342.7,28,342.7,32.8,339.8,35.8z"/>
		</g>
	</g>
	<g>
		<path class="st7" d="M192.5,217c-1.9-2.5-4.2-4.4-7.1-5.7c-2.7-1.3-5.7-2.1-8.8-2.1c0,0-0.4,0-0.6,0c-3.1,0-6.1,0.8-8.8,2.1
			c-2.7,1.3-5.2,3.2-7.1,5.7c-0.8,1-0.8,2.3,0,3.1c1.9,2.5,4.2,4.4,7.1,5.7c2.7,1.3,5.7,2.1,8.8,2.1c0,0,0.4,0,0.6,0
			c3.1,0,6.1-0.8,8.8-2.1c2.7-1.3,5.2-3.2,7.1-5.7C193.3,219.3,193.3,218,192.5,217z M168.1,224.7c-2.5-1.3-4.8-3.1-6.5-5.4
			c-0.4-0.4-0.4-1,0-1.5c1.7-2.3,4-4,6.5-5.4c0.8-0.4,1.5-0.6,2.1-1c-1.9,1.7-3.1,4.2-3.1,7.1c0,2.9,1.1,5.4,3.1,7.1
			C169.4,225.4,168.8,225,168.1,224.7z M176.5,226.6c-4.4,0-8-3.6-8-8c0-4.4,3.6-8,8-8s8,3.6,8,8
			C184.5,222.9,181.1,226.6,176.5,226.6z M191.6,219.3c-1.7,2.3-4,4-6.5,5.4c-0.8,0.4-1.5,0.6-2.1,1c1.9-1.7,3.1-4.2,3.1-7.1
			c0-2.9-1.1-5.4-3.1-7.1c0.8,0.2,1.5,0.6,2.1,1c2.5,1.3,4.8,3.1,6.5,5.4C191.8,218.3,191.8,218.9,191.6,219.3z"/>
		<path class="st7" d="M176.5,215.1c-1.9,0-3.4,1.5-3.4,3.4c0,1.9,1.5,3.4,3.4,3.4s3.4-1.5,3.4-3.4
			C179.9,216.6,178.4,215.1,176.5,215.1z M176.5,220.6c-1.1,0-2.1-1-2.1-2.1c0-1.1,1-2.1,2.1-2.1c1.1,0,2.1,1,2.1,2.1
			C178.6,219.7,177.6,220.6,176.5,220.6z"/>
	</g>
	<g>
		<g>
			<path d="M301.4,208h-11.3c-1.1,0-1.9,0.9-1.9,1.9v16.2c0,1.1,0.9,1.9,1.9,1.9h11.3c1.1,0,1.9-0.9,1.9-1.9v-16.2
				C303.4,208.8,302.5,208,301.4,208z M302,226.1c0,0.3-0.3,0.6-0.6,0.6h-11.3c-0.3,0-0.6-0.3-0.6-0.6v-16.2c0-0.3,0.3-0.6,0.6-0.6
				h11.3c0.3,0,0.6,0.3,0.6,0.6V226.1z"/>
			<path d="M305.8,203.7h-11.3c-1.1,0-1.9,0.9-1.9,1.9c0,0.4,0.3,0.7,0.7,0.7s0.7-0.3,0.7-0.7c0-0.3,0.3-0.6,0.6-0.6h11.3
				c0.3,0,0.6,0.3,0.6,0.6v16.2c0,0.3-0.3,0.6-0.6,0.6c-0.4,0-0.7,0.3-0.7,0.7c0,0.4,0.3,0.7,0.7,0.7c1.1,0,1.9-0.9,1.9-1.9v-16.2
				C307.7,204.6,306.8,203.7,305.8,203.7z"/>
		</g>
	</g>
	<g>
		<g>
			<path d="M239.8,203.7c-6.7,0-12.2,5.5-12.2,12.2c0,6.7,5.5,12.2,12.2,12.2s12.2-5.5,12.2-12.2
				C251.9,209.2,246.4,203.7,239.8,203.7z M239.8,226.5c-5.9,0-10.7-4.8-10.7-10.7c0-5.9,4.8-10.7,10.7-10.7s10.7,4.8,10.7,10.7
				C250.4,221.7,245.6,226.5,239.8,226.5z"/>
			<circle cx="239.9" cy="211" r="1.3"/>
			<path d="M239.8,214.3c-0.5,0-0.9,0.4-0.9,0.9v7.5c0,0.5,0.4,0.9,0.9,0.9s0.9-0.4,0.9-0.9v-7.5
				C240.6,214.7,240.2,214.3,239.8,214.3z"/>
		</g>
	</g>
	<g>
		<g>
			<path d="M402.4,175.4c-0.1-0.6-0.7-1-1.3-0.9s-1,0.7-0.9,1.3c0,0,0,0,0,0c1.1,6.8-3.4,13.2-10.2,14.3
				c-6.8,1.1-13.2-3.4-14.3-10.2c-1.1-6.8,3.4-13.2,10.2-14.3c4.2-0.7,8.4,0.7,11.2,3.9l-5,1.7c-0.6,0.2-0.9,0.8-0.7,1.4
				c0,0,0,0,0,0c0.2,0.6,0.8,0.9,1.4,0.7c0,0,0,0,0,0l6.8-2.3c0.5-0.2,0.8-0.6,0.8-1.1v-6.8c0-0.6-0.5-1.1-1.1-1.1s-1.1,0.5-1.1,1.1
				v4.1c-5.8-5.5-15-5.3-20.5,0.5c-5.5,5.8-5.3,15,0.5,20.5s15,5.3,20.5-0.5C401.8,184.5,403.2,179.9,402.4,175.4z"/>
		</g>
		<g>
			<path d="M387.8,168.5c-0.6,0-1.1,0.5-1.1,1.1v9.2c0,0.6,0.5,1.1,1.1,1.1c0.6,0,1.1-0.5,1.1-1.1v-9.2
				C388.9,169,388.4,168.5,387.8,168.5z"/>
		</g>
		<g>
			<path d="M388.1,179c-0.4-0.5-1-0.5-1.5-0.2l-4.9,3.8c-0.5,0.4-0.5,1-0.2,1.5c0.4,0.5,1,0.5,1.5,0.2l4.9-3.8
				C388.4,180.1,388.5,179.5,388.1,179z"/>
		</g>
	</g>
	<path d="M369.8,175.8l-15.2-14.1l-15.2,14.1c-0.2,0.2-0.2,0.5,0,0.7c0.2,0.2,0.5,0.2,0.7,0l1.8-1.6v17.7h8.5h8.5h8.5v-17.7l1.8,1.6
		c0.1,0.1,0.2,0.1,0.4,0.1c0.1,0,0.3-0.1,0.4-0.2C370.1,176.3,370,176,369.8,175.8z M351.5,191.5v-11.2c0-0.3,0.2-0.5,0.5-0.5h5.4
		c0.3,0,0.5,0.2,0.5,0.5v11.2H351.5z M366.3,191.5h-7.4v-11.2c0-0.9-0.7-1.6-1.6-1.6h-5.4c-0.9,0-1.6,0.7-1.6,1.6v11.2H343v-17.6
		l11.7-10.8l10.6,9.8l1.1,1V191.5z"/>
	<g>
		<g>
			<path d="M366.1,211.9c-0.3-2-1.3-3.8-2.9-5.2c-1.7-1.5-3.9-2.4-6.2-2.4c-1.8,0-3.5,0.5-5,1.5c-1.2,0.8-2.2,1.9-3,3.1
				c-0.3-0.1-0.6-0.1-1-0.1c-2.8,0-5,2.2-5,5c0,0.4,0,0.7,0.1,1c-1.8,1.3-2.9,3.4-2.9,5.6c0,1.8,0.7,3.5,1.9,4.9
				c1.3,1.4,2.9,2.3,4.7,2.4c0,0,0,0,0.1,0h5.6c0.5,0,0.9-0.4,0.9-0.9s-0.4-0.9-0.9-0.9H347c-2.7-0.2-4.9-2.7-4.9-5.5
				c0-1.8,1-3.6,2.6-4.5c0.4-0.2,0.5-0.7,0.4-1.1c-0.1-0.4-0.2-0.7-0.2-1.1c0-1.8,1.5-3.3,3.3-3.3c0.4,0,0.8,0.1,1.1,0.2
				c0.4,0.2,0.9,0,1.1-0.4c1.2-2.6,3.8-4.2,6.7-4.2c3.8,0,7,2.9,7.4,6.7c0,0.4,0.3,0.7,0.7,0.8c2.9,0.5,5.1,3.2,5.1,6.2
				c0,3.2-2.5,6-5.7,6.3h-4.8c-0.5,0-0.9,0.4-0.9,0.9s0.4,0.9,0.9,0.9h4.8c0,0,0,0,0.1,0c2-0.1,3.8-1.1,5.2-2.6
				c1.4-1.5,2.1-3.4,2.1-5.5C372,216.1,369.5,212.8,366.1,211.9z"/>
			<path d="M361.4,221.3c0.3-0.3,0.3-0.9,0-1.2l-4.6-4.6c-0.2-0.2-0.4-0.3-0.6-0.3c-0.2,0-0.5,0.1-0.6,0.3l-4.6,4.6
				c-0.3,0.3-0.3,0.9,0,1.2c0.2,0.2,0.4,0.3,0.6,0.3s0.4-0.1,0.6-0.3l3.2-3.2v9c0,0.5,0.4,0.9,0.9,0.9c0.5,0,0.9-0.4,0.9-0.9v-9
				l3.2,3.2C360.6,221.7,361.1,221.7,361.4,221.3z"/>
		</g>
	</g>
	<circle class="st3" cx="301.9" cy="272.9" r="31.6"/>
	<path class="st1" d="M314.4,270c0.7,0.7,0.7,1.6,0,2.3c-0.7,0.7-1.6,0.7-2.3,0l-7.7-8.2v21.3c0,0.9-0.7,1.6-1.6,1.6
		s-1.6-0.7-1.6-1.6v-21.3l-8.2,8.2c-0.7,0.7-1.6,0.7-2.3,0c-0.7-0.7-0.7-1.6,0-2.3l11-11c0.7-0.7,1.6-0.7,2.3,0L314.4,270z"/>
	<linearGradient id="SVGID_2_" gradientUnits="userSpaceOnUse" x1="347.068" y1="295.2202" x2="391.7467" y2="250.5415">
		<stop  offset="0" style="stop-color:#2977C4"/>
		<stop  offset="1" style="stop-color:#3F9CF8"/>
	</linearGradient>
	<circle class="st9" cx="369.4" cy="272.9" r="31.6"/>
	<path class="st1" d="M381.9,270c0.7,0.7,0.7,1.6,0,2.3c-0.7,0.7-1.6,0.7-2.3,0l-7.7-8.2v21.3c0,0.9-0.7,1.6-1.6,1.6
		s-1.6-0.7-1.6-1.6v-21.3l-8.2,8.2c-0.7,0.7-1.6,0.7-2.3,0c-0.7-0.7-0.7-1.6,0-2.3l11-11c0.7-0.7,1.6-0.7,2.3,0L381.9,270z"/>
	<path d="M218.7,94.8c-2.9-2.5-5.6-6.1-5.6-15c0-4.2-2.8-7.7-6.6-8.9c0.1-0.3,0.2-0.6,0.2-0.9c0-1.6-1.3-2.9-2.9-2.9
		s-2.9,1.3-2.9,2.9c0,0.3,0.1,0.6,0.2,0.9c-3.8,1.2-6.6,4.7-6.6,8.9c0,8.9-2.7,12.5-5.6,15c-0.8,0.7-1.3,1.7-1.3,2.8
		c0,0.6,0.5,1.1,1.1,1.1h10.1c0.5,2.4,2.6,4.1,5.1,4.1s4.6-1.8,5.1-4.1H219c0.6,0,1.1-0.5,1.1-1.1C220,96.5,219.6,95.5,218.7,94.8z
		 M203.8,100.7c-1.3,0-2.5-0.8-2.9-2h5.8C206.2,99.8,205.1,100.7,203.8,100.7z M190.1,96.5c0,0,0.1-0.1,0.1-0.1
		c4.5-3.8,6.4-8.8,6.4-16.6c0-3.7,2.8-6.7,6.3-7.1c-2-5.6,3.8-5.6,1.8,0c3.5,0.5,6.3,3.5,6.3,7.1c0,7.8,1.9,12.7,6.4,16.6
		c0,0,0.1,0.1,0.1,0.1H190.1z"/>
	<path class="st7" d="M218.7,140.7c-2.9-2.5-5.6-6.1-5.6-15c0-4.2-2.8-7.7-6.6-8.9c0.1-0.3,0.2-0.6,0.2-0.9c0-1.6-1.3-2.9-2.9-2.9
		s-2.9,1.3-2.9,2.9c0,0.3,0.1,0.6,0.2,0.9c-3.8,1.2-6.6,4.7-6.6,8.9c0,8.9-2.7,12.5-5.6,15c-0.8,0.7-1.3,1.7-1.3,2.8
		c0,0.6,0.5,1.1,1.1,1.1h10.1c0.5,2.4,2.6,4.1,5.1,4.1s4.6-1.8,5.1-4.1H219c0.6,0,1.1-0.5,1.1-1.1
		C220,142.4,219.6,141.4,218.7,140.7z M203.8,146.5c-1.3,0-2.5-0.8-2.9-2h5.8C206.2,145.7,205.1,146.5,203.8,146.5z M190.1,142.4
		c0,0,0.1-0.1,0.1-0.1c4.5-3.8,6.4-8.8,6.4-16.6c0-3.7,2.8-6.7,6.3-7.1c-2-5.6,3.8-5.6,1.8,0c3.5,0.5,6.3,3.5,6.3,7.1
		c0,7.8,1.9,12.7,6.4,16.6c0,0,0.1,0.1,0.1,0.1H190.1z"/>
	<g>
		<path d="M443.8,191.8h-32.8c-1.7,0-3.2-1.4-3.2-3.2v-21.5c0-1.7,1.4-3.2,3.2-3.2h32.8c1.7,0,3.2,1.4,3.2,3.2v21.5
			C447,190.4,445.6,191.8,443.8,191.8z M411.1,165.3c-1,0-1.9,0.8-1.9,1.9v21.5c0,1,0.8,1.9,1.9,1.9h32.8c1,0,1.9-0.8,1.9-1.9v-21.5
			c0-1-0.8-1.9-1.9-1.9H411.1z"/>
		<path d="M427.5,181.1c-0.8,0-1.7-0.3-2.3-0.8l-16.1-14c-0.3-0.2-0.3-0.6-0.1-0.9c0.2-0.3,0.6-0.3,0.9-0.1l16.1,14
			c0.8,0.7,2.2,0.7,3,0l16.1-14c0.3-0.2,0.7-0.2,0.9,0.1c0.2,0.3,0.2,0.7-0.1,0.9l-16.1,14C429.1,180.8,428.3,181.1,427.5,181.1z"/>
	</g>
	<g>
		<g>
			<path class="st7" d="M266.5,203.7c-6.7,0-12.2,5.5-12.2,12.2c0,6.7,5.5,12.2,12.2,12.2s12.2-5.5,12.2-12.2
				C278.6,209.2,273.2,203.7,266.5,203.7z M266.5,226.5c-5.9,0-10.7-4.8-10.7-10.7c0-5.9,4.8-10.7,10.7-10.7s10.7,4.8,10.7,10.7
				C277.1,221.7,272.4,226.5,266.5,226.5z"/>
			<circle class="st7" cx="266.7" cy="211" r="1.3"/>
			<path class="st7" d="M266.5,214.3c-0.5,0-0.9,0.4-0.9,0.9v7.5c0,0.5,0.4,0.9,0.9,0.9s0.9-0.4,0.9-0.9v-7.5
				C267.4,214.7,267,214.3,266.5,214.3z"/>
		</g>
	</g>
	<g>
		<g>
			<path class="st7" d="M323.3,208H312c-1.1,0-1.9,0.9-1.9,1.9v16.2c0,1.1,0.9,1.9,1.9,1.9h11.3c1.1,0,1.9-0.9,1.9-1.9v-16.2
				C325.2,208.8,324.4,208,323.3,208z M323.9,226.1c0,0.3-0.3,0.6-0.6,0.6H312c-0.3,0-0.6-0.3-0.6-0.6v-16.2c0-0.3,0.3-0.6,0.6-0.6
				h11.3c0.3,0,0.6,0.3,0.6,0.6V226.1z"/>
			<path class="st7" d="M327.6,203.7h-11.3c-1.1,0-1.9,0.9-1.9,1.9c0,0.4,0.3,0.7,0.7,0.7c0.4,0,0.7-0.3,0.7-0.7
				c0-0.3,0.3-0.6,0.6-0.6h11.3c0.3,0,0.6,0.3,0.6,0.6v16.2c0,0.3-0.3,0.6-0.6,0.6c-0.4,0-0.7,0.3-0.7,0.7c0,0.4,0.3,0.7,0.7,0.7
				c1.1,0,1.9-0.9,1.9-1.9v-16.2C329.5,204.6,328.7,203.7,327.6,203.7z"/>
		</g>
	</g>
	<g>
		<g>
			<path class="st7" d="M400.1,211.9c-0.3-2-1.3-3.8-2.9-5.2c-1.7-1.5-3.9-2.4-6.2-2.4c-1.8,0-3.5,0.5-5,1.5c-1.2,0.8-2.2,1.9-3,3.1
				c-0.3-0.1-0.6-0.1-1-0.1c-2.8,0-5,2.2-5,5c0,0.4,0,0.7,0.1,1c-1.8,1.3-2.9,3.4-2.9,5.6c0,1.8,0.7,3.5,1.9,4.9
				c1.3,1.4,2.9,2.3,4.7,2.4c0,0,0,0,0.1,0h5.6c0.5,0,0.9-0.4,0.9-0.9s-0.4-0.9-0.9-0.9h-5.6c-2.7-0.2-4.9-2.7-4.9-5.5
				c0-1.8,1-3.6,2.6-4.5c0.4-0.2,0.5-0.7,0.4-1.1c-0.1-0.4-0.2-0.7-0.2-1.1c0-1.8,1.5-3.3,3.3-3.3c0.4,0,0.8,0.1,1.1,0.2
				c0.4,0.2,0.9,0,1.1-0.4c1.2-2.6,3.8-4.2,6.7-4.2c3.8,0,7,2.9,7.4,6.7c0,0.4,0.3,0.7,0.7,0.8c2.9,0.5,5.1,3.2,5.1,6.2
				c0,3.2-2.5,6-5.7,6.3h-4.8c-0.5,0-0.9,0.4-0.9,0.9s0.4,0.9,0.9,0.9h4.8c0,0,0,0,0.1,0c2-0.1,3.8-1.1,5.2-2.6
				c1.4-1.5,2.1-3.4,2.1-5.5C406,216.1,403.5,212.8,400.1,211.9z"/>
			<path class="st7" d="M395.5,221.3c0.3-0.3,0.3-0.9,0-1.2l-4.6-4.6c-0.2-0.2-0.4-0.3-0.6-0.3c-0.2,0-0.5,0.1-0.6,0.3l-4.6,4.6
				c-0.3,0.3-0.3,0.9,0,1.2c0.2,0.2,0.4,0.3,0.6,0.3c0.2,0,0.4-0.1,0.6-0.3l3.2-3.2v9c0,0.5,0.4,0.9,0.9,0.9c0.5,0,0.9-0.4,0.9-0.9
				v-9l3.2,3.2C394.6,221.7,395.1,221.7,395.5,221.3z"/>
		</g>
	</g>
	<path class="st10" d="M290.4,468.2c-0.5,0.5-1.1,0.5-1.6,0c-0.5-0.5-0.5-1.1,0-1.6l5.5-5.2H280c-0.6,0-1.1-0.5-1.1-1.1
		s0.5-1.1,1.1-1.1h14.3l-5.5-5.5c-0.5-0.5-0.5-1.1,0-1.6c0.5-0.5,1.1-0.5,1.6,0l7.4,7.4c0.5,0.5,0.5,1.1,0,1.6L290.4,468.2z"/>
	<circle class="st1" cx="333.7" cy="460.3" r="21.2"/>
	<circle class="st3" cx="333.7" cy="460.3" r="17.9"/>
	<path class="st10" d="M332.2,452.2c0.5-0.5,1.1-0.5,1.6,0c0.5,0.5,0.5,1.1,0,1.6l-5.5,5.2h14.3c0.6,0,1.1,0.5,1.1,1.1
		s-0.5,1.1-1.1,1.1h-14.3l5.5,5.5c0.5,0.5,0.5,1.1,0,1.6c-0.5,0.5-1.1,0.5-1.6,0l-7.4-7.4c-0.5-0.5-0.5-1.1,0-1.6L332.2,452.2z"/>
	<circle class="st1" cx="379.3" cy="460.3" r="21.2"/>
	<linearGradient id="SVGID_3_" gradientUnits="userSpaceOnUse" x1="366.6246" y1="472.9491" x2="391.939" y2="447.6347">
		<stop  offset="0" style="stop-color:#2977C4"/>
		<stop  offset="1" style="stop-color:#3F9CF8"/>
	</linearGradient>
	<circle class="st11" cx="379.3" cy="460.3" r="17.9"/>
	<path class="st1" d="M381.5,468.2c-0.5,0.5-1.1,0.5-1.6,0c-0.5-0.5-0.5-1.1,0-1.6l5.5-5.2h-14.3c-0.6,0-1.1-0.5-1.1-1.1
		s0.5-1.1,1.1-1.1h14.3l-5.5-5.5c-0.5-0.5-0.5-1.1,0-1.6c0.5-0.5,1.1-0.5,1.6,0l7.4,7.4c0.5,0.5,0.5,1.1,0,1.6L381.5,468.2z"/>
	<circle class="st1" cx="424.8" cy="460.3" r="21.2"/>
	<linearGradient id="SVGID_4_" gradientUnits="userSpaceOnUse" x1="412.1882" y1="472.9491" x2="437.5027" y2="447.6347">
		<stop  offset="0" style="stop-color:#2977C4"/>
		<stop  offset="1" style="stop-color:#3F9CF8"/>
	</linearGradient>
	<circle class="st12" cx="424.8" cy="460.3" r="17.9"/>
	<path class="st1" d="M423.3,452.2c0.5-0.5,1.1-0.5,1.6,0c0.5,0.5,0.5,1.1,0,1.6l-5.5,5.2h14.3c0.6,0,1.1,0.5,1.1,1.1
		s-0.5,1.1-1.1,1.1h-14.3l5.5,5.5c0.5,0.5,0.5,1.1,0,1.6c-0.5,0.5-1.1,0.5-1.6,0l-7.4-7.4c-0.5-0.5-0.5-1.1,0-1.6L423.3,452.2z"/>
	<g id="Layer_20_7_">
		<polygon class="st0" points="179.9,169.1 170.4,178.6 166.7,174.9 163.8,177.8 170.4,184.5 182.9,172 		"/>
	</g>
	<circle class="st2" cx="217.5" cy="177" r="15.5"/>
	<g>
		<rect x="75.1" y="163.1" width="6.5" height="6.5"/>
		<rect x="85.9" y="163.1" width="28.1" height="6.5"/>
		<rect x="75.1" y="173.9" width="6.5" height="6.5"/>
		<rect x="85.9" y="173.9" width="28.1" height="6.5"/>
		<rect x="75.1" y="184.7" width="6.5" height="6.5"/>
		<rect x="85.9" y="184.7" width="28.1" height="6.5"/>
	</g>
	<g>
		<path class="st0" d="M68.2,200.2H33.7c-0.6,0-1.3,0.6-1.3,1.3v31.1c0,0.6,0.6,1.3,1.3,1.3h34.5c0.6,0,1.3-0.6,1.3-1.3v-31.1
			C69.5,200.9,68.9,200.2,68.2,200.2z M66.9,202.6v24.8l-5.4-7.6c-0.4-0.4-1.3-0.4-1.7,0l-4.5,4.5l-10.6-8.6c-0.4-0.4-1.3-0.4-1.7,0
			l-8,10.1v-23.3H66.9z M34.8,231.3v-1.9l8.9-11l14.9,13H34.8z M62,231.3L62,231.3l-5.2-5.2l3.9-3.9l6,8.2l0.2,0.2v0.4h-5V231.3z"/>
		<path class="st0" d="M49.9,212.1c2.4,0,4.3-1.9,4.3-4.3c0-2.4-1.9-4.3-4.3-4.3s-4.3,1.9-4.3,4.3C45.6,210.2,47.5,212.1,49.9,212.1
			z M49.9,205c1.5,0,2.8,1.3,2.8,2.8c0,1.5-1.3,2.8-2.8,2.8s-2.8-1.3-2.8-2.8C47.1,206.3,48.4,205,49.9,205z"/>
	</g>
	<g>
		<rect x="75.1" y="204.1" class="st0" width="6.5" height="6.5"/>
		<rect x="85.9" y="204.1" class="st0" width="28.1" height="6.5"/>
		<rect x="75.1" y="214.9" class="st0" width="6.5" height="6.5"/>
		<rect x="85.9" y="214.9" class="st0" width="28.1" height="6.5"/>
		<rect x="75.1" y="225.7" class="st0" width="6.5" height="6.5"/>
		<rect x="85.9" y="225.7" class="st0" width="28.1" height="6.5"/>
	</g>
	<g>
		<rect x="1.7" y="204.1" class="st0" width="10.8" height="10.8"/>
		<rect x="16.8" y="204.1" class="st0" width="10.8" height="10.8"/>
		<rect x="1.7" y="219.2" class="st0" width="10.8" height="10.8"/>
		<rect x="16.8" y="219.2" class="st0" width="10.8" height="10.8"/>
	</g>
	<g>
		<rect x="1.7" y="163.1" width="10.8" height="10.8"/>
		<rect x="16.8" y="163.1" width="10.8" height="10.8"/>
		<rect x="1.7" y="178.2" width="10.8" height="10.8"/>
		<rect x="16.8" y="178.2" width="10.8" height="10.8"/>
	</g>
	<g>
		<path class="st13" d="M304.8,688.7h-25.1c-5.3,0-9.3-4.4-9.3-9.3v-25.1c0-5.3,4.4-9.3,9.3-9.3h25.1c5.3,0,9.3,4.4,9.3,9.3v25.1
			C314,684.2,309.6,688.7,304.8,688.7z"/>
		<g>
			<path class="st14" d="M280.1,677.6h-2.6v-23.8h8.4c2.2,0,4,0.9,4.8,2.2c0.9,1.3,1.8,3.1,1.8,5.3c0,0.9,0,1.3,0,2.2
				c0,0.4,0,1.3-0.4,2.2c-0.4,0.9-0.4,1.8-0.9,2.2c-0.4,0.4-0.9,0.9-1.8,1.3c-0.9,0.4-1.8,0.4-3.1,0.4h-6.2
				C280.1,669.7,280.1,677.6,280.1,677.6z M280.1,667.5h5.7c0.9,0,1.3,0,2.2-0.4c0.4-0.4,0.9-0.4,1.3-0.9c0.4-0.4,0.4-0.9,0.4-1.8
				c0-0.9,0.4-1.3,0.4-1.3c0-0.4,0-0.9,0-1.3c0-3.5-1.3-5.3-4.4-5.3h-5.7C280.1,656.5,280.1,667.5,280.1,667.5z"/>
			<path class="st14" d="M295.1,673.2h2.2c0,0.9,0.4,1.3,1.3,1.8c0.9,0.4,1.8,0.9,2.6,0.9c0.9,0,1.8-0.4,2.6-0.9
				c0.9-0.4,0.9-0.9,0.9-1.8s-0.4-1.3-0.9-1.8c-0.4-0.4-1.3-0.9-2.2-1.3c-0.9-0.4-1.8-0.4-2.6-0.9c-0.9-0.4-1.8-0.9-2.2-1.3
				c-0.9-0.9-1.3-1.8-1.3-3.1c0-1.3,0.4-2.2,1.3-3.1c0.9-0.9,2.2-1.3,4.4-1.3c0.9,0,1.3,0,2.2,0.4c0.4,0,0.9,0.4,1.3,0.4l0.4,0.4
				l-0.9,2.2c-0.9-0.4-1.8-0.9-2.6-0.9c-1.3,0-2.2,0.4-2.6,0.4c-0.4,0.4-0.9,0.9-0.9,1.8s0.4,1.3,0.9,1.8c0.9,0.4,1.3,0.9,2.6,0.9
				c0.9,0.4,1.8,0.4,2.6,0.9c0.9,0.4,1.8,0.9,2.2,1.8c0.4,0.9,0.9,1.8,0.9,3.1c0,1.3-0.4,2.2-1.3,3.5c-0.9,1.3-2.6,1.3-4.4,1.3
				s-3.5-0.4-4.4-1.3C295.5,675.9,295.1,674.6,295.1,673.2z"/>
		</g>
	</g>
	<g>
		<path class="st15" d="M351.9,688.7h-25.1c-5.3,0-9.3-4.4-9.3-9.3v-25.1c0-5.3,4.4-9.3,9.3-9.3h25.1c5.3,0,9.3,4.4,9.3,9.3v25.1
			C361.6,684.2,357.2,688.7,351.9,688.7z"/>
		<g>
			<path class="st16" d="M343.6,677.6h-3.1l-2.2-7.5h-7.1l-2.2,7.5h-2.6l7.1-23.8h2.6L343.6,677.6z M337.8,667.5l-3.1-9.7l-2.6,9.7
				H337.8z"/>
			<path class="st16" d="M349.3,655.2c0,0.4,0,0.9-0.4,0.9c-0.4,0.4-0.4,0.4-0.9,0.4c-0.4,0-0.9,0-0.9-0.4c-0.4-0.4-0.4-0.4-0.4-0.9
				c0-0.4,0-0.9,0.4-0.9c0.4-0.4,0.4-0.4,0.9-0.4c0.4,0,0.9,0,0.9,0.4C348.9,654.3,349.3,654.7,349.3,655.2z M348.9,677.6h-2.6
				v-17.2h2.6V677.6z"/>
		</g>
	</g>
	<path class="st17" d="M411,681.6c0,4-3.1,7.1-7.1,7.1h-30.4c-4,0-7.1-3.1-7.1-7.1v-28.2l8.8-8.8h28.2c4,0,7.1,3.1,7.1,7.1v30H411z"
		/>
	<polygon class="st18" points="366.9,658.2 366.9,653.4 371.8,653.4 	"/>
	<path class="st19" d="M366.9,653.4h6.2c1.8,0,3.1-1.3,3.1-3.1v-5.7L366.9,653.4z"/>
	<path class="st19" d="M374.4,674.1v-14.5h7.1c0.9,0,1.3,0,1.8,0.4c0.4,0.4,0.9,0.4,1.3,0.9c0.4,0.4,0.4,0.9,0.9,1.3
		c0,0.4,0.4,1.3,0.4,1.8c0,0.9,0,1.3-0.4,1.8c0,0.4-0.4,0.9-0.9,1.3c-0.4,0.4-0.9,0.9-1.3,0.9c-0.4,0.4-1.3,0.4-1.8,0.4h-4.8v5.3
		L374.4,674.1L374.4,674.1z M376.6,661.8v4.8h4c0.9,0,1.8,0,2.2-0.4s0.4-0.9,0.4-1.8c0-0.9-0.4-1.3-0.9-1.8
		c-0.4-0.4-1.3-0.4-1.8-0.4L376.6,661.8L376.6,661.8L376.6,661.8z"/>
	<path class="st19" d="M394.3,660l2.2-0.4v12.3c0,0.4,0,0.4,0,0.9v0.4v0.4c0,0,0,0.4,0.4,0.4h-2.2c0,0,0-0.4-0.4-0.4
		c0-0.4,0-0.4,0-0.9c-0.4,0.4-0.9,0.9-1.3,0.9c-0.4,0.4-1.3,0.4-1.8,0.4c-0.9,0-1.3,0-1.8-0.4c-0.4-0.4-0.9-0.4-1.3-0.9
		c-0.4-0.4-0.4-0.9-0.9-1.3c0-0.4-0.4-1.3-0.4-1.8v-0.9c0-1.8,0.4-3.1,1.3-4c0.9-0.9,2.2-1.3,4-1.3c0.9,0,1.3,0,2.2,0.4V660
		L394.3,660z M394.3,666.2c-0.4,0-0.4-0.4-0.9-0.4c-0.4,0-0.9,0-1.3,0s-0.9,0-1.3,0.4c-0.4,0-0.9,0.4-0.9,0.4
		c-0.4,0.4-0.4,0.4-0.4,0.9c0,0.4,0,0.9,0,1.3v0.9c0,0.4,0,0.9,0,1.3c0,0.4,0,0.9,0.4,0.9c0,0.4,0.4,0.4,0.4,0.9
		c0.4,0,0.4,0.4,0.9,0.4c0.4,0,0.4,0,0.9,0c0.4,0,0.4-0.4,0.9-0.4c0.4,0,0.4-0.4,0.9-0.4c0.4,0,0.4-0.4,0.4-0.4V666.2L394.3,666.2z"
		/>
	<path class="st1" d="M374.4,673.7v-14.5h7.1c0.9,0,1.3,0,1.8,0.4c0.4,0.4,0.9,0.4,1.3,0.9c0.4,0.4,0.4,0.9,0.9,1.3
		c0,0.4,0.4,1.3,0.4,1.8c0,0.9,0,1.3-0.4,1.8c0,0.4-0.4,0.9-0.9,1.3c-0.4,0.4-0.9,0.9-1.3,0.9c-0.4,0.4-1.3,0.4-1.8,0.4h-4.8v5.3
		L374.4,673.7L374.4,673.7z M376.6,661.3v4.8h4c0.9,0,1.8,0,2.2-0.4s0.4-0.9,0.4-1.8c0-0.9-0.4-1.3-0.9-1.8
		c-0.4-0.4-1.3-0.4-1.8-0.4L376.6,661.3L376.6,661.3L376.6,661.3z"/>
	<path class="st1" d="M394.3,659.6l2.2-0.4v12.3c0,0.4,0,0.4,0,0.9v0.4v0.4c0,0,0,0.4,0.4,0.4h-2.2c0,0,0-0.4-0.4-0.4
		c0-0.4,0-0.4,0-0.9c-0.4,0.4-0.9,0.9-1.3,0.9c-0.4,0.4-1.3,0.4-1.8,0.4c-0.9,0-1.3,0-1.8-0.4c-0.4-0.4-0.9-0.4-1.3-0.9
		c-0.4-0.4-0.4-0.9-0.9-1.3c0-0.4-0.4-1.3-0.4-1.8v-0.9c0-1.8,0.4-3.1,1.3-4c0.9-0.9,2.2-1.3,4-1.3c0.9,0,1.3,0,2.2,0.4V659.6
		L394.3,659.6z M394.3,665.3c-0.4,0-0.4-0.4-0.9-0.4c-0.4,0-0.9,0-1.3,0s-0.9,0-1.3,0.4c-0.4,0-0.9,0.4-0.9,0.4
		c-0.4,0.4-0.4,0.4-0.4,0.9c0,0.4,0,0.9,0,1.3v0.9c0,0.4,0,0.9,0,1.3s0,0.9,0.4,0.9c0,0.4,0.4,0.4,0.4,0.9c0.4,0,0.4,0.4,0.9,0.4
		c0.4,0,0.4,0,0.9,0c0.4,0,0.4-0.4,0.9-0.4c0.4,0,0.4-0.4,0.9-0.4c0.4,0,0.4-0.4,0.4-0.4V665.3L394.3,665.3z"/>
	<path d="M305.5,355.7l-14.6,14.6l-14.6-14.6c-2.2-1.7-4.2,1.3-2.8,2.8l15.7,15.7c0.8,0.8,2.8,0.8,3.4,0l15.7-15.7
		C310,356,307,354,305.5,355.7z"/>
	<path class="st1" d="M149.7,189.5h-21.3c-1,0-1.8-0.8-1.8-1.8v-21.3c0-1,0.8-1.8,1.8-1.8h21.3c1,0,1.8,0.8,1.8,1.8v21.3
		C151.5,188.7,150.7,189.5,149.7,189.5z"/>
	<circle class="st1" cx="217.5" cy="177" r="12"/>
	<circle class="st0" cx="250.5" cy="177" r="5.5"/>
	<g id="Layer_11_2_">
		<path class="st7" d="M112.9,119c-0.5-2.3-2.5-4-4.9-4s-4.4,1.7-4.9,4H87v2h16.1c0.5,2.3,2.5,4,4.9,4s4.4-1.7,4.9-4h2.1v-2H112.9z
			 M108,123c-1.7,0-3-1.3-3-3s1.3-3,3-3s3,1.3,3,3S109.7,123,108,123z"/>
		<path class="st7" d="M89.1,143c0.5,2.3,2.5,4,4.9,4s4.4-1.7,4.9-4H115v-2H98.9c-0.5-2.3-2.5-4-4.9-4s-4.4,1.7-4.9,4H87v2H89.1z
			 M94,139c1.7,0,3,1.3,3,3s-1.3,3-3,3s-3-1.3-3-3S92.3,139,94,139z"/>
		<path class="st7" d="M96.1,132c0.5,2.3,2.5,4,4.9,4s4.4-1.7,4.9-4h9.1v-2h-9.1c-0.5-2.3-2.5-4-4.9-4s-4.4,1.7-4.9,4H87v2H96.1z
			 M101,128c1.7,0,3,1.3,3,3s-1.3,3-3,3s-3-1.3-3-3S99.3,128,101,128z"/>
	</g>
	<g>
		<path d="M305.8,86.2c-2.2-2.9-4.9-5.1-8.3-6.7c-3.1-1.6-6.7-2.5-10.3-2.5c0,0-0.4,0-0.7,0c-3.6,0-7.2,0.9-10.3,2.5
			c-3.1,1.6-6,3.8-8.3,6.7c-0.9,1.1-0.9,2.7,0,3.6c2.2,2.9,4.9,5.1,8.3,6.7c3.1,1.6,6.7,2.5,10.3,2.5c0,0,0.4,0,0.7,0
			c3.6,0,7.2-0.9,10.3-2.5c3.1-1.6,6-3.8,8.3-6.7C306.7,88.8,306.7,87.3,305.8,86.2z M277.2,95.1c-2.9-1.6-5.6-3.6-7.6-6.3
			c-0.4-0.4-0.4-1.1,0-1.8c2-2.7,4.7-4.7,7.6-6.3c0.9-0.4,1.8-0.7,2.5-1.1c-2.2,2-3.6,4.9-3.6,8.3c0,3.4,1.3,6.3,3.6,8.3
			C278.8,96,278.1,95.6,277.2,95.1z M287,97.3c-5.1,0-9.4-4.2-9.4-9.4c0-5.1,4.2-9.4,9.4-9.4s9.4,4.2,9.4,9.4
			C296.4,93.1,292.4,97.3,287,97.3z M304.7,88.8c-2,2.7-4.7,4.7-7.6,6.3c-0.9,0.4-1.8,0.7-2.5,1.1c2.2-2,3.6-4.9,3.6-8.3
			c0-3.4-1.3-6.3-3.6-8.3c0.9,0.2,1.8,0.7,2.5,1.1c2.9,1.6,5.6,3.6,7.6,6.3C304.9,87.7,304.9,88.4,304.7,88.8z"/>
		<path d="M287,83.9c-2.2,0-4,1.8-4,4s1.8,4,4,4s4-1.8,4-4S289.3,83.9,287,83.9z M287,90.4c-1.3,0-2.5-1.1-2.5-2.5
			c0-1.3,1.1-2.5,2.5-2.5c1.3,0,2.5,1.1,2.5,2.5C289.5,89.3,288.4,90.4,287,90.4z"/>
	</g>
	<g>
		<g id="trash_1_">
			<path class="st0" d="M446,120.2c-0.1-1.5-1.3-2.7-2.9-2.7h-2.9v-1v0c0-1.6-1.3-2.9-2.9-2.9h-9.6c-1.6,0-2.9,1.3-2.9,2.9v0v1H422
				c-1.5,0-2.8,1.2-2.9,2.7h0v1.1v1c0,1.1,0.9,1.9,1.9,1.9l0,0v16.3c0,2.1,1.7,3.8,3.8,3.8h15.4c2.1,0,3.8-1.7,3.8-3.8v-16.3l0,0
				c1.1,0,1.9-0.9,1.9-1.9v-1L446,120.2L446,120.2z M426.8,116.5c0-0.5,0.4-1,1-1h9.6c0.5,0,1,0.4,1,1v1h-11.5V116.5z M442.2,140.6
				c0,1.1-0.9,1.9-1.9,1.9h-15.4c-1.1,0-1.9-0.9-1.9-1.9v-16.3h19.2V140.6z M444.1,121.3v1H421v-1v-1c0-0.5,0.4-1,1-1h21.2
				c0.5,0,1,0.4,1,1V121.3z"/>
			<path class="st0" d="M425.8,140.6h1.9c0.5,0,1-0.4,1-1v-12.5c0-0.5-0.4-1-1-1h-1.9c-0.5,0-1,0.4-1,1v12.5
				C424.8,140.1,425.3,140.6,425.8,140.6z M425.8,127.1h1.9v12.5h-1.9V127.1z"/>
			<path class="st0" d="M431.6,140.6h1.9c0.5,0,1-0.4,1-1v-12.5c0-0.5-0.4-1-1-1h-1.9c-0.5,0-1,0.4-1,1v12.5
				C430.6,140.1,431,140.6,431.6,140.6z M431.6,127.1h1.9v12.5h-1.9V127.1z"/>
			<path class="st0" d="M437.3,140.6h1.9c0.5,0,1-0.4,1-1v-12.5c0-0.5-0.4-1-1-1h-1.9c-0.5,0-1,0.4-1,1v12.5
				C436.4,140.1,436.8,140.6,437.3,140.6z M437.3,127.1h1.9v12.5h-1.9V127.1z"/>
		</g>
	</g>
	<g>
		<path class="st0" d="M406.3,132.9c-1.8,0-3.3,0.8-4.3,2.1l-8.4-4.7c0.2-0.6,0.3-1.2,0.3-1.8c0-0.6-0.1-1.2-0.3-1.8l8.4-4.7
			c1,1.3,2.6,2.1,4.3,2.1c3,0,5.4-2.4,5.4-5.4c0-3-2.4-5.4-5.4-5.4s-5.4,2.4-5.4,5.4c0,0.6,0.1,1.2,0.3,1.8l-8.3,4.7
			c-1-1.3-2.6-2.1-4.3-2.1c-3,0-5.4,2.4-5.4,5.4c0,3,2.4,5.4,5.4,5.4c1.8,0,3.3-0.8,4.3-2.1l8.4,4.7c-0.2,0.6-0.3,1.2-0.3,1.8
			c0,3,2.4,5.4,5.4,5.4s5.4-2.4,5.4-5.4C411.8,135.3,409.3,132.9,406.3,132.9z M406.3,115c2.1,0,3.7,1.7,3.7,3.7
			c0,2.1-1.7,3.7-3.7,3.7s-3.7-1.7-3.7-3.7C402.6,116.7,404.3,115,406.3,115z M388.5,132.3c-2.1,0-3.7-1.7-3.7-3.7
			c0-2.1,1.7-3.7,3.7-3.7s3.7,1.7,3.7,3.7C392.3,130.6,390.6,132.3,388.5,132.3z M406.3,142c-2.1,0-3.7-1.7-3.7-3.7s1.7-3.7,3.7-3.7
			s3.7,1.7,3.7,3.7S408.4,142,406.3,142z"/>
	</g>
	<g>
		<g id="Pencil_1_">
			<g>
				<path class="st0" d="M339.9,117.7c-1.1-1.1-2.5-1.7-4-1.7c-1.5,0-2.9,0.6-4,1.7l-17.1,17c-0.1,0.1-0.2,0.2-0.2,0.4l-3.9,10.7
					c-0.1,0.3,0,0.7,0.2,1c0.2,0.2,0.4,0.3,0.7,0.3c0.1,0,0.2,0,0.3,0l9.6-3c0.2,0,0.3-0.1,0.4-0.2l18-18c1.1-1.1,1.7-2.5,1.7-4
					C341.6,120.2,341,118.7,339.9,117.7z M320.3,142.3l-3.6,1.1c-0.2-0.6-0.5-1.2-1-1.6c-0.4-0.4-0.8-0.7-1.3-0.9l1.7-4.5h2.2v1.9
					c0,0.5,0.4,1,1,1h1.7L320.3,142.3z M334.6,128.3l-11.8,11.8l0.3-1.6c0.1-0.3,0-0.6-0.2-0.8c-0.2-0.2-0.5-0.4-0.8-0.4h-1.9v-1.9
					c0-0.5-0.4-1-1-1h-1.5l11.5-11.5l0,0c0.7-0.7,1.7-1.1,2.7-1.1s1.9,0.4,2.7,1.1c0.7,0.7,1.1,1.7,1.1,2.7S335.3,127.6,334.6,128.3
					z M338.5,124.4l-0.9,0.9c-0.1-1.4-0.7-2.7-1.6-3.7c-1-1-2.3-1.6-3.7-1.6l0.9-0.9l0,0c0.7-0.7,1.7-1.1,2.7-1.1s1.9,0.4,2.7,1.1
					c0.7,0.7,1.1,1.7,1.1,2.7C339.6,122.7,339.2,123.6,338.5,124.4z M332.1,124l-9.7,9.7c-0.4,0.4-0.4,1,0,1.4
					c0.2,0.2,0.4,0.3,0.7,0.3c0.2,0,0.5-0.1,0.7-0.3l9.7-9.7c0.4-0.4,0.4-1,0-1.4C333.1,123.7,332.5,123.7,332.1,124z"/>
			</g>
		</g>
	</g>
	<g>
		<g>
			<path class="st0" d="M377.3,132.3c-0.7,0-1.2,0.5-1.2,1.2v3.2c0,3-0.2,5.4-3.2,5.4h-18.6c-3,0-5.4-2.4-5.4-5.4v-3.3
				c0-0.7-0.5-1.2-1.2-1.2c-0.7,0-1.2,0.5-1.2,1.2v3.3c0,4.3,3.5,7.8,7.8,7.8H373c4.3,0,5.6-3.5,5.6-7.8v-3.2
				C378.5,132.8,378,132.3,377.3,132.3z"/>
			<path class="st0" d="M361.7,137.7c0.2,0.2,0.5,0.4,0.8,0.4c0.3,0,0.6-0.1,0.8-0.4l7.6-7.6c0.5-0.5,0.5-1.2,0-1.7
				c-0.5-0.5-1.2-0.5-1.7,0l-5.6,5.6v-18.8c0-0.7-0.5-1.2-1.2-1.2c-0.7,0-1.2,0.5-1.2,1.2v18.8l-5.6-5.6c-0.5-0.5-1.2-0.5-1.7,0
				c-0.5,0.5-0.5,1.2,0,1.7L361.7,137.7z"/>
		</g>
	</g>
	<g>
		<path class="st0" d="M305.8,129.2c-2.2-2.9-4.9-5.1-8.3-6.7c-3.1-1.6-6.7-2.5-10.3-2.5c0,0-0.4,0-0.7,0c-3.6,0-7.2,0.9-10.3,2.5
			c-3.1,1.6-6,3.8-8.3,6.7c-0.9,1.1-0.9,2.7,0,3.6c2.2,2.9,4.9,5.1,8.3,6.7c3.1,1.6,6.7,2.5,10.3,2.5c0,0,0.4,0,0.7,0
			c3.6,0,7.2-0.9,10.3-2.5c3.1-1.6,6-3.8,8.3-6.7C306.7,131.8,306.7,130.3,305.8,129.2z M277.2,138.1c-2.9-1.6-5.6-3.6-7.6-6.3
			c-0.4-0.4-0.4-1.1,0-1.8c2-2.7,4.7-4.7,7.6-6.3c0.9-0.4,1.8-0.7,2.5-1.1c-2.2,2-3.6,4.9-3.6,8.3s1.3,6.3,3.6,8.3
			C278.8,139,278.1,138.6,277.2,138.1z M287,140.3c-5.1,0-9.4-4.2-9.4-9.4c0-5.1,4.2-9.4,9.4-9.4s9.4,4.2,9.4,9.4
			C296.4,136.1,292.4,140.3,287,140.3z M304.7,131.8c-2,2.7-4.7,4.7-7.6,6.3c-0.9,0.4-1.8,0.7-2.5,1.1c2.2-2,3.6-4.9,3.6-8.3
			s-1.3-6.3-3.6-8.3c0.9,0.2,1.8,0.7,2.5,1.1c2.9,1.6,5.6,3.6,7.6,6.3C304.9,130.7,304.9,131.4,304.7,131.8z"/>
		<path class="st0" d="M287,126.9c-2.2,0-4,1.8-4,4c0,2.2,1.8,4,4,4s4-1.8,4-4C291,128.7,289.3,126.9,287,126.9z M287,133.4
			c-1.3,0-2.5-1.1-2.5-2.5s1.1-2.5,2.5-2.5c1.3,0,2.5,1.1,2.5,2.5S288.4,133.4,287,133.4z"/>
	</g>
	<path class="st7" d="M348.5,355.7l-14.6,14.6l-14.6-14.6c-2.2-1.7-4.2,1.3-2.8,2.8l15.7,15.7c0.8,0.8,2.8,0.8,3.4,0l15.7-15.7
		C353,356,350,354,348.5,355.7z"/>
	<path class="st7" d="M409.3,374.2l14.6-14.6l14.6,14.6c2.2,1.7,4.2-1.3,2.8-2.8l-15.7-15.7c-0.8-0.8-2.8-0.8-3.4,0l-15.7,15.7
		C404.8,373.9,407.8,375.9,409.3,374.2z"/>
	<path d="M366.3,374.2l14.6-14.6l14.6,14.6c2.2,1.7,4.2-1.3,2.8-2.8l-15.7-15.7c-0.8-0.8-2.8-0.8-3.4,0l-15.7,15.7
		C361.8,373.9,364.8,375.9,366.3,374.2z"/>
	<path class="st4" d="M342.5,328.1l9.3-9.3c0.6-0.6,0.6-1.5,0-2.1l-0.3-0.3c-0.6-0.6-1.5-0.6-2.1,0l-9.3,9.3l-9.3-9.3
		c-0.6-0.6-1.5-0.6-2.1,0l-0.3,0.3c-0.6,0.6-0.6,1.5,0,2.1l9.3,9.3l-9.3,9.3c-0.6,0.6-0.6,1.5,0,2.1l0.3,0.3c0.6,0.6,1.5,0.6,2.1,0
		l9.3-9.3l9.3,9.3c0.6,0.6,1.5,0.6,2.1,0l0.3-0.3c0.6-0.6,0.6-1.5,0-2.1L342.5,328.1z"/>
	<path class="st7" d="M371.5,328.1l9.3-9.3c0.6-0.6,0.6-1.5,0-2.1l-0.3-0.3c-0.6-0.6-1.5-0.6-2.1,0l-9.3,9.3l-9.3-9.3
		c-0.6-0.6-1.5-0.6-2.1,0l-0.3,0.3c-0.6,0.6-0.6,1.5,0,2.1l9.3,9.3l-9.3,9.3c-0.6,0.6-0.6,1.5,0,2.1l0.3,0.3c0.6,0.6,1.5,0.6,2.1,0
		l9.3-9.3l9.3,9.3c0.6,0.6,1.5,0.6,2.1,0l0.3-0.3c0.6-0.6,0.6-1.5,0-2.1L371.5,328.1z"/>
	<g>
		<path class="st4" d="M290,388c-11.6,0-21,9.4-21,21c0,11.6,9.4,21,21,21s21-9.4,21-21C311,397.4,301.6,388,290,388z M290,426.9
			c-9.9,0-17.9-8-17.9-17.9s8-17.9,17.9-17.9s17.9,8,17.9,17.9S299.9,426.9,290,426.9z"/>
		<path class="st4" d="M299.1,407H281c-1.1,0-2,0.9-2,2c0,1.1,0.9,2,2,2h18.1c1.1,0,2-0.9,2-2C301.1,407.9,300.2,407,299.1,407z"/>
	</g>
	<g>
		<path class="st4" d="M379,388c-11.6,0-21,9.4-21,21c0,11.6,9.4,21,21,21s21-9.4,21-21C400,397.4,390.6,388,379,388z M379,426.9
			c-9.9,0-17.9-8-17.9-17.9s8-17.9,17.9-17.9s17.9,8,17.9,17.9S388.9,426.9,379,426.9z"/>
		<path class="st4" d="M388.1,407h-7v-7c0-1.1-0.9-2-2-2s-2,0.9-2,2v7h-7c-1.1,0-2,0.9-2,2c0,1.1,0.9,2,2,2h7v7c0,1.1,0.9,2,2,2
			s2-0.9,2-2v-7h7c1.1,0,2-0.9,2-2C390.1,407.9,389.2,407,388.1,407z"/>
	</g>
	<g>
		<path class="st7" d="M423,388c-11.6,0-21,9.4-21,21c0,11.6,9.4,21,21,21s21-9.4,21-21C444,397.4,434.6,388,423,388z M423,426.9
			c-9.9,0-17.9-8-17.9-17.9s8-17.9,17.9-17.9s17.9,8,17.9,17.9S432.9,426.9,423,426.9z"/>
		<path class="st7" d="M432.1,407h-7v-7c0-1.1-0.9-2-2-2s-2,0.9-2,2v7h-7c-1.1,0-2,0.9-2,2c0,1.1,0.9,2,2,2h7v7c0,1.1,0.9,2,2,2
			s2-0.9,2-2v-7h7c1.1,0,2-0.9,2-2C434.1,407.9,433.2,407,432.1,407z"/>
	</g>
	<g>
		<path class="st7" d="M334,388c-11.6,0-21,9.4-21,21c0,11.6,9.4,21,21,21s21-9.4,21-21C355,397.4,345.6,388,334,388z M334,426.9
			c-9.9,0-17.9-8-17.9-17.9s8-17.9,17.9-17.9s17.9,8,17.9,17.9S343.9,426.9,334,426.9z"/>
		<path class="st7" d="M343.1,407H325c-1.1,0-2,0.9-2,2c0,1.1,0.9,2,2,2h18.1c1.1,0,2-0.9,2-2C345.1,407.9,344.2,407,343.1,407z"/>
	</g>
	<g>
		<g>
			<path d="M402.3,340v-12.3l-8.6-10c-0.5-0.6-0.4-1.7,0.8-1.7h23c1.1,0,1.4,1,0.8,1.7l-8.4,9.7v7.6c0,0.3-0.1,0.6-0.4,0.8l-5.4,5
				C403.5,341.2,402.3,341,402.3,340z M396.8,318.1l7.4,8.5c0.2,0.2,0.3,0.4,0.3,0.7v10.4l3.3-3v-7.6c0-0.3,0.1-0.5,0.3-0.7l7.1-8.3
				H396.8L396.8,318.1z"/>
		</g>
	</g>
	<g>
		<g>
			<path class="st7" d="M430.3,340v-12.3l-8.6-10c-0.5-0.6-0.4-1.7,0.8-1.7h23c1.1,0,1.4,1,0.8,1.7l-8.4,9.7v7.6
				c0,0.3-0.1,0.6-0.4,0.8l-5.4,5C431.5,341.2,430.3,341,430.3,340z M424.8,318.1l7.4,8.5c0.2,0.2,0.3,0.4,0.3,0.7v10.4l3.3-3v-7.6
				c0-0.3,0.1-0.5,0.3-0.7l7.1-8.3H424.8L424.8,318.1z"/>
		</g>
	</g>
	<g>
		<path d="M285.1,316h-10.3c-1.5,0-2.7,1.2-2.7,2.7v20.1c0,1.5,1.2,2.7,2.7,2.7h14c1.5,0,2.7-1.2,2.7-2.7v-16.4L285.1,316z
			 M288.8,339.9h-14c-0.6,0-1.1-0.5-1.1-1.1v-20.1c0-0.6,0.5-1.1,1.1-1.1l9.6,0v3.6c0,1,0.8,1.9,1.9,1.9l3.5,0l0,15.7
			C289.9,339.4,289.4,339.9,288.8,339.9z"/>
		<path d="M284.8,329h-1.3v-3.9c0-0.4-0.3-0.7-0.7-0.7h-1.9c-0.4,0-0.7,0.3-0.7,0.7v3.9h-1.3c-0.2,0-0.4,0.1-0.5,0.3
			c-0.1,0.2,0,0.4,0.1,0.6l3,3c0.2,0.2,0.5,0.2,0.8,0l3-3c0.2-0.2,0.2-0.4,0.1-0.6C285.2,329.2,285,329,284.8,329z"/>
	</g>
	<g>
		<path class="st7" d="M309.5,316h-10.3c-1.5,0-2.7,1.2-2.7,2.7v20.1c0,1.5,1.2,2.7,2.7,2.7h14c1.5,0,2.7-1.2,2.7-2.7v-16.4
			L309.5,316z M313.3,339.9h-14c-0.6,0-1.1-0.5-1.1-1.1v-20.1c0-0.6,0.5-1.1,1.1-1.1l9.6,0v3.6c0,1,0.8,1.9,1.9,1.9l3.5,0l0,15.7
			C314.3,339.4,313.9,339.9,313.3,339.9z"/>
		<path class="st7" d="M309.3,329H308v-3.9c0-0.4-0.3-0.7-0.7-0.7h-1.9c-0.4,0-0.7,0.3-0.7,0.7v3.9h-1.3c-0.2,0-0.4,0.1-0.5,0.3
			c-0.1,0.2,0,0.4,0.1,0.6l3,3c0.2,0.2,0.5,0.2,0.8,0l3-3c0.2-0.2,0.2-0.4,0.1-0.6C309.7,329.2,309.5,329,309.3,329z"/>
	</g>
	<path d="M172.6,85.4h5.2c0.8,0,1.4-0.6,1.4-1.4v-3.2c0-0.8-0.6-1.4-1.4-1.4h-5.2c-0.8,0-1.4,0.6-1.4,1.4v0.8h-6.3v-7.3h3.8
		c0.8,0,1.4-0.6,1.4-1.4v-3.2c0-0.8-0.6-1.4-1.4-1.4h-9.2c-0.8,0-1.4,0.6-1.4,1.4v3.2c0,0.8,0.6,1.4,1.4,1.4h3.8V99l7.9,0.2v0.8
		c0,0.8,0.6,1.4,1.4,1.4h5.2c0.8,0,1.4-0.6,1.4-1.4v-3.2c0-0.8-0.6-1.4-1.4-1.4h-5.2c-0.8,0-1.4,0.6-1.4,1.4v0.8h-6.3v-6.4h6.3V92
		c0,0.8,0.6,1.4,1.4,1.4h5.2c0.8,0,1.4-0.6,1.4-1.4v-3.2c0-0.8-0.6-1.4-1.4-1.4h-5.2c-0.8,0-1.4,0.6-1.4,1.4v0.8h-6.3v-6.4h6.3V84
		C171.2,84.8,171.8,85.4,172.6,85.4z M172.6,81.3c0-0.2,0.2-0.4,0.4-0.4h4.3c0.2,0,0.4,0.2,0.4,0.4v2.2c0,0.2-0.2,0.4-0.4,0.4H173
		c-0.2,0-0.4-0.2-0.4-0.4V81.3z M172.6,97.3c0-0.2,0.2-0.4,0.4-0.4h4.3c0.2,0,0.4,0.2,0.4,0.4v2.2c0,0.2-0.2,0.4-0.4,0.4H173
		c-0.2,0-0.4-0.2-0.4-0.4V97.3z M172.6,89.3c0-0.2,0.2-0.4,0.4-0.4h4.3c0.2,0,0.4,0.2,0.4,0.4v2.2c0,0.2-0.2,0.4-0.4,0.4H173
		c-0.2,0-0.4-0.2-0.4-0.4V89.3z M160,72.8c-0.2,0-0.4-0.2-0.4-0.4v-2.2c0-0.2,0.2-0.4,0.4-0.4h8.3c0.2,0,0.4,0.2,0.4,0.4v2.2
		c0,0.2-0.2,0.4-0.4,0.4H160z"/>
	<path class="st7" d="M172.6,132.4h5.2c0.8,0,1.4-0.6,1.4-1.4v-3.2c0-0.8-0.6-1.4-1.4-1.4h-5.2c-0.8,0-1.4,0.6-1.4,1.4v0.8h-6.3
		v-7.3h3.8c0.8,0,1.4-0.6,1.4-1.4v-3.2c0-0.8-0.6-1.4-1.4-1.4h-9.2c-0.8,0-1.4,0.6-1.4,1.4v3.2c0,0.8,0.6,1.4,1.4,1.4h3.8V146
		l7.9,0.2v0.8c0,0.8,0.6,1.4,1.4,1.4h5.2c0.8,0,1.4-0.6,1.4-1.4v-3.2c0-0.8-0.6-1.4-1.4-1.4h-5.2c-0.8,0-1.4,0.6-1.4,1.4v0.8h-6.3
		v-6.4h6.3v0.8c0,0.8,0.6,1.4,1.4,1.4h5.2c0.8,0,1.4-0.6,1.4-1.4v-3.2c0-0.8-0.6-1.4-1.4-1.4h-5.2c-0.8,0-1.4,0.6-1.4,1.4v0.8h-6.3
		v-6.4h6.3v0.8C171.2,131.8,171.8,132.4,172.6,132.4z M172.6,128.3c0-0.2,0.2-0.4,0.4-0.4h4.3c0.2,0,0.4,0.2,0.4,0.4v2.2
		c0,0.2-0.2,0.4-0.4,0.4H173c-0.2,0-0.4-0.2-0.4-0.4V128.3z M172.6,144.3c0-0.2,0.2-0.4,0.4-0.4h4.3c0.2,0,0.4,0.2,0.4,0.4v2.2
		c0,0.2-0.2,0.4-0.4,0.4H173c-0.2,0-0.4-0.2-0.4-0.4V144.3z M172.6,136.3c0-0.2,0.2-0.4,0.4-0.4h4.3c0.2,0,0.4,0.2,0.4,0.4v2.2
		c0,0.2-0.2,0.4-0.4,0.4H173c-0.2,0-0.4-0.2-0.4-0.4V136.3z M160,119.8c-0.2,0-0.4-0.2-0.4-0.4v-2.2c0-0.2,0.2-0.4,0.4-0.4h8.3
		c0.2,0,0.4,0.2,0.4,0.4v2.2c0,0.2-0.2,0.4-0.4,0.4H160z"/>
	<polygon points="293.8,508.7 293.8,504.3 292.3,504.3 283.5,504.3 283.5,501.3 286.4,501.3 286.4,494 279.1,494 279.1,501.3 
		282,501.3 282,504.3 273.2,504.3 271.8,504.3 271.8,508.7 268.8,508.7 268.8,516 276.2,516 276.2,508.7 273.2,508.7 273.2,505.7 
		282,505.7 282,508.7 279.1,508.7 279.1,516 286.4,516 286.4,508.7 283.5,508.7 283.5,505.7 292.3,505.7 292.3,508.7 289.4,508.7 
		289.4,516 296.7,516 296.7,508.7 	"/>
	<polygon class="st7" points="326.8,508.7 326.8,504.3 325.3,504.3 316.5,504.3 316.5,501.3 319.4,501.3 319.4,494 312.1,494 
		312.1,501.3 315,501.3 315,504.3 306.2,504.3 304.8,504.3 304.8,508.7 301.8,508.7 301.8,516 309.2,516 309.2,508.7 306.2,508.7 
		306.2,505.7 315,505.7 315,508.7 312.1,508.7 312.1,516 319.4,516 319.4,508.7 316.5,508.7 316.5,505.7 325.3,505.7 325.3,508.7 
		322.4,508.7 322.4,516 329.7,516 329.7,508.7 	"/>
	<g>
		<g>
			<g>
				<path d="M287,530.3c0-0.5-0.4-0.9-0.9-0.9h-9c-0.5,0-0.9,0.4-0.9,0.9c0,0.5,0.4,0.9,0.9,0.9h9C286.6,531.2,287,530.8,287,530.3z
					"/>
				<path d="M277.1,532.9c-0.5,0-0.9,0.4-0.9,0.9s0.4,0.9,0.9,0.9h5.5c0.5,0,0.9-0.4,0.9-0.9s-0.4-0.9-0.9-0.9H277.1z"/>
				<path d="M279.2,541.3h-2.9c-1,0-1.7-0.8-1.7-1.7v-15.3c0-1,0.8-1.7,1.7-1.7H287c1,0,1.7,0.8,1.7,1.7v5.4c0,0.5,0.4,0.9,0.9,0.9
					c0.5,0,0.9-0.4,0.9-0.9v-5.4c0-1.9-1.6-3.5-3.5-3.5h-10.7c-1.9,0-3.5,1.6-3.5,3.5v15.3c0,1.9,1.6,3.5,3.5,3.5h2.9
					c0.5,0,0.9-0.4,0.9-0.9S279.7,541.3,279.2,541.3z"/>
				<path d="M292,533.3c-1-1-2.7-1-3.7,0l-4.8,4.8c-0.1,0.1-0.2,0.2-0.2,0.4l-1,3.4c-0.1,0.3,0,0.6,0.2,0.9c0.2,0.2,0.4,0.3,0.6,0.3
					c0.1,0,0.2,0,0.2,0l3.5-1c0.1,0,0.3-0.1,0.4-0.2l4.8-4.8C293,536,293,534.3,292,533.3z M286.2,540.4l-1.8,0.5l0.5-1.7l3.2-3.2
					l1.2,1.2L286.2,540.4z M290.8,535.8l-0.2,0.2l-1.2-1.2l0.2-0.2c0.3-0.3,0.9-0.3,1.2,0C291.1,534.9,291.1,535.4,290.8,535.8z"/>
				<path d="M286.1,525.9h-9c-0.5,0-0.9,0.4-0.9,0.9s0.4,0.9,0.9,0.9h9c0.5,0,0.9-0.4,0.9-0.9S286.6,525.9,286.1,525.9z"/>
			</g>
		</g>
	</g>
	<g>
		<g>
			<g>
				<path class="st7" d="M320,530.3c0-0.5-0.4-0.9-0.9-0.9h-9c-0.5,0-0.9,0.4-0.9,0.9c0,0.5,0.4,0.9,0.9,0.9h9
					C319.6,531.2,320,530.8,320,530.3z"/>
				<path class="st7" d="M310.1,532.9c-0.5,0-0.9,0.4-0.9,0.9s0.4,0.9,0.9,0.9h5.5c0.5,0,0.9-0.4,0.9-0.9s-0.4-0.9-0.9-0.9H310.1z"
					/>
				<path class="st7" d="M312.2,541.3h-2.9c-1,0-1.7-0.8-1.7-1.7v-15.3c0-1,0.8-1.7,1.7-1.7H320c1,0,1.7,0.8,1.7,1.7v5.4
					c0,0.5,0.4,0.9,0.9,0.9c0.5,0,0.9-0.4,0.9-0.9v-5.4c0-1.9-1.6-3.5-3.5-3.5h-10.7c-1.9,0-3.5,1.6-3.5,3.5v15.3
					c0,1.9,1.6,3.5,3.5,3.5h2.9c0.5,0,0.9-0.4,0.9-0.9S312.7,541.3,312.2,541.3z"/>
				<path class="st7" d="M325,533.3c-1-1-2.7-1-3.7,0l-4.8,4.8c-0.1,0.1-0.2,0.2-0.2,0.4l-1,3.4c-0.1,0.3,0,0.6,0.2,0.9
					c0.2,0.2,0.4,0.3,0.6,0.3c0.1,0,0.2,0,0.2,0l3.5-1c0.1,0,0.3-0.1,0.4-0.2l4.8-4.8C326,536,326,534.3,325,533.3z M319.2,540.4
					l-1.8,0.5l0.5-1.7l3.2-3.2l1.2,1.2L319.2,540.4z M323.8,535.8l-0.2,0.2l-1.2-1.2l0.2-0.2c0.3-0.3,0.9-0.3,1.2,0
					C324.1,534.9,324.1,535.4,323.8,535.8z"/>
				<path class="st7" d="M319.1,525.9h-9c-0.5,0-0.9,0.4-0.9,0.9s0.4,0.9,0.9,0.9h9c0.5,0,0.9-0.4,0.9-0.9S319.6,525.9,319.1,525.9z
					"/>
			</g>
		</g>
	</g>
	<g>
		<path d="M282.8,547.7c-5.3,0-10.2,2.9-13.8,7.7c-0.3,0.4-0.3,0.9,0,1.3c3.6,4.8,8.4,7.7,13.8,7.7s10.2-2.9,13.8-7.7
			c0.3-0.4,0.3-0.9,0-1.3C293,550.7,288.1,547.7,282.8,547.7z M283.2,561.9c-3.6,0.2-6.5-2.7-6.3-6.3c0.2-2.9,2.6-5.3,5.5-5.5
			c3.6-0.2,6.5,2.7,6.3,6.3C288.5,559.4,286.1,561.8,283.2,561.9z M283,559.2c-1.9,0.1-3.5-1.5-3.4-3.4c0.1-1.6,1.4-2.9,3-3
			c1.9-0.1,3.5,1.5,3.4,3.4C285.8,557.9,284.6,559.1,283,559.2z"/>
	</g>
	<g>
		<path class="st7" d="M315.8,547.7c-5.3,0-10.2,2.9-13.8,7.7c-0.3,0.4-0.3,0.9,0,1.3c3.6,4.8,8.4,7.7,13.8,7.7s10.2-2.9,13.8-7.7
			c0.3-0.4,0.3-0.9,0-1.3C326,550.7,321.1,547.7,315.8,547.7z M316.2,561.9c-3.6,0.2-6.5-2.7-6.3-6.3c0.2-2.9,2.6-5.3,5.5-5.5
			c3.6-0.2,6.5,2.7,6.3,6.3C321.5,559.4,319.1,561.8,316.2,561.9z M316,559.2c-1.9,0.1-3.5-1.5-3.4-3.4c0.1-1.6,1.4-2.9,3-3
			c1.9-0.1,3.5,1.5,3.4,3.4C318.8,557.9,317.6,559.1,316,559.2z"/>
	</g>
	<g>
		<path d="M283,581.2c1.6-0.1,2.9-1.4,3-3c0-0.5-0.1-1-0.2-1.4l-4.1,4.1C282,581.2,282.5,581.3,283,581.2z"/>
		<path d="M277.6,580.8c-0.5-0.9-0.7-2-0.6-3.1c0.2-2.9,2.6-5.3,5.5-5.5c1.1-0.1,2.2,0.2,3.1,0.6l2.2-2.2c-1.6-0.6-3.2-0.9-5-0.9
			c-5.3,0-10.2,2.9-13.8,7.7c-0.3,0.4-0.3,0.9,0,1.3c1.6,2.1,3.4,3.9,5.4,5.2L277.6,580.8z"/>
		<path d="M279.6,577.9c0,0.3,0,0.5,0.1,0.8l3.7-3.7c-0.3,0-0.5-0.1-0.8-0.1C281,575,279.7,576.3,279.6,577.9z"/>
		<path d="M296.6,577.4c-1.7-2.3-3.7-4.1-5.9-5.5l-2.9,2.9c0.7,1,1,2.3,0.9,3.6c-0.2,2.9-2.6,5.3-5.5,5.5c-1.3,0.1-2.6-0.3-3.6-0.9
			l-2.3,2.3c1.8,0.7,3.6,1.1,5.5,1.1c5.3,0,10.2-2.9,13.8-7.7C296.9,578.3,296.9,577.8,296.6,577.4z"/>
		<rect x="270.8" y="577.5" transform="matrix(0.7071 -0.7071 0.7071 0.7071 -326.157 368.7337)" width="22.4" height="1.2"/>
	</g>
	<g>
		<path class="st7" d="M316,581.2c1.6-0.1,2.9-1.4,3-3c0-0.5-0.1-1-0.2-1.4l-4.1,4.1C315,581.2,315.5,581.3,316,581.2z"/>
		<path class="st7" d="M310.6,580.8c-0.5-0.9-0.7-2-0.6-3.1c0.2-2.9,2.6-5.3,5.5-5.5c1.1-0.1,2.2,0.2,3.1,0.6l2.2-2.2
			c-1.6-0.6-3.2-0.9-5-0.9c-5.3,0-10.2,2.9-13.8,7.7c-0.3,0.4-0.3,0.9,0,1.3c1.6,2.1,3.4,3.9,5.4,5.2L310.6,580.8z"/>
		<path class="st7" d="M312.6,577.9c0,0.3,0,0.5,0.1,0.8l3.7-3.7c-0.3,0-0.5-0.1-0.8-0.1C314,575,312.7,576.3,312.6,577.9z"/>
		<path class="st7" d="M329.6,577.4c-1.7-2.3-3.7-4.1-5.9-5.5l-2.9,2.9c0.7,1,1,2.3,0.9,3.6c-0.2,2.9-2.6,5.3-5.5,5.5
			c-1.3,0.1-2.6-0.3-3.6-0.9l-2.3,2.3c1.8,0.7,3.6,1.1,5.5,1.1c5.3,0,10.2-2.9,13.8-7.7C329.9,578.3,329.9,577.8,329.6,577.4z"/>
		
			<rect x="303.8" y="577.5" transform="matrix(0.7071 -0.7071 0.7071 0.7071 -316.4915 392.0682)" class="st7" width="22.4" height="1.2"/>
	</g>
	<g>
		<g>
			<path d="M282,591.6c1.2-0.1,2.4,0,3.5,0.3c3.6,1.1,6.3,4.4,6.3,8.3h2.4c0.1,0,0.2,0.2,0.1,0.3l-3.6,4.9c-0.1,0.1-0.2,0.1-0.2,0
				l-3.6-4.9c-0.1-0.1,0-0.3,0.1-0.3h2.4c0-2.6-1.6-4.8-3.9-5.7c-0.9-0.4-1.8-0.5-2.8-0.5c-1.4,0.1-2.6,0.6-3.6,1.4
				c-0.5,0.4-1.3,0.3-1.7-0.2c-0.4-0.5-0.3-1.3,0.2-1.7C278.8,592.5,280.3,591.8,282,591.6z M286.5,605.6c-1,0.8-2.3,1.3-3.6,1.4
				c-1,0.1-1.9-0.1-2.8-0.5c-2.3-1-3.9-3.2-3.9-5.7h2.4c0.1,0,0.2-0.2,0.1-0.3l-3.6-4.9c-0.1-0.1-0.2-0.1-0.2,0l-3.6,4.9
				c-0.1,0.1,0,0.3,0.1,0.3h2.4c0,3.9,2.7,7.3,6.3,8.3c1.1,0.3,2.3,0.4,3.5,0.3c1.7-0.2,3.2-0.9,4.4-1.8c0.5-0.4,0.6-1.1,0.2-1.7
				C287.8,605.3,287,605.2,286.5,605.6z"/>
		</g>
	</g>
	<g>
		<g>
			<path class="st7" d="M315,591.6c1.2-0.1,2.4,0,3.5,0.3c3.6,1.1,6.3,4.4,6.3,8.3h2.4c0.1,0,0.2,0.2,0.1,0.3l-3.6,4.9
				c-0.1,0.1-0.2,0.1-0.2,0l-3.6-4.9c-0.1-0.1,0-0.3,0.1-0.3h2.4c0-2.6-1.6-4.8-3.9-5.7c-0.9-0.4-1.8-0.5-2.8-0.5
				c-1.4,0.1-2.6,0.6-3.6,1.4c-0.5,0.4-1.3,0.3-1.7-0.2c-0.4-0.5-0.3-1.3,0.2-1.7C311.8,592.5,313.3,591.8,315,591.6z M319.5,605.6
				c-1,0.8-2.3,1.3-3.6,1.4c-1,0.1-1.9-0.1-2.8-0.5c-2.3-1-3.9-3.2-3.9-5.7h2.4c0.1,0,0.2-0.2,0.1-0.3l-3.6-4.9
				c-0.1-0.1-0.2-0.1-0.2,0l-3.6,4.9c-0.1,0.1,0,0.3,0.1,0.3h2.4c0,3.9,2.7,7.3,6.3,8.3c1.1,0.3,2.3,0.4,3.5,0.3
				c1.7-0.2,3.2-0.9,4.4-1.8c0.5-0.4,0.6-1.1,0.2-1.7C320.8,605.3,320,605.2,319.5,605.6z"/>
		</g>
	</g>
	<circle class="st20" cx="419.5" cy="206.5" r="7.5"/>
	<circle class="st21" cx="436.5" cy="206.5" r="7.5"/>
	<circle class="st22" cx="419.5" cy="223.5" r="7.5"/>
	<circle cx="436.5" cy="223.5" r="7.5"/>
</g>
<g id="Layer_2" class="st23">
	<g class="st24">
		<path d="M170.8,69c-6.3,0-11.4,5.1-11.4,11.4c0,2.1,0.6,4.2,1.7,6l9.1,14.6c0.2,0.3,0.5,0.4,0.8,0.4c0,0,0,0,0,0
			c0.3,0,0.6-0.2,0.8-0.5l8.8-14.8c1.1-1.8,1.6-3.8,1.6-5.9C182.2,74.1,177.1,69,170.8,69z M178.9,85.3l-8,13.4l-8.2-13.3
			c-0.9-1.5-1.4-3.2-1.4-5c0-5.2,4.3-9.5,9.5-9.5s9.5,4.3,9.5,9.5C180.3,82.2,179.8,83.8,178.9,85.3z"/>
		<path d="M170.8,74.7c-3.1,0-5.7,2.6-5.7,5.7c0,3.1,2.5,5.7,5.7,5.7c3.2,0,5.7-2.6,5.7-5.7C176.5,77.3,173.9,74.7,170.8,74.7z
			 M170.8,84.3c-2.1,0-3.8-1.7-3.8-3.8c0-2.1,1.7-3.8,3.8-3.8s3.8,1.7,3.8,3.8C174.6,82.5,172.9,84.3,170.8,84.3z"/>
	</g>
	<g class="st24">
		<path class="st7" d="M170.8,114.9c-6.3,0-11.4,5.1-11.4,11.4c0,2.1,0.6,4.2,1.7,6l9.1,14.6c0.2,0.3,0.5,0.4,0.8,0.4c0,0,0,0,0,0
			c0.3,0,0.6-0.2,0.8-0.5l8.8-14.8c1.1-1.8,1.6-3.8,1.6-5.9C182.2,120,177.1,114.9,170.8,114.9z M178.9,131.2l-8,13.4l-8.2-13.3
			c-0.9-1.5-1.4-3.2-1.4-5c0-5.2,4.3-9.5,9.5-9.5s9.5,4.3,9.5,9.5C180.3,128,179.8,129.7,178.9,131.2z"/>
		<path class="st7" d="M170.8,120.6c-3.1,0-5.7,2.6-5.7,5.7c0,3.1,2.5,5.7,5.7,5.7c3.2,0,5.7-2.6,5.7-5.7
			C176.5,123.2,173.9,120.6,170.8,120.6z M170.8,130.1c-2.1,0-3.8-1.7-3.8-3.8c0-2.1,1.7-3.8,3.8-3.8s3.8,1.7,3.8,3.8
			C174.6,128.4,172.9,130.1,170.8,130.1z"/>
	</g>
</g>
</svg>
