<?xml version="1.0" encoding="utf-8"?>
<!-- Generator: Adobe Illustrator 22.0.1, SVG Export Plug-In . SVG Version: 6.00 Build 0)  -->
<svg version="1.1" id="Layer_1" xmlns="http://www.w3.org/2000/svg" xmlns:xlink="http://www.w3.org/1999/xlink" x="0px" y="0px"
	 viewBox="0 0 140 37" style="enable-background:new 0 0 140 37;" xml:space="preserve">
<style type="text/css">
	.st0{fill:#A89F17;}
	.st1{fill:#9C4894;}
	.st2{fill:#3F4394;}
	.st3{fill:#E51F5C;}
	.st4{fill:#951611;}
	.st5{fill:#8A0F36;}
	.st6{fill:#370A34;}
</style>
<g>
	<g>
		<rect x="111.9" y="7.3" class="st0" width="5.7" height="21.5"/>
		<rect x="120.5" y="7.3" class="st1" width="5.7" height="21.5"/>
		<rect x="129.1" y="7.3" class="st2" width="5.7" height="21.5"/>
		<rect x="111.9" y="7.3" class="st3" width="22.9" height="5.7"/>
		<rect x="111.9" y="7.3" class="st4" width="5.7" height="5.7"/>
		<rect x="120.5" y="7.3" class="st5" width="5.7" height="5.7"/>
		<rect x="129.1" y="7.3" class="st6" width="5.7" height="5.7"/>
	</g>
</g>
<rect x="104.5" y="1.3" width="1.1" height="34.1"/>
<rect x="104.5" y="1.3" width="1.1" height="34.1"/>
<g>
	<path d="M5.4,9.7H12v18.1c0,4.3-1.7,8.2-7.4,8.2c-1.8,0-2.7-0.2-3.6-0.5l1.1-4.8c0.5,0.2,0.9,0.2,1.4,0.2c1.4,0,1.9-0.8,1.9-2.8
		V9.7z M5,4.1c0-1.9,1.5-3.3,3.7-3.3s3.7,1.4,3.7,3.3s-1.5,3.3-3.7,3.3S5,6,5,4.1z"/>
	<path d="M21.8,9.3c2.1,0,3.3,0.8,4.4,1.9L26,8.4V2.2h6.6v26.6h-5.3l-0.5-1.8h-0.2c-1.3,1.3-3.1,2.2-4.8,2.2c-4.7,0-7.8-3.8-7.8-10
		C14,13,17.9,9.3,21.8,9.3z M23.6,23.9c1,0,1.8-0.3,2.4-1.4v-7c-0.8-0.7-1.8-0.9-2.6-0.9c-1.4,0-2.7,1.2-2.7,4.6
		C20.7,22.6,21.8,23.9,23.6,23.9z"/>
	<path d="M34.5,10.5h1.8L40.4,22c0.6,1.8,1.3,3.6,1.8,5.3h0.2c0.6-1.7,1.3-3.5,1.9-5.3l4.1-11.5h1.7l-6.8,18.3h-2L34.5,10.5z"/>
	<path d="M61.9,17.3c0.1-2.8-0.7-5.8-4.3-5.8c-2.5,0-4.6,1.2-5.8,2.1l-0.8-1.3c1.3-0.9,3.8-2.4,6.8-2.4c4.4,0,5.8,3.1,5.8,7.1v11.7
		h-1.4l-0.2-2.4h-0.1c-1.9,1.5-4.1,2.8-6.5,2.8c-2.9,0-5.3-1.6-5.3-5C50,20.2,53.7,18.2,61.9,17.3z M55.6,27.8c2.1,0,4-1,6.2-3v-6.2
		c-7.5,0.9-10.1,2.6-10.1,5.5C51.8,26.8,53.5,27.8,55.6,27.8z"/>
	<path d="M66.8,10.5h1.7V22c0,3.9,1.2,5.7,4.2,5.7c2.2,0,3.8-1.1,5.9-3.7V10.5h1.7v18.3h-1.4l-0.2-3.1h-0.1
		c-1.8,2.1-3.7,3.5-6.2,3.5c-3.8,0-5.5-2.3-5.5-7V10.5z"/>
	<path d="M83.4,1.4h1.7v25.2c0,0.8,0.3,1.2,0.8,1.2c0.2,0,0.3,0,0.7-0.1l0.3,1.4c-0.3,0.1-0.7,0.2-1.2,0.2c-1.5,0-2.3-0.9-2.3-2.9
		V1.4z"/>
	<path d="M90.6,11.9h-2.9v-1.3l2.9-0.2l0.2-5.3h1.5v5.3h5.3v1.5h-5.3v12c0,2.3,0.6,3.9,3.1,3.9c0.7,0,1.6-0.3,2.3-0.6l0.5,1.4
		c-1.1,0.4-2.2,0.7-3,0.7c-3.6,0-4.6-2.3-4.6-5.5V11.9z"/>
</g>
</svg>
