<?xml version="1.0" encoding="utf-8"?>
<!-- Generator: Adobe Illustrator 22.0.1, SVG Export Plug-In . SVG Version: 6.00 Build 0)  -->
<svg version="1.1" id="Layer_1" xmlns="http://www.w3.org/2000/svg" xmlns:xlink="http://www.w3.org/1999/xlink" x="0px" y="0px"
	 viewBox="0 0 90 37" style="enable-background:new 0 0 90 37;" xml:space="preserve">
<style type="text/css">
	.st0{fill:#A89F17;}
	.st1{fill:#9C4894;}
	.st2{fill:#3F4394;}
	.st3{fill:#E51F5C;}
	.st4{fill:#951611;}
	.st5{fill:#8A0F36;}
	.st6{fill:#370A34;}
</style>
<g>
	<g>
		<rect x="62.9" y="7.6" class="st0" width="5.7" height="21.3"/>
		<rect x="71.4" y="7.6" class="st1" width="5.7" height="21.3"/>
		<rect x="79.9" y="7.6" class="st2" width="5.7" height="21.3"/>
		<rect x="62.9" y="7.6" class="st3" width="22.7" height="5.7"/>
		<rect x="62.9" y="7.6" class="st4" width="5.7" height="5.7"/>
		<rect x="71.4" y="7.6" class="st5" width="5.7" height="5.7"/>
		<rect x="79.9" y="7.6" class="st6" width="5.7" height="5.7"/>
	</g>
</g>
<rect x="55.6" y="1.7" width="1.1" height="33.7"/>
<rect x="55.6" y="1.7" width="1.1" height="33.7"/>
<g>
	<path d="M6,10h6.5v17.9c0,4.2-1.7,8.1-7.3,8.1c-1.7,0-2.7-0.2-3.6-0.5l1.1-4.8c0.5,0.2,0.9,0.2,1.4,0.2c1.4,0,1.9-0.8,1.9-2.8V10z
		 M5.6,4.4c0-1.9,1.5-3.3,3.6-3.3s3.6,1.4,3.6,3.3s-1.5,3.3-3.6,3.3S5.6,6.3,5.6,4.4z"/>
	<path d="M22.2,9.5c2,0,3.3,0.8,4.4,1.9l-0.2-2.7V2.6h6.5v26.3h-5.3l-0.5-1.7H27c-1.3,1.3-3.1,2.2-4.8,2.2c-4.7,0-7.7-3.8-7.7-9.9
		C14.5,13.2,18.4,9.5,22.2,9.5z M24,24.1c1,0,1.7-0.3,2.4-1.4v-7c-0.8-0.7-1.7-0.9-2.6-0.9c-1.4,0-2.6,1.2-2.6,4.5
		C21.2,22.8,22.2,24.1,24,24.1z"/>
	<path d="M41,19.4l-5.7-8.7h1.9l2.9,4.6c0.6,1,1.2,2,1.9,3h0.2c0.6-1,1.2-2,1.9-3l2.8-4.6h1.7L43,19.6l6.2,9.3h-1.9l-3.2-5
		c-0.7-1.1-1.4-2.3-2.2-3.3h-0.2c-0.7,1.1-1.4,2.2-2.1,3.3l-3.1,5h-1.8L41,19.4z"/>
</g>
</svg>
